<svg width="162" height="217" viewBox="0 0 162 217" fill="none" xmlns="http://www.w3.org/2000/svg">
<path d="M66.2699 141.1C66.2699 134.1 67.3699 127.9 69.5699 122.5C71.9699 117.1 74.8699 112.3 78.2699 108.1C81.8699 103.9 85.6699 100 89.6699 96.4C93.6699 92.8 97.3699 89.4 100.77 86.2C104.37 82.8 107.27 79.3 109.47 75.7C111.87 72.1 113.07 68.1 113.07 63.7C113.07 56.5 110.07 50.7 104.07 46.3C98.2699 41.9 90.4699 39.7 80.6699 39.7C71.2699 39.7 62.8699 41.7 55.4699 45.7C48.0699 49.5 41.9699 54.9 37.1699 61.9L0.869922 40.6C8.86992 28.4 19.9699 18.7 34.1699 11.5C48.3699 4.1 65.5699 0.399996 85.7699 0.399996C100.77 0.399996 113.97 2.59999 125.37 6.99998C136.77 11.2 145.67 17.4 152.07 25.6C158.67 33.8 161.97 43.9 161.97 55.9C161.97 63.7 160.77 70.6 158.37 76.6C155.97 82.6 152.87 87.8 149.07 92.2C145.27 96.6 141.17 100.7 136.77 104.5C132.57 108.3 128.57 112 124.77 115.6C120.97 119.2 117.77 123 115.17 127C112.77 131 111.57 135.7 111.57 141.1H66.2699ZM89.0699 216.4C80.6699 216.4 73.7699 213.7 68.3699 208.3C62.9699 202.9 60.2699 196.5 60.2699 189.1C60.2699 181.5 62.9699 175.2 68.3699 170.2C73.7699 165 80.6699 162.4 89.0699 162.4C97.6699 162.4 104.57 165 109.77 170.2C115.17 175.2 117.87 181.5 117.87 189.1C117.87 196.5 115.17 202.9 109.77 208.3C104.57 213.7 97.6699 216.4 89.0699 216.4Z" fill="url(#paint0_linear_277_186)"/>
<defs>
<linearGradient id="paint0_linear_277_186" x1="89.5" y1="-51" x2="89" y2="336.5" gradientUnits="userSpaceOnUse">
<stop stop-color="#FF713B"/>
<stop offset="1" stop-color="#FFB703"/>
</linearGradient>
</defs>
</svg>
