<svg width="394" height="311" viewBox="0 0 394 311" fill="none" xmlns="http://www.w3.org/2000/svg">
<g clip-path="url(#clip0_212_332)">
<rect x="0.5" y="0.5" width="393" height="310" rx="19.5" fill="#219EBC" stroke="#FF713B"/>
<path d="M86.8274 98.5433H82.843C82.7294 97.8899 82.5199 97.3111 82.2145 96.8068C81.9091 96.2955 81.5291 95.8622 81.0746 95.5071C80.62 95.152 80.1016 94.8857 79.5192 94.7081C78.9439 94.5234 78.3224 94.4311 77.6548 94.4311C76.4688 94.4311 75.4176 94.7294 74.5014 95.326C73.5852 95.9155 72.8679 96.782 72.3494 97.9254C71.831 99.0618 71.5717 100.45 71.5717 102.091C71.5717 103.76 71.831 105.166 72.3494 106.31C72.875 107.446 73.5923 108.305 74.5014 108.888C75.4176 109.463 76.4652 109.751 77.6442 109.751C78.2976 109.751 78.9084 109.665 79.4766 109.495C80.0518 109.317 80.5668 109.058 81.0213 108.717C81.483 108.376 81.87 107.957 82.1825 107.46C82.5021 106.963 82.7223 106.395 82.843 105.756L86.8274 105.777C86.6783 106.814 86.3551 107.787 85.858 108.696C85.3679 109.605 84.7251 110.408 83.9297 111.104C83.1342 111.793 82.2038 112.332 81.1385 112.723C80.0732 113.107 78.8906 113.298 77.5909 113.298C75.6733 113.298 73.9616 112.854 72.456 111.967C70.9503 111.079 69.7642 109.797 68.8977 108.121C68.0313 106.445 67.598 104.435 67.598 102.091C67.598 99.7401 68.0348 97.7301 68.9084 96.0611C69.782 94.3849 70.9716 93.103 72.4773 92.2152C73.983 91.3274 75.6875 90.8835 77.5909 90.8835C78.8054 90.8835 79.9347 91.054 80.9787 91.3949C82.0227 91.7358 82.9531 92.2365 83.7699 92.897C84.5866 93.5504 85.2578 94.353 85.7834 95.3047C86.3161 96.2493 86.6641 97.3288 86.8274 98.5433ZM96.5142 113.32C94.9162 113.32 93.5313 112.968 92.3594 112.265C91.1875 111.562 90.2784 110.578 89.6321 109.314C88.9929 108.05 88.6733 106.572 88.6733 104.882C88.6733 103.192 88.9929 101.711 89.6321 100.44C90.2784 99.1683 91.1875 98.1811 92.3594 97.478C93.5313 96.7749 94.9162 96.4233 96.5142 96.4233C98.1123 96.4233 99.4972 96.7749 100.669 97.478C101.841 98.1811 102.746 99.1683 103.386 100.44C104.032 101.711 104.355 103.192 104.355 104.882C104.355 106.572 104.032 108.05 103.386 109.314C102.746 110.578 101.841 111.562 100.669 112.265C99.4972 112.968 98.1123 113.32 96.5142 113.32ZM96.5355 110.23C97.402 110.23 98.1265 109.992 98.7088 109.516C99.2912 109.033 99.7245 108.387 100.009 107.577C100.3 106.768 100.445 105.866 100.445 104.871C100.445 103.87 100.3 102.964 100.009 102.155C99.7245 101.338 99.2912 100.688 98.7088 100.205C98.1265 99.7223 97.402 99.4808 96.5355 99.4808C95.6478 99.4808 94.9091 99.7223 94.3196 100.205C93.7373 100.688 93.3005 101.338 93.0093 102.155C92.7252 102.964 92.5831 103.87 92.5831 104.871C92.5831 105.866 92.7252 106.768 93.0093 107.577C93.3005 108.387 93.7373 109.033 94.3196 109.516C94.9091 109.992 95.6478 110.23 96.5355 110.23ZM110.585 103.412V113H106.728V96.6364H110.414V99.4169H110.606C110.983 98.5007 111.583 97.7727 112.407 97.233C113.238 96.6932 114.264 96.4233 115.486 96.4233C116.615 96.4233 117.598 96.6648 118.437 97.1477C119.282 97.6307 119.935 98.3303 120.397 99.2464C120.865 100.163 121.096 101.274 121.089 102.581V113H117.233V103.178C117.233 102.084 116.949 101.228 116.38 100.61C115.819 99.9922 115.042 99.6832 114.047 99.6832C113.373 99.6832 112.772 99.8324 112.247 100.131C111.728 100.422 111.32 100.844 111.022 101.398C110.731 101.952 110.585 102.624 110.585 103.412ZM131.226 119.477C129.841 119.477 128.652 119.289 127.657 118.913C126.663 118.543 125.864 118.046 125.26 117.421C124.657 116.796 124.237 116.104 124.003 115.344L127.476 114.502C127.632 114.822 127.86 115.138 128.158 115.45C128.456 115.77 128.858 116.033 129.362 116.239C129.873 116.452 130.516 116.558 131.29 116.558C132.384 116.558 133.289 116.292 134.007 115.759C134.724 115.234 135.083 114.367 135.083 113.16V110.06H134.891C134.692 110.457 134.401 110.866 134.017 111.285C133.641 111.704 133.14 112.055 132.515 112.339C131.897 112.624 131.12 112.766 130.182 112.766C128.925 112.766 127.785 112.471 126.762 111.881C125.747 111.285 124.937 110.397 124.333 109.218C123.737 108.032 123.438 106.548 123.438 104.765C123.438 102.968 123.737 101.452 124.333 100.216C124.937 98.973 125.75 98.032 126.773 97.3928C127.796 96.7464 128.936 96.4233 130.193 96.4233C131.152 96.4233 131.94 96.5866 132.558 96.9134C133.183 97.233 133.68 97.62 134.049 98.0746C134.419 98.522 134.699 98.9446 134.891 99.3423H135.104V96.6364H138.907V113.266C138.907 114.665 138.573 115.823 137.906 116.739C137.238 117.656 136.326 118.341 135.168 118.795C134.01 119.25 132.696 119.477 131.226 119.477ZM131.258 109.74C132.075 109.74 132.771 109.541 133.346 109.143C133.921 108.746 134.358 108.174 134.657 107.428C134.955 106.683 135.104 105.788 135.104 104.744C135.104 103.714 134.955 102.812 134.657 102.038C134.365 101.263 133.932 100.663 133.357 100.237C132.789 99.804 132.089 99.5874 131.258 99.5874C130.399 99.5874 129.681 99.8111 129.106 100.259C128.531 100.706 128.098 101.32 127.806 102.102C127.515 102.876 127.37 103.756 127.37 104.744C127.37 105.745 127.515 106.622 127.806 107.375C128.105 108.121 128.541 108.703 129.117 109.122C129.699 109.534 130.413 109.74 131.258 109.74ZM141.96 113V96.6364H145.699V99.3636H145.869C146.168 98.419 146.679 97.6911 147.404 97.1797C148.135 96.6612 148.97 96.402 149.907 96.402C150.12 96.402 150.358 96.4126 150.621 96.4339C150.891 96.4482 151.114 96.473 151.292 96.5085V100.056C151.129 99.9993 150.869 99.9496 150.514 99.907C150.166 99.8572 149.829 99.8324 149.502 99.8324C148.799 99.8324 148.167 99.9851 147.606 100.29C147.052 100.589 146.615 101.004 146.296 101.537C145.976 102.07 145.816 102.684 145.816 103.38V113H141.96ZM157.37 113.33C156.333 113.33 155.399 113.146 154.568 112.776C153.744 112.4 153.091 111.846 152.608 111.114C152.132 110.383 151.894 109.481 151.894 108.408C151.894 107.485 152.065 106.722 152.406 106.118C152.746 105.514 153.212 105.031 153.801 104.669C154.391 104.307 155.055 104.033 155.793 103.849C156.539 103.657 157.31 103.518 158.105 103.433C159.064 103.334 159.842 103.245 160.438 103.167C161.035 103.082 161.468 102.954 161.738 102.783C162.015 102.606 162.153 102.332 162.153 101.963V101.899C162.153 101.097 161.915 100.475 161.44 100.035C160.964 99.5945 160.278 99.3743 159.384 99.3743C158.439 99.3743 157.69 99.5803 157.136 99.9922C156.589 100.404 156.219 100.891 156.028 101.452L152.427 100.94C152.711 99.946 153.18 99.1151 153.833 98.4474C154.487 97.7727 155.286 97.2685 156.23 96.9347C157.175 96.5938 158.219 96.4233 159.362 96.4233C160.151 96.4233 160.935 96.5156 161.717 96.7003C162.498 96.8849 163.212 97.1903 163.858 97.6165C164.504 98.0355 165.023 98.6072 165.413 99.3317C165.811 100.056 166.01 100.962 166.01 102.048V113H162.303V110.752H162.175C161.94 111.207 161.61 111.633 161.184 112.031C160.765 112.421 160.236 112.737 159.597 112.979C158.964 113.213 158.222 113.33 157.37 113.33ZM158.371 110.496C159.146 110.496 159.817 110.344 160.385 110.038C160.953 109.726 161.39 109.314 161.695 108.803C162.008 108.291 162.164 107.734 162.164 107.13V105.202C162.043 105.301 161.837 105.393 161.546 105.479C161.262 105.564 160.942 105.638 160.587 105.702C160.232 105.766 159.881 105.823 159.533 105.873C159.185 105.923 158.883 105.965 158.627 106.001C158.052 106.079 157.537 106.207 157.082 106.384C156.628 106.562 156.269 106.81 156.006 107.13C155.744 107.442 155.612 107.847 155.612 108.344C155.612 109.055 155.871 109.591 156.39 109.953C156.908 110.315 157.569 110.496 158.371 110.496ZM177.159 96.6364V99.6193H167.752V96.6364H177.159ZM170.074 92.7159H173.931V108.078C173.931 108.597 174.009 108.994 174.165 109.271C174.329 109.541 174.542 109.726 174.805 109.825C175.067 109.925 175.359 109.974 175.678 109.974C175.92 109.974 176.14 109.957 176.339 109.921C176.545 109.886 176.701 109.854 176.807 109.825L177.457 112.84C177.251 112.911 176.957 112.989 176.573 113.075C176.197 113.16 175.735 113.21 175.188 113.224C174.222 113.252 173.352 113.107 172.578 112.787C171.804 112.46 171.189 111.956 170.735 111.274C170.287 110.592 170.067 109.74 170.074 108.717V92.7159ZM192.183 100.962L188.668 101.345C188.568 100.99 188.394 100.656 188.145 100.344C187.904 100.031 187.577 99.7791 187.165 99.5874C186.753 99.3956 186.249 99.2997 185.653 99.2997C184.85 99.2997 184.175 99.4737 183.628 99.8217C183.089 100.17 182.822 100.621 182.829 101.175C182.822 101.651 182.996 102.038 183.351 102.336C183.714 102.634 184.31 102.879 185.141 103.071L187.932 103.668C189.481 104.001 190.631 104.531 191.384 105.255C192.144 105.979 192.528 106.928 192.535 108.099C192.528 109.129 192.226 110.038 191.629 110.827C191.04 111.608 190.219 112.219 189.168 112.659C188.117 113.099 186.91 113.32 185.546 113.32C183.543 113.32 181.931 112.901 180.709 112.062C179.488 111.217 178.76 110.042 178.525 108.536L182.286 108.174C182.457 108.913 182.819 109.47 183.373 109.847C183.927 110.223 184.648 110.411 185.535 110.411C186.452 110.411 187.187 110.223 187.741 109.847C188.302 109.47 188.582 109.005 188.582 108.451C188.582 107.982 188.401 107.595 188.039 107.29C187.684 106.984 187.13 106.75 186.377 106.587L183.586 106.001C182.016 105.674 180.855 105.124 180.102 104.349C179.349 103.568 178.976 102.581 178.984 101.388C178.976 100.379 179.25 99.5057 179.804 98.767C180.365 98.0213 181.143 97.446 182.137 97.0412C183.138 96.6293 184.293 96.4233 185.599 96.4233C187.517 96.4233 189.026 96.8317 190.127 97.6484C191.235 98.4652 191.92 99.5696 192.183 100.962ZM199.534 91.1818L199.183 106.587H195.752L195.411 91.1818H199.534ZM197.467 113.234C196.821 113.234 196.267 113.007 195.806 112.553C195.351 112.098 195.124 111.544 195.124 110.891C195.124 110.251 195.351 109.705 195.806 109.25C196.267 108.795 196.821 108.568 197.467 108.568C198.1 108.568 198.646 108.795 199.108 109.25C199.577 109.705 199.811 110.251 199.811 110.891C199.811 111.324 199.701 111.718 199.481 112.073C199.268 112.428 198.984 112.712 198.629 112.925C198.281 113.131 197.894 113.234 197.467 113.234Z" fill="url(#paint0_linear_212_332)"/>
<path d="M209.496 91.1818H212.521L218.572 101.366H218.828L224.879 91.1818H227.905L220.021 104.009V113H217.379V104.009L209.496 91.1818ZM234.414 113.341C232.937 113.341 231.641 112.989 230.526 112.286C229.418 111.583 228.551 110.599 227.926 109.335C227.308 108.071 226.999 106.594 226.999 104.903C226.999 103.199 227.308 101.711 227.926 100.44C228.551 99.1683 229.418 98.1811 230.526 97.478C231.641 96.7749 232.937 96.4233 234.414 96.4233C235.891 96.4233 237.184 96.7749 238.292 97.478C239.407 98.1811 240.273 99.1683 240.891 100.44C241.516 101.711 241.829 103.199 241.829 104.903C241.829 106.594 241.516 108.071 240.891 109.335C240.273 110.599 239.407 111.583 238.292 112.286C237.184 112.989 235.891 113.341 234.414 113.341ZM234.414 111.082C235.536 111.082 236.46 110.795 237.184 110.219C237.908 109.644 238.445 108.888 238.793 107.95C239.141 107.013 239.315 105.997 239.315 104.903C239.315 103.81 239.141 102.79 238.793 101.846C238.445 100.901 237.908 100.138 237.184 99.5554C236.46 98.973 235.536 98.6818 234.414 98.6818C233.292 98.6818 232.369 98.973 231.644 99.5554C230.92 100.138 230.384 100.901 230.036 101.846C229.688 102.79 229.514 103.81 229.514 104.903C229.514 105.997 229.688 107.013 230.036 107.95C230.384 108.888 230.92 109.644 231.644 110.219C232.369 110.795 233.292 111.082 234.414 111.082ZM255.079 106.31V96.6364H257.593V113H255.079V110.23H254.909C254.525 111.061 253.929 111.768 253.119 112.35C252.309 112.925 251.287 113.213 250.051 113.213C249.028 113.213 248.119 112.989 247.324 112.542C246.528 112.087 245.903 111.406 245.449 110.496C244.994 109.58 244.767 108.426 244.767 107.034V96.6364H247.281V106.864C247.281 108.057 247.615 109.009 248.282 109.719C248.957 110.429 249.816 110.784 250.861 110.784C251.486 110.784 252.121 110.624 252.767 110.305C253.421 109.985 253.968 109.495 254.408 108.835C254.856 108.174 255.079 107.332 255.079 106.31ZM261.298 113V96.6364H263.727V99.108H263.898C264.196 98.2983 264.736 97.6413 265.517 97.1371C266.298 96.6328 267.179 96.3807 268.159 96.3807C268.344 96.3807 268.575 96.3842 268.852 96.3913C269.129 96.3984 269.338 96.4091 269.48 96.4233V98.9801C269.395 98.9588 269.2 98.9268 268.894 98.8842C268.596 98.8345 268.28 98.8097 267.946 98.8097C267.151 98.8097 266.44 98.9766 265.815 99.3104C265.198 99.6371 264.707 100.092 264.345 100.674C263.99 101.249 263.813 101.906 263.813 102.645V113H261.298ZM74.9489 149.341C73.4148 149.341 72.0938 148.979 70.9858 148.254C69.8778 147.53 69.0256 146.532 68.429 145.261C67.8324 143.989 67.5341 142.537 67.5341 140.903C67.5341 139.241 67.8395 137.775 68.4503 136.504C69.0682 135.225 69.9276 134.227 71.0284 133.51C72.1364 132.786 73.429 132.423 74.9062 132.423C76.0568 132.423 77.0938 132.636 78.017 133.062C78.9403 133.489 79.6967 134.085 80.2862 134.852C80.8757 135.619 81.2415 136.514 81.3835 137.537H78.8693C78.6776 136.791 78.2514 136.131 77.5909 135.555C76.9375 134.973 76.0568 134.682 74.9489 134.682C73.9688 134.682 73.1094 134.937 72.3707 135.449C71.6392 135.953 71.0675 136.667 70.6555 137.59C70.2507 138.506 70.0483 139.582 70.0483 140.818C70.0483 142.082 70.2472 143.183 70.6449 144.121C71.0497 145.058 71.6179 145.786 72.3494 146.305C73.0881 146.823 73.9545 147.082 74.9489 147.082C75.6023 147.082 76.1953 146.969 76.728 146.741C77.2607 146.514 77.7116 146.188 78.081 145.761C78.4503 145.335 78.7131 144.824 78.8693 144.227H81.3835C81.2415 145.193 80.8899 146.063 80.3288 146.837C79.7749 147.604 79.0398 148.215 78.1236 148.67C77.2145 149.117 76.1563 149.341 74.9489 149.341ZM90.8067 149.341C89.3294 149.341 88.0332 148.989 86.9182 148.286C85.8102 147.583 84.9438 146.599 84.3188 145.335C83.7009 144.071 83.3919 142.594 83.3919 140.903C83.3919 139.199 83.7009 137.711 84.3188 136.44C84.9438 135.168 85.8102 134.181 86.9182 133.478C88.0332 132.775 89.3294 132.423 90.8067 132.423C92.2839 132.423 93.5766 132.775 94.6845 133.478C95.7996 134.181 96.6661 135.168 97.2839 136.44C97.9089 137.711 98.2214 139.199 98.2214 140.903C98.2214 142.594 97.9089 144.071 97.2839 145.335C96.6661 146.599 95.7996 147.583 94.6845 148.286C93.5766 148.989 92.2839 149.341 90.8067 149.341ZM90.8067 147.082C91.9288 147.082 92.8521 146.795 93.5766 146.219C94.301 145.644 94.8372 144.888 95.1852 143.95C95.5332 143.013 95.7072 141.997 95.7072 140.903C95.7072 139.81 95.5332 138.79 95.1852 137.846C94.8372 136.901 94.301 136.138 93.5766 135.555C92.8521 134.973 91.9288 134.682 90.8067 134.682C89.6845 134.682 88.7612 134.973 88.0368 135.555C87.3124 136.138 86.7761 136.901 86.4281 137.846C86.0801 138.79 85.9061 139.81 85.9061 140.903C85.9061 141.997 86.0801 143.013 86.4281 143.95C86.7761 144.888 87.3124 145.644 88.0368 146.219C88.7612 146.795 89.6845 147.082 90.8067 147.082ZM101.159 149V132.636H103.588V135.193H103.801C104.142 134.32 104.693 133.641 105.453 133.158C106.213 132.668 107.125 132.423 108.191 132.423C109.27 132.423 110.169 132.668 110.886 133.158C111.61 133.641 112.175 134.32 112.58 135.193H112.75C113.169 134.348 113.798 133.677 114.636 133.18C115.474 132.675 116.479 132.423 117.651 132.423C119.114 132.423 120.311 132.881 121.241 133.798C122.171 134.707 122.637 136.124 122.637 138.048V149H120.122V138.048C120.122 136.841 119.792 135.978 119.132 135.46C118.471 134.941 117.693 134.682 116.799 134.682C115.648 134.682 114.757 135.03 114.125 135.726C113.492 136.415 113.176 137.288 113.176 138.347V149H110.62V137.793C110.62 136.862 110.318 136.113 109.714 135.545C109.11 134.969 108.333 134.682 107.381 134.682C106.728 134.682 106.117 134.856 105.549 135.204C104.987 135.552 104.533 136.035 104.185 136.653C103.844 137.263 103.674 137.97 103.674 138.773V149H101.159ZM126.334 155.136V132.636H128.763V135.236H129.061C129.245 134.952 129.501 134.589 129.828 134.149C130.162 133.702 130.638 133.304 131.255 132.956C131.88 132.601 132.726 132.423 133.791 132.423C135.169 132.423 136.383 132.768 137.434 133.457C138.486 134.146 139.306 135.122 139.895 136.386C140.485 137.651 140.78 139.142 140.78 140.861C140.78 142.594 140.485 144.096 139.895 145.367C139.306 146.631 138.489 147.612 137.445 148.308C136.401 148.996 135.197 149.341 133.834 149.341C132.782 149.341 131.941 149.167 131.309 148.819C130.677 148.464 130.19 148.062 129.849 147.615C129.508 147.161 129.245 146.784 129.061 146.486H128.848V155.136H126.334ZM128.805 140.818C128.805 142.054 128.986 143.144 129.348 144.089C129.711 145.026 130.24 145.761 130.936 146.294C131.632 146.82 132.484 147.082 133.493 147.082C134.544 147.082 135.421 146.805 136.124 146.251C136.834 145.69 137.367 144.937 137.722 143.993C138.084 143.041 138.265 141.983 138.265 140.818C138.265 139.668 138.088 138.631 137.733 137.707C137.385 136.777 136.856 136.042 136.145 135.502C135.442 134.955 134.558 134.682 133.493 134.682C132.47 134.682 131.611 134.941 130.915 135.46C130.219 135.971 129.693 136.688 129.338 137.612C128.983 138.528 128.805 139.597 128.805 140.818ZM148.53 149.384C147.493 149.384 146.552 149.188 145.707 148.798C144.862 148.4 144.191 147.828 143.694 147.082C143.196 146.33 142.948 145.42 142.948 144.355C142.948 143.418 143.132 142.658 143.502 142.075C143.871 141.486 144.365 141.024 144.983 140.69C145.6 140.357 146.282 140.108 147.028 139.945C147.781 139.774 148.537 139.639 149.297 139.54C150.292 139.412 151.098 139.316 151.716 139.252C152.341 139.181 152.795 139.064 153.079 138.901C153.37 138.737 153.516 138.453 153.516 138.048V137.963C153.516 136.912 153.228 136.095 152.653 135.513C152.085 134.93 151.222 134.639 150.064 134.639C148.864 134.639 147.923 134.902 147.241 135.428C146.559 135.953 146.08 136.514 145.803 137.111L143.417 136.259C143.843 135.264 144.411 134.49 145.121 133.936C145.838 133.375 146.62 132.984 147.465 132.764C148.317 132.537 149.155 132.423 149.979 132.423C150.505 132.423 151.108 132.487 151.79 132.615C152.479 132.736 153.143 132.988 153.782 133.371C154.429 133.755 154.965 134.334 155.391 135.108C155.817 135.882 156.03 136.919 156.03 138.219V149H153.516V146.784H153.388C153.218 147.139 152.934 147.519 152.536 147.924C152.138 148.329 151.609 148.673 150.948 148.957C150.288 149.241 149.482 149.384 148.53 149.384ZM148.914 147.125C149.908 147.125 150.746 146.93 151.428 146.539C152.117 146.148 152.635 145.644 152.983 145.026C153.338 144.408 153.516 143.759 153.516 143.077V140.776C153.409 140.903 153.175 141.021 152.813 141.127C152.458 141.227 152.046 141.315 151.577 141.393C151.115 141.464 150.664 141.528 150.224 141.585C149.791 141.635 149.439 141.678 149.169 141.713C148.516 141.798 147.905 141.937 147.337 142.129C146.776 142.313 146.321 142.594 145.973 142.97C145.632 143.339 145.462 143.844 145.462 144.483C145.462 145.357 145.785 146.017 146.431 146.464C147.085 146.905 147.912 147.125 148.914 147.125ZM162.233 139.156V149H159.719V132.636H162.148V135.193H162.361C162.745 134.362 163.327 133.695 164.108 133.19C164.89 132.679 165.898 132.423 167.134 132.423C168.242 132.423 169.211 132.651 170.042 133.105C170.873 133.553 171.52 134.234 171.981 135.151C172.443 136.06 172.674 137.21 172.674 138.602V149H170.159V138.773C170.159 137.487 169.826 136.486 169.158 135.768C168.49 135.044 167.574 134.682 166.409 134.682C165.607 134.682 164.89 134.856 164.257 135.204C163.632 135.552 163.139 136.06 162.777 136.727C162.414 137.395 162.233 138.205 162.233 139.156ZM177.401 155.136C176.975 155.136 176.595 155.101 176.261 155.03C175.928 154.966 175.697 154.902 175.569 154.838L176.208 152.622C176.819 152.778 177.359 152.835 177.827 152.793C178.296 152.75 178.712 152.54 179.074 152.164C179.443 151.795 179.781 151.195 180.086 150.364L180.555 149.085L174.504 132.636H177.231L181.748 145.676H181.918L186.435 132.636H189.163L182.217 151.386C181.904 152.232 181.517 152.931 181.055 153.485C180.594 154.046 180.058 154.462 179.447 154.732C178.843 155.001 178.161 155.136 177.401 155.136ZM202.826 149L197.84 132.636H200.482L204.019 145.165H204.19L207.684 132.636H210.369L213.82 145.122H213.991L217.528 132.636H220.17L215.184 149H212.712L209.133 136.429H208.877L205.298 149H202.826ZM222.594 149V132.636H225.108V149H222.594ZM223.872 129.909C223.382 129.909 222.959 129.742 222.604 129.408C222.256 129.075 222.082 128.673 222.082 128.205C222.082 127.736 222.256 127.335 222.604 127.001C222.959 126.667 223.382 126.5 223.872 126.5C224.362 126.5 224.781 126.667 225.129 127.001C225.484 127.335 225.662 127.736 225.662 128.205C225.662 128.673 225.484 129.075 225.129 129.408C224.781 129.742 224.362 129.909 223.872 129.909ZM231.327 127.182V149H228.813V127.182H231.327ZM237.546 127.182V149H235.032V127.182H237.546ZM75.1619 185.341C73.5852 185.341 72.2251 184.993 71.0817 184.297C69.9453 183.594 69.0682 182.614 68.4503 181.357C67.8395 180.092 67.5341 178.622 67.5341 176.946C67.5341 175.27 67.8395 173.793 68.4503 172.514C69.0682 171.229 69.9276 170.227 71.0284 169.51C72.1364 168.786 73.429 168.423 74.9062 168.423C75.7585 168.423 76.6001 168.565 77.4311 168.849C78.2621 169.134 79.0185 169.595 79.7003 170.234C80.3821 170.866 80.9254 171.705 81.3303 172.749C81.7351 173.793 81.9375 175.078 81.9375 176.605V177.67H69.3239V175.497H79.3807C79.3807 174.574 79.196 173.75 78.8267 173.026C78.4645 172.301 77.946 171.729 77.2713 171.31C76.6037 170.891 75.8153 170.682 74.9062 170.682C73.9048 170.682 73.0384 170.93 72.3068 171.428C71.5824 171.918 71.0249 172.557 70.6342 173.345C70.2436 174.134 70.0483 174.979 70.0483 175.881V177.33C70.0483 178.565 70.2614 179.613 70.6875 180.472C71.1207 181.325 71.7209 181.974 72.4879 182.422C73.255 182.862 74.1463 183.082 75.1619 183.082C75.8224 183.082 76.419 182.99 76.9517 182.805C77.4915 182.614 77.9567 182.33 78.3473 181.953C78.7379 181.57 79.0398 181.094 79.2528 180.526L81.6818 181.207C81.4261 182.031 80.9964 182.756 80.3928 183.381C79.7891 183.999 79.0433 184.482 78.1555 184.83C77.2678 185.17 76.2699 185.341 75.1619 185.341ZM86.2976 168.636L90.2181 175.327L94.1385 168.636H97.0363L91.7522 176.818L97.0363 185H94.1385L90.2181 178.651L86.2976 185H83.3999L88.5988 176.818L83.3999 168.636H86.2976ZM99.7238 191.136V168.636H102.153V171.236H102.451C102.636 170.952 102.891 170.589 103.218 170.149C103.552 169.702 104.028 169.304 104.646 168.956C105.271 168.601 106.116 168.423 107.181 168.423C108.559 168.423 109.774 168.768 110.825 169.457C111.876 170.146 112.696 171.122 113.286 172.386C113.875 173.651 114.17 175.142 114.17 176.861C114.17 178.594 113.875 180.096 113.286 181.367C112.696 182.631 111.879 183.612 110.835 184.308C109.791 184.996 108.587 185.341 107.224 185.341C106.173 185.341 105.331 185.167 104.699 184.819C104.067 184.464 103.58 184.062 103.239 183.615C102.899 183.161 102.636 182.784 102.451 182.486H102.238V191.136H99.7238ZM102.195 176.818C102.195 178.054 102.376 179.144 102.739 180.089C103.101 181.026 103.63 181.761 104.326 182.294C105.022 182.82 105.874 183.082 106.883 183.082C107.934 183.082 108.811 182.805 109.514 182.251C110.225 181.69 110.757 180.937 111.112 179.993C111.475 179.041 111.656 177.983 111.656 176.818C111.656 175.668 111.478 174.631 111.123 173.707C110.775 172.777 110.246 172.042 109.536 171.502C108.832 170.955 107.948 170.682 106.883 170.682C105.86 170.682 105.001 170.941 104.305 171.46C103.609 171.971 103.083 172.688 102.728 173.612C102.373 174.528 102.195 175.597 102.195 176.818ZM123.966 185.341C122.389 185.341 121.029 184.993 119.886 184.297C118.749 183.594 117.872 182.614 117.254 181.357C116.643 180.092 116.338 178.622 116.338 176.946C116.338 175.27 116.643 173.793 117.254 172.514C117.872 171.229 118.731 170.227 119.832 169.51C120.94 168.786 122.233 168.423 123.71 168.423C124.562 168.423 125.404 168.565 126.235 168.849C127.066 169.134 127.822 169.595 128.504 170.234C129.186 170.866 129.729 171.705 130.134 172.749C130.539 173.793 130.741 175.078 130.741 176.605V177.67H118.128V175.497H128.185C128.185 174.574 128 173.75 127.631 173.026C127.268 172.301 126.75 171.729 126.075 171.31C125.408 170.891 124.619 170.682 123.71 170.682C122.709 170.682 121.842 170.93 121.111 171.428C120.386 171.918 119.829 172.557 119.438 173.345C119.048 174.134 118.852 174.979 118.852 175.881V177.33C118.852 178.565 119.065 179.613 119.491 180.472C119.925 181.325 120.525 181.974 121.292 182.422C122.059 182.862 122.95 183.082 123.966 183.082C124.626 183.082 125.223 182.99 125.756 182.805C126.295 182.614 126.761 182.33 127.151 181.953C127.542 181.57 127.844 181.094 128.057 180.526L130.486 181.207C130.23 182.031 129.8 182.756 129.197 183.381C128.593 183.999 127.847 184.482 126.959 184.83C126.072 185.17 125.074 185.341 123.966 185.341ZM133.666 185V168.636H136.095V171.108H136.265C136.564 170.298 137.103 169.641 137.885 169.137C138.666 168.633 139.547 168.381 140.527 168.381C140.711 168.381 140.942 168.384 141.219 168.391C141.496 168.398 141.706 168.409 141.848 168.423V170.98C141.763 170.959 141.567 170.927 141.262 170.884C140.964 170.835 140.648 170.81 140.314 170.81C139.518 170.81 138.808 170.977 138.183 171.31C137.565 171.637 137.075 172.092 136.713 172.674C136.358 173.249 136.18 173.906 136.18 174.645V185H133.666ZM143.928 185V168.636H146.442V185H143.928ZM145.206 165.909C144.716 165.909 144.294 165.742 143.939 165.408C143.591 165.075 143.417 164.673 143.417 164.205C143.417 163.736 143.591 163.335 143.939 163.001C144.294 162.667 144.716 162.5 145.206 162.5C145.697 162.5 146.116 162.667 146.464 163.001C146.819 163.335 146.996 163.736 146.996 164.205C146.996 164.673 146.819 165.075 146.464 165.408C146.116 165.742 145.697 165.909 145.206 165.909ZM157.008 185.341C155.431 185.341 154.071 184.993 152.928 184.297C151.791 183.594 150.914 182.614 150.296 181.357C149.686 180.092 149.38 178.622 149.38 176.946C149.38 175.27 149.686 173.793 150.296 172.514C150.914 171.229 151.774 170.227 152.875 169.51C153.982 168.786 155.275 168.423 156.752 168.423C157.605 168.423 158.446 168.565 159.277 168.849C160.108 169.134 160.865 169.595 161.546 170.234C162.228 170.866 162.772 171.705 163.176 172.749C163.581 173.793 163.784 175.078 163.784 176.605V177.67H151.17V175.497H161.227C161.227 174.574 161.042 173.75 160.673 173.026C160.311 172.301 159.792 171.729 159.117 171.31C158.45 170.891 157.661 170.682 156.752 170.682C155.751 170.682 154.884 170.93 154.153 171.428C153.428 171.918 152.871 172.557 152.48 173.345C152.09 174.134 151.894 174.979 151.894 175.881V177.33C151.894 178.565 152.107 179.613 152.534 180.472C152.967 181.325 153.567 181.974 154.334 182.422C155.101 182.862 155.992 183.082 157.008 183.082C157.669 183.082 158.265 182.99 158.798 182.805C159.338 182.614 159.803 182.33 160.193 181.953C160.584 181.57 160.886 181.094 161.099 180.526L163.528 181.207C163.272 182.031 162.843 182.756 162.239 183.381C161.635 183.999 160.889 184.482 160.002 184.83C159.114 185.17 158.116 185.341 157.008 185.341ZM169.222 175.156V185H166.708V168.636H169.137V171.193H169.35C169.734 170.362 170.316 169.695 171.097 169.19C171.879 168.679 172.887 168.423 174.123 168.423C175.231 168.423 176.2 168.651 177.031 169.105C177.862 169.553 178.509 170.234 178.97 171.151C179.432 172.06 179.663 173.21 179.663 174.602V185H177.149V174.773C177.149 173.487 176.815 172.486 176.147 171.768C175.479 171.044 174.563 170.682 173.399 170.682C172.596 170.682 171.879 170.856 171.247 171.204C170.622 171.552 170.128 172.06 169.766 172.727C169.403 173.395 169.222 174.205 169.222 175.156ZM190.005 185.341C188.471 185.341 187.15 184.979 186.042 184.254C184.934 183.53 184.081 182.532 183.485 181.261C182.888 179.989 182.59 178.537 182.59 176.903C182.59 175.241 182.895 173.775 183.506 172.504C184.124 171.225 184.983 170.227 186.084 169.51C187.192 168.786 188.485 168.423 189.962 168.423C191.113 168.423 192.15 168.636 193.073 169.062C193.996 169.489 194.753 170.085 195.342 170.852C195.932 171.619 196.297 172.514 196.439 173.537H193.925C193.733 172.791 193.307 172.131 192.647 171.555C191.993 170.973 191.113 170.682 190.005 170.682C189.025 170.682 188.165 170.937 187.427 171.449C186.695 171.953 186.123 172.667 185.711 173.59C185.307 174.506 185.104 175.582 185.104 176.818C185.104 178.082 185.303 179.183 185.701 180.121C186.106 181.058 186.674 181.786 187.405 182.305C188.144 182.823 189.01 183.082 190.005 183.082C190.658 183.082 191.251 182.969 191.784 182.741C192.317 182.514 192.768 182.188 193.137 181.761C193.506 181.335 193.769 180.824 193.925 180.227H196.439C196.297 181.193 195.946 182.063 195.385 182.837C194.831 183.604 194.096 184.215 193.179 184.67C192.27 185.117 191.212 185.341 190.005 185.341ZM206.076 185.341C204.499 185.341 203.139 184.993 201.995 184.297C200.859 183.594 199.982 182.614 199.364 181.357C198.753 180.092 198.448 178.622 198.448 176.946C198.448 175.27 198.753 173.793 199.364 172.514C199.982 171.229 200.841 170.227 201.942 169.51C203.05 168.786 204.343 168.423 205.82 168.423C206.672 168.423 207.514 168.565 208.345 168.849C209.176 169.134 209.932 169.595 210.614 170.234C211.296 170.866 211.839 171.705 212.244 172.749C212.649 173.793 212.851 175.078 212.851 176.605V177.67H200.238V175.497H210.294C210.294 174.574 210.11 173.75 209.74 173.026C209.378 172.301 208.86 171.729 208.185 171.31C207.517 170.891 206.729 170.682 205.82 170.682C204.818 170.682 203.952 170.93 203.22 171.428C202.496 171.918 201.939 172.557 201.548 173.345C201.157 174.134 200.962 174.979 200.962 175.881V177.33C200.962 178.565 201.175 179.613 201.601 180.472C202.034 181.325 202.635 181.974 203.402 182.422C204.169 182.862 205.06 183.082 206.076 183.082C206.736 183.082 207.333 182.99 207.865 182.805C208.405 182.614 208.87 182.33 209.261 181.953C209.652 181.57 209.953 181.094 210.167 180.526L212.595 181.207C212.34 182.031 211.91 182.756 211.306 183.381C210.703 183.999 209.957 184.482 209.069 184.83C208.181 185.17 207.184 185.341 206.076 185.341ZM75.1619 221.341C73.5852 221.341 72.2251 220.993 71.0817 220.297C69.9453 219.594 69.0682 218.614 68.4503 217.357C67.8395 216.092 67.5341 214.622 67.5341 212.946C67.5341 211.27 67.8395 209.793 68.4503 208.514C69.0682 207.229 69.9276 206.227 71.0284 205.51C72.1364 204.786 73.429 204.423 74.9062 204.423C75.7585 204.423 76.6001 204.565 77.4311 204.849C78.2621 205.134 79.0185 205.595 79.7003 206.234C80.3821 206.866 80.9254 207.705 81.3303 208.749C81.7351 209.793 81.9375 211.078 81.9375 212.605V213.67H69.3239V211.497H79.3807C79.3807 210.574 79.196 209.75 78.8267 209.026C78.4645 208.301 77.946 207.729 77.2713 207.31C76.6037 206.891 75.8153 206.682 74.9062 206.682C73.9048 206.682 73.0384 206.93 72.3068 207.428C71.5824 207.918 71.0249 208.557 70.6342 209.345C70.2436 210.134 70.0483 210.979 70.0483 211.881V213.33C70.0483 214.565 70.2614 215.613 70.6875 216.472C71.1207 217.325 71.7209 217.974 72.4879 218.422C73.255 218.862 74.1463 219.082 75.1619 219.082C75.8224 219.082 76.419 218.99 76.9517 218.805C77.4915 218.614 77.9567 218.33 78.3473 217.953C78.7379 217.57 79.0398 217.094 79.2528 216.526L81.6818 217.207C81.4261 218.031 80.9964 218.756 80.3928 219.381C79.7891 219.999 79.0433 220.482 78.1555 220.83C77.2678 221.17 76.2699 221.341 75.1619 221.341ZM86.2976 204.636L90.2181 211.327L94.1385 204.636H97.0363L91.7522 212.818L97.0363 221H94.1385L90.2181 214.651L86.2976 221H83.3999L88.5988 212.818L83.3999 204.636H86.2976ZM99.7238 227.136V204.636H102.153V207.236H102.451C102.636 206.952 102.891 206.589 103.218 206.149C103.552 205.702 104.028 205.304 104.646 204.956C105.271 204.601 106.116 204.423 107.181 204.423C108.559 204.423 109.774 204.768 110.825 205.457C111.876 206.146 112.696 207.122 113.286 208.386C113.875 209.651 114.17 211.142 114.17 212.861C114.17 214.594 113.875 216.096 113.286 217.367C112.696 218.631 111.879 219.612 110.835 220.308C109.791 220.996 108.587 221.341 107.224 221.341C106.173 221.341 105.331 221.167 104.699 220.819C104.067 220.464 103.58 220.062 103.239 219.615C102.899 219.161 102.636 218.784 102.451 218.486H102.238V227.136H99.7238ZM102.195 212.818C102.195 214.054 102.376 215.144 102.739 216.089C103.101 217.026 103.63 217.761 104.326 218.294C105.022 218.82 105.874 219.082 106.883 219.082C107.934 219.082 108.811 218.805 109.514 218.251C110.225 217.69 110.757 216.937 111.112 215.993C111.475 215.041 111.656 213.983 111.656 212.818C111.656 211.668 111.478 210.631 111.123 209.707C110.775 208.777 110.246 208.042 109.536 207.502C108.832 206.955 107.948 206.682 106.883 206.682C105.86 206.682 105.001 206.941 104.305 207.46C103.609 207.971 103.083 208.688 102.728 209.612C102.373 210.528 102.195 211.597 102.195 212.818ZM123.753 221.341C122.275 221.341 120.979 220.989 119.864 220.286C118.756 219.583 117.89 218.599 117.265 217.335C116.647 216.071 116.338 214.594 116.338 212.903C116.338 211.199 116.647 209.711 117.265 208.44C117.89 207.168 118.756 206.181 119.864 205.478C120.979 204.775 122.275 204.423 123.753 204.423C125.23 204.423 126.523 204.775 127.631 205.478C128.746 206.181 129.612 207.168 130.23 208.44C130.855 209.711 131.168 211.199 131.168 212.903C131.168 214.594 130.855 216.071 130.23 217.335C129.612 218.599 128.746 219.583 127.631 220.286C126.523 220.989 125.23 221.341 123.753 221.341ZM123.753 219.082C124.875 219.082 125.798 218.795 126.523 218.219C127.247 217.644 127.783 216.888 128.131 215.95C128.479 215.013 128.653 213.997 128.653 212.903C128.653 211.81 128.479 210.79 128.131 209.846C127.783 208.901 127.247 208.138 126.523 207.555C125.798 206.973 124.875 206.682 123.753 206.682C122.631 206.682 121.707 206.973 120.983 207.555C120.258 208.138 119.722 208.901 119.374 209.846C119.026 210.79 118.852 211.81 118.852 212.903C118.852 213.997 119.026 215.013 119.374 215.95C119.722 216.888 120.258 217.644 120.983 218.219C121.707 218.795 122.631 219.082 123.753 219.082ZM136.62 211.156V221H134.105V204.636H136.534V207.193H136.747C137.131 206.362 137.713 205.695 138.495 205.19C139.276 204.679 140.284 204.423 141.52 204.423C142.628 204.423 143.598 204.651 144.429 205.105C145.26 205.553 145.906 206.234 146.368 207.151C146.829 208.06 147.06 209.21 147.06 210.602V221H144.546V210.773C144.546 209.487 144.212 208.486 143.544 207.768C142.877 207.044 141.961 206.682 140.796 206.682C139.993 206.682 139.276 206.856 138.644 207.204C138.019 207.552 137.525 208.06 137.163 208.727C136.801 209.395 136.62 210.205 136.62 211.156ZM157.615 221.341C156.038 221.341 154.678 220.993 153.535 220.297C152.398 219.594 151.521 218.614 150.903 217.357C150.293 216.092 149.987 214.622 149.987 212.946C149.987 211.27 150.293 209.793 150.903 208.514C151.521 207.229 152.381 206.227 153.482 205.51C154.589 204.786 155.882 204.423 157.359 204.423C158.212 204.423 159.053 204.565 159.884 204.849C160.715 205.134 161.472 205.595 162.153 206.234C162.835 206.866 163.379 207.705 163.783 208.749C164.188 209.793 164.391 211.078 164.391 212.605V213.67H151.777V211.497H161.834C161.834 210.574 161.649 209.75 161.28 209.026C160.918 208.301 160.399 207.729 159.724 207.31C159.057 206.891 158.268 206.682 157.359 206.682C156.358 206.682 155.491 206.93 154.76 207.428C154.036 207.918 153.478 208.557 153.087 209.345C152.697 210.134 152.501 210.979 152.501 211.881V213.33C152.501 214.565 152.714 215.613 153.141 216.472C153.574 217.325 154.174 217.974 154.941 218.422C155.708 218.862 156.599 219.082 157.615 219.082C158.276 219.082 158.872 218.99 159.405 218.805C159.945 218.614 160.41 218.33 160.8 217.953C161.191 217.57 161.493 217.094 161.706 216.526L164.135 217.207C163.879 218.031 163.45 218.756 162.846 219.381C162.242 219.999 161.496 220.482 160.609 220.83C159.721 221.17 158.723 221.341 157.615 221.341ZM169.829 211.156V221H167.315V204.636H169.744V207.193H169.957C170.341 206.362 170.923 205.695 171.704 205.19C172.486 204.679 173.494 204.423 174.73 204.423C175.838 204.423 176.807 204.651 177.638 205.105C178.469 205.553 179.116 206.234 179.577 207.151C180.039 208.06 180.27 209.21 180.27 210.602V221H177.756V210.773C177.756 209.487 177.422 208.486 176.754 207.768C176.087 207.044 175.17 206.682 174.006 206.682C173.203 206.682 172.486 206.856 171.854 207.204C171.229 207.552 170.735 208.06 170.373 208.727C170.011 209.395 169.829 210.205 169.829 211.156ZM191.081 204.636V206.767H182.6V204.636H191.081ZM185.072 200.716H187.586V216.312C187.586 217.023 187.689 217.555 187.895 217.911C188.108 218.259 188.378 218.493 188.705 218.614C189.039 218.727 189.39 218.784 189.759 218.784C190.036 218.784 190.264 218.77 190.441 218.741C190.619 218.706 190.761 218.678 190.867 218.656L191.379 220.915C191.208 220.979 190.97 221.043 190.665 221.107C190.36 221.178 189.973 221.213 189.504 221.213C188.794 221.213 188.098 221.06 187.416 220.755C186.741 220.45 186.18 219.984 185.732 219.359C185.292 218.734 185.072 217.946 185.072 216.994V200.716ZM193.962 221V204.636H196.477V221H193.962ZM195.241 201.909C194.751 201.909 194.328 201.742 193.973 201.408C193.625 201.075 193.451 200.673 193.451 200.205C193.451 199.736 193.625 199.335 193.973 199.001C194.328 198.667 194.751 198.5 195.241 198.5C195.731 198.5 196.15 198.667 196.498 199.001C196.853 199.335 197.031 199.736 197.031 200.205C197.031 200.673 196.853 201.075 196.498 201.408C196.15 201.742 195.731 201.909 195.241 201.909ZM204.997 221.384C203.96 221.384 203.019 221.188 202.174 220.798C201.329 220.4 200.657 219.828 200.16 219.082C199.663 218.33 199.415 217.42 199.415 216.355C199.415 215.418 199.599 214.658 199.969 214.075C200.338 213.486 200.831 213.024 201.449 212.69C202.067 212.357 202.749 212.108 203.495 211.945C204.248 211.774 205.004 211.639 205.764 211.54C206.758 211.412 207.564 211.316 208.182 211.252C208.807 211.181 209.262 211.064 209.546 210.901C209.837 210.737 209.983 210.453 209.983 210.048V209.963C209.983 208.912 209.695 208.095 209.12 207.513C208.552 206.93 207.689 206.639 206.531 206.639C205.331 206.639 204.39 206.902 203.708 207.428C203.026 207.953 202.547 208.514 202.27 209.111L199.883 208.259C200.309 207.264 200.878 206.49 201.588 205.936C202.305 205.375 203.086 204.984 203.932 204.764C204.784 204.537 205.622 204.423 206.446 204.423C206.971 204.423 207.575 204.487 208.257 204.615C208.946 204.736 209.61 204.988 210.249 205.371C210.895 205.755 211.432 206.334 211.858 207.108C212.284 207.882 212.497 208.919 212.497 210.219V221H209.983V218.784H209.855C209.684 219.139 209.4 219.519 209.003 219.924C208.605 220.329 208.076 220.673 207.415 220.957C206.755 221.241 205.949 221.384 204.997 221.384ZM205.38 219.125C206.375 219.125 207.213 218.93 207.895 218.539C208.584 218.148 209.102 217.644 209.45 217.026C209.805 216.408 209.983 215.759 209.983 215.077V212.776C209.876 212.903 209.642 213.021 209.28 213.127C208.924 213.227 208.513 213.315 208.044 213.393C207.582 213.464 207.131 213.528 206.691 213.585C206.258 213.635 205.906 213.678 205.636 213.713C204.983 213.798 204.372 213.937 203.804 214.129C203.243 214.313 202.788 214.594 202.44 214.97C202.099 215.339 201.929 215.844 201.929 216.483C201.929 217.357 202.252 218.017 202.898 218.464C203.552 218.905 204.379 219.125 205.38 219.125ZM218.7 199.182V221H216.186V199.182H218.7ZM236.548 227.477C235.333 227.477 234.289 227.321 233.416 227.009C232.542 226.703 231.814 226.298 231.232 225.794C230.656 225.297 230.198 224.764 229.857 224.196L231.86 222.79C232.087 223.088 232.375 223.429 232.723 223.812C233.071 224.203 233.547 224.54 234.151 224.825C234.761 225.116 235.56 225.261 236.548 225.261C237.869 225.261 238.959 224.942 239.818 224.303C240.678 223.663 241.107 222.662 241.107 221.298V217.974H240.894C240.71 218.273 240.447 218.642 240.106 219.082C239.772 219.516 239.289 219.903 238.657 220.244C238.032 220.577 237.187 220.744 236.122 220.744C234.8 220.744 233.614 220.432 232.563 219.807C231.519 219.182 230.692 218.273 230.081 217.08C229.477 215.886 229.175 214.437 229.175 212.733C229.175 211.057 229.47 209.597 230.06 208.354C230.649 207.104 231.47 206.138 232.521 205.457C233.572 204.768 234.786 204.423 236.164 204.423C237.229 204.423 238.075 204.601 238.7 204.956C239.332 205.304 239.815 205.702 240.149 206.149C240.489 206.589 240.752 206.952 240.937 207.236H241.193V204.636H243.622V221.469C243.622 222.875 243.302 224.018 242.663 224.899C242.031 225.787 241.178 226.437 240.106 226.849C239.041 227.268 237.854 227.477 236.548 227.477ZM236.462 218.486C237.471 218.486 238.323 218.255 239.019 217.793C239.715 217.332 240.244 216.668 240.607 215.801C240.969 214.935 241.15 213.898 241.15 212.69C241.15 211.511 240.972 210.471 240.617 209.569C240.262 208.667 239.737 207.96 239.041 207.449C238.345 206.937 237.485 206.682 236.462 206.682C235.397 206.682 234.509 206.952 233.799 207.491C233.096 208.031 232.567 208.756 232.212 209.665C231.864 210.574 231.69 211.582 231.69 212.69C231.69 213.827 231.867 214.832 232.222 215.705C232.585 216.572 233.117 217.254 233.82 217.751C234.531 218.241 235.411 218.486 236.462 218.486ZM247.324 221V204.636H249.753V207.108H249.923C250.222 206.298 250.761 205.641 251.543 205.137C252.324 204.633 253.204 204.381 254.185 204.381C254.369 204.381 254.6 204.384 254.877 204.391C255.154 204.398 255.364 204.409 255.506 204.423V206.98C255.42 206.959 255.225 206.927 254.92 206.884C254.621 206.835 254.305 206.81 253.972 206.81C253.176 206.81 252.466 206.977 251.841 207.31C251.223 207.637 250.733 208.092 250.371 208.674C250.016 209.249 249.838 209.906 249.838 210.645V221H247.324ZM263.736 221.341C262.258 221.341 260.962 220.989 259.847 220.286C258.739 219.583 257.873 218.599 257.248 217.335C256.63 216.071 256.321 214.594 256.321 212.903C256.321 211.199 256.63 209.711 257.248 208.44C257.873 207.168 258.739 206.181 259.847 205.478C260.962 204.775 262.258 204.423 263.736 204.423C265.213 204.423 266.505 204.775 267.613 205.478C268.728 206.181 269.595 207.168 270.213 208.44C270.838 209.711 271.15 211.199 271.15 212.903C271.15 214.594 270.838 216.071 270.213 217.335C269.595 218.599 268.728 219.583 267.613 220.286C266.505 220.989 265.213 221.341 263.736 221.341ZM263.736 219.082C264.858 219.082 265.781 218.795 266.505 218.219C267.23 217.644 267.766 216.888 268.114 215.95C268.462 215.013 268.636 213.997 268.636 212.903C268.636 211.81 268.462 210.79 268.114 209.846C267.766 208.901 267.23 208.138 266.505 207.555C265.781 206.973 264.858 206.682 263.736 206.682C262.613 206.682 261.69 206.973 260.966 207.555C260.241 208.138 259.705 208.901 259.357 209.846C259.009 210.79 258.835 211.81 258.835 212.903C258.835 213.997 259.009 215.013 259.357 215.95C259.705 216.888 260.241 217.644 260.966 218.219C261.69 218.795 262.613 219.082 263.736 219.082ZM277.239 221L272.253 204.636H274.895L278.432 217.165H278.603L282.097 204.636H284.782L288.233 217.122H288.404L291.941 204.636H294.583L289.597 221H287.125L283.546 208.429H283.29L279.711 221H277.239ZM304.123 204.636V206.767H295.643V204.636H304.123ZM298.115 200.716H300.629V216.312C300.629 217.023 300.732 217.555 300.938 217.911C301.151 218.259 301.421 218.493 301.747 218.614C302.081 218.727 302.433 218.784 302.802 218.784C303.079 218.784 303.306 218.77 303.484 218.741C303.661 218.706 303.803 218.678 303.91 218.656L304.421 220.915C304.251 220.979 304.013 221.043 303.708 221.107C303.402 221.178 303.015 221.213 302.546 221.213C301.836 221.213 301.14 221.06 300.458 220.755C299.784 220.45 299.223 219.984 298.775 219.359C298.335 218.734 298.115 217.946 298.115 216.994V200.716ZM309.871 211.156V221H307.357V199.182H309.871V207.193H310.084C310.467 206.348 311.043 205.677 311.81 205.18C312.584 204.675 313.614 204.423 314.899 204.423C316.014 204.423 316.991 204.647 317.829 205.094C318.667 205.535 319.317 206.213 319.778 207.129C320.247 208.038 320.482 209.196 320.482 210.602V221H317.967V210.773C317.967 209.473 317.63 208.468 316.955 207.758C316.288 207.04 315.361 206.682 314.175 206.682C313.351 206.682 312.612 206.856 311.959 207.204C311.313 207.552 310.801 208.06 310.425 208.727C310.055 209.395 309.871 210.205 309.871 211.156ZM327.505 199.182L327.292 214.864H324.82L324.607 199.182H327.505ZM326.056 221.17C325.531 221.17 325.08 220.982 324.703 220.606C324.327 220.229 324.139 219.778 324.139 219.253C324.139 218.727 324.327 218.276 324.703 217.9C325.08 217.523 325.531 217.335 326.056 217.335C326.582 217.335 327.033 217.523 327.409 217.9C327.786 218.276 327.974 218.727 327.974 219.253C327.974 219.601 327.885 219.92 327.707 220.212C327.537 220.503 327.306 220.737 327.015 220.915C326.731 221.085 326.411 221.17 326.056 221.17Z" fill="white"/>
</g>
<defs>
<linearGradient id="paint0_linear_212_332" x1="70" y1="79.5" x2="193.5" y2="127" gradientUnits="userSpaceOnUse">
<stop stop-color="#FF713B"/>
<stop offset="1" stop-color="#FFC83B"/>
</linearGradient>
<clipPath id="clip0_212_332">
<rect width="394" height="311" fill="white"/>
</clipPath>
</defs>
</svg>
