<svg width="123" height="120" viewBox="0 0 123 120" fill="none" xmlns="http://www.w3.org/2000/svg">
<g clip-path="url(#clip0_274_161)">
<mask id="mask0_274_161" style="mask-type:alpha" maskUnits="userSpaceOnUse" x="0" y="0" width="123" height="120">
<path fill-rule="evenodd" clip-rule="evenodd" d="M0 0H123V120H0V0Z" fill="white"/>
</mask>
<g mask="url(#mask0_274_161)">
<path fill-rule="evenodd" clip-rule="evenodd" d="M61.5 120.001C27.675 120.001 0 93.0005 0 59.7005C0.3075 26.7005 27.675 -0.299477 61.8075 0.000522947C95.6325 0.300523 123 27.0005 123 60.6005C122.693 93.3005 95.325 120.001 61.5 120.001Z" fill="#0090FF"/>
<path fill-rule="evenodd" clip-rule="evenodd" d="M67.3425 52.8005L65.4975 62.4005L83.025 64.8005L81.795 69.3005L64.575 66.9005C63.345 70.8005 62.73 75.0005 61.1925 78.6005C59.655 82.8005 58.1175 87.0005 56.2725 90.9005C53.8125 96.0005 49.5075 99.6005 43.665 100.5C40.2825 101.1 36.5925 100.8 33.825 98.7005C32.9025 98.1005 31.98 96.9005 31.98 96.0005C31.98 94.8005 32.595 93.3005 33.5175 92.7005C34.1325 92.4005 35.67 92.7005 36.5925 93.0005C37.515 93.9005 38.4375 95.1005 39.0525 96.3005C40.8975 98.7005 43.3575 99.0005 45.8175 97.2005C48.585 94.8005 50.1225 91.5005 51.045 88.2005C52.89 81.0005 54.735 74.1005 56.2725 66.9005V65.7005L39.975 63.3005L40.59 58.8005L57.5025 61.2005L59.655 51.9005L42.1275 49.2005L42.7425 44.4005L60.885 46.8005C61.5 45.0005 61.8075 43.5005 62.4225 42.0005C63.96 36.6005 65.4975 31.2005 69.1875 26.4005C72.8775 21.6005 77.1825 18.6005 83.64 18.9005C86.4075 18.9005 89.175 19.8005 91.02 21.9005C91.3275 22.2005 91.9425 22.8005 91.9425 23.4005C91.9425 24.6005 91.9425 26.1005 91.02 27.0005C89.79 27.9005 88.2525 27.6005 87.0225 26.4005C86.1 25.5005 85.485 24.6005 84.5625 23.7005C82.7175 21.3005 79.95 21.0005 77.7975 23.1005C76.26 24.6005 74.7225 26.7005 73.8 28.8005C71.6475 35.1005 70.11 41.7005 67.9575 48.3005L84.87 50.7005L83.64 55.2005L67.3425 52.8005" fill="white"/>
</g>
</g>
<defs>
<clipPath id="clip0_274_161">
<rect width="123" height="120" fill="white"/>
</clipPath>
</defs>
</svg>
