<svg width="394" height="311" viewBox="0 0 394 311" fill="none" xmlns="http://www.w3.org/2000/svg">
<g clip-path="url(#clip0_212_308)">
<rect width="394" height="311" rx="10" fill="#219EBC"/>
<rect x="38" y="40" width="319" height="35" rx="10" fill="#023047"/>
<rect x="38" y="235" width="319" height="35" rx="10" fill="#023047" fill-opacity="0.4"/>
<rect x="38" y="196" width="319" height="35" rx="10" fill="#023047" fill-opacity="0.5"/>
<rect x="38" y="157" width="319" height="35" rx="10" fill="#023047" fill-opacity="0.6"/>
<rect x="38" y="118" width="319" height="35" rx="10" fill="#023047" fill-opacity="0.7"/>
<rect x="38" y="79" width="319" height="35" rx="10" fill="#023047" fill-opacity="0.9"/>
<path d="M67.679 54.1847H65.4631C65.3778 53.7112 65.2192 53.2945 64.9872 52.9347C64.7552 52.5748 64.4711 52.2694 64.1349 52.0185C63.7988 51.7675 63.4223 51.5781 63.0057 51.4503C62.5938 51.3224 62.1558 51.2585 61.6918 51.2585C60.8537 51.2585 60.1032 51.4692 59.4403 51.8906C58.7822 52.312 58.2614 52.9299 57.8778 53.7443C57.4991 54.5587 57.3097 55.553 57.3097 56.7273C57.3097 57.911 57.4991 58.91 57.8778 59.7244C58.2614 60.5388 58.7846 61.1544 59.4474 61.571C60.1103 61.9877 60.8561 62.196 61.6847 62.196C62.1439 62.196 62.5795 62.1345 62.9915 62.0114C63.4081 61.8835 63.7846 61.6965 64.1207 61.4503C64.4569 61.2041 64.741 60.9034 64.973 60.5483C65.2098 60.1884 65.3731 59.7765 65.4631 59.3125L67.679 59.3196C67.5606 60.0346 67.331 60.6927 66.9901 61.294C66.6539 61.8906 66.2206 62.4067 65.6903 62.8423C65.1648 63.2732 64.5634 63.607 63.8864 63.8438C63.2093 64.0805 62.4706 64.1989 61.6705 64.1989C60.411 64.1989 59.2888 63.9006 58.304 63.304C57.3191 62.7027 56.5426 61.8433 55.9744 60.7259C55.411 59.6084 55.1293 58.2756 55.1293 56.7273C55.1293 55.1742 55.4134 53.8414 55.9815 52.7287C56.5497 51.6113 57.3262 50.7543 58.3111 50.1577C59.2959 49.5563 60.4157 49.2557 61.6705 49.2557C62.4422 49.2557 63.1619 49.367 63.8295 49.5895C64.5019 49.8073 65.1056 50.1293 65.6406 50.5554C66.1757 50.9768 66.6184 51.4929 66.9688 52.1037C67.3191 52.7098 67.5559 53.4034 67.679 54.1847ZM69.5346 64V53.0909H71.5871V54.8239H71.7008C71.8996 54.2367 72.25 53.7751 72.7519 53.4389C73.2585 53.098 73.8315 52.9276 74.4707 52.9276C74.6032 52.9276 74.7595 52.9323 74.9394 52.9418C75.1241 52.9512 75.2685 52.9631 75.3727 52.9773V55.0085C75.2874 54.9848 75.1359 54.9588 74.9181 54.9304C74.7003 54.8973 74.4825 54.8807 74.2647 54.8807C73.7628 54.8807 73.3154 54.9872 72.9224 55.2003C72.5341 55.4086 72.2263 55.6998 71.9991 56.0739C71.7718 56.4432 71.6582 56.8646 71.6582 57.3381V64H69.5346ZM80.9214 64.2202C79.8466 64.2202 78.921 63.9905 78.1445 63.5312C77.3727 63.0672 76.7761 62.4162 76.3547 61.5781C75.938 60.7353 75.7297 59.7481 75.7297 58.6165C75.7297 57.4991 75.938 56.5142 76.3547 55.6619C76.7761 54.8097 77.3632 54.1444 78.1161 53.6662C78.8736 53.188 79.759 52.9489 80.7723 52.9489C81.3878 52.9489 81.9844 53.0507 82.5621 53.2543C83.1397 53.4579 83.6582 53.7775 84.1175 54.2131C84.5768 54.6487 84.939 55.2145 85.2041 55.9105C85.4693 56.6018 85.6018 57.4422 85.6018 58.4318V59.1847H76.93V57.5938H83.5209C83.5209 57.035 83.4072 56.5402 83.18 56.1094C82.9527 55.6738 82.6331 55.3305 82.2212 55.0795C81.814 54.8286 81.3357 54.7031 80.7865 54.7031C80.1899 54.7031 79.6691 54.8499 79.224 55.1435C78.7837 55.4323 78.4428 55.8111 78.2013 56.2798C77.9645 56.7438 77.8462 57.2481 77.8462 57.7926V59.0355C77.8462 59.7647 77.974 60.3849 78.2297 60.8963C78.4901 61.4077 78.8523 61.7983 79.3163 62.0682C79.7803 62.3333 80.3225 62.4659 80.9428 62.4659C81.3452 62.4659 81.7122 62.4091 82.0436 62.2955C82.375 62.1771 82.6615 62.0019 82.903 61.7699C83.1445 61.5379 83.3291 61.2514 83.457 60.9105L85.4669 61.2727C85.3059 61.8646 85.0171 62.383 84.6004 62.8281C84.1885 63.2685 83.67 63.6117 83.045 63.858C82.4248 64.0994 81.7169 64.2202 80.9214 64.2202ZM90.5327 64.2415C89.8415 64.2415 89.2165 64.1136 88.6577 63.858C88.099 63.5975 87.6563 63.2211 87.3296 62.7287C87.0076 62.2363 86.8467 61.6326 86.8467 60.9176C86.8467 60.3021 86.965 59.7955 87.2018 59.3977C87.4385 59 87.7581 58.6851 88.1606 58.4531C88.563 58.2211 89.0129 58.0459 89.51 57.9276C90.0072 57.8092 90.5138 57.7192 91.0299 57.6577C91.6833 57.5819 92.2136 57.5204 92.6208 57.473C93.028 57.4209 93.3239 57.3381 93.5086 57.2244C93.6933 57.1108 93.7856 56.9261 93.7856 56.6705V56.6207C93.7856 56.0005 93.6104 55.5199 93.26 55.179C92.9144 54.8381 92.3983 54.6676 91.7117 54.6676C90.9968 54.6676 90.4333 54.8262 90.0214 55.1435C89.6142 55.456 89.3325 55.804 89.1762 56.1875L87.1805 55.733C87.4172 55.0701 87.7629 54.535 88.2174 54.1278C88.6767 53.7159 89.2046 53.4176 89.8012 53.233C90.3978 53.0436 91.0252 52.9489 91.6833 52.9489C92.1189 52.9489 92.5806 53.0009 93.0683 53.1051C93.5607 53.2045 94.02 53.3892 94.4461 53.6591C94.877 53.929 95.2297 54.3149 95.5043 54.8168C95.779 55.3139 95.9163 55.9602 95.9163 56.7557V64H93.8424V62.5085H93.7572C93.6199 62.7831 93.4139 63.053 93.1393 63.3182C92.8647 63.5833 92.5119 63.8035 92.081 63.9787C91.6502 64.1539 91.1341 64.2415 90.5327 64.2415ZM90.9944 62.5369C91.5815 62.5369 92.0834 62.4209 92.5001 62.1889C92.9215 61.9569 93.2411 61.6539 93.4589 61.2798C93.6814 60.901 93.7927 60.4962 93.7927 60.0653V58.6591C93.7169 58.7348 93.5701 58.8059 93.3523 58.8722C93.1393 58.9337 92.8954 58.9882 92.6208 59.0355C92.3462 59.0781 92.0787 59.1184 91.8183 59.1562C91.5578 59.1894 91.34 59.2178 91.1648 59.2415C90.7529 59.2936 90.3765 59.3812 90.0356 59.5043C89.6994 59.6274 89.4295 59.8049 89.2259 60.0369C89.0271 60.2642 88.9276 60.5672 88.9276 60.946C88.9276 61.4716 89.1218 61.8693 89.51 62.1392C89.8983 62.4044 90.3931 62.5369 90.9944 62.5369ZM103.237 53.0909V54.7955H97.2783V53.0909H103.237ZM98.8763 50.4773H101V60.7969C101 61.2088 101.061 61.5189 101.185 61.7273C101.308 61.9309 101.466 62.0705 101.66 62.1463C101.859 62.2173 102.075 62.2528 102.307 62.2528C102.477 62.2528 102.626 62.241 102.754 62.2173C102.882 62.1937 102.981 62.1747 103.052 62.1605L103.436 63.9148C103.313 63.9621 103.138 64.0095 102.91 64.0568C102.683 64.1089 102.399 64.1373 102.058 64.142C101.499 64.1515 100.979 64.0521 100.496 63.8438C100.013 63.6354 99.622 63.3134 99.3237 62.8778C99.0254 62.4422 98.8763 61.8954 98.8763 61.2372V50.4773ZM109.571 64.2202C108.496 64.2202 107.57 63.9905 106.794 63.5312C106.022 63.0672 105.425 62.4162 105.004 61.5781C104.587 60.7353 104.379 59.7481 104.379 58.6165C104.379 57.4991 104.587 56.5142 105.004 55.6619C105.425 54.8097 106.012 54.1444 106.765 53.6662C107.523 53.188 108.408 52.9489 109.422 52.9489C110.037 52.9489 110.634 53.0507 111.211 53.2543C111.789 53.4579 112.307 53.7775 112.767 54.2131C113.226 54.6487 113.588 55.2145 113.853 55.9105C114.118 56.6018 114.251 57.4422 114.251 58.4318V59.1847H105.579V57.5938H112.17C112.17 57.035 112.056 56.5402 111.829 56.1094C111.602 55.6738 111.282 55.3305 110.87 55.0795C110.463 54.8286 109.985 54.7031 109.436 54.7031C108.839 54.7031 108.318 54.8499 107.873 55.1435C107.433 55.4323 107.092 55.8111 106.85 56.2798C106.614 56.7438 106.495 57.2481 106.495 57.7926V59.0355C106.495 59.7647 106.623 60.3849 106.879 60.8963C107.139 61.4077 107.502 61.7983 107.966 62.0682C108.43 62.3333 108.972 62.4659 109.592 62.4659C109.994 62.4659 110.361 62.4091 110.693 62.2955C111.024 62.1771 111.311 62.0019 111.552 61.7699C111.794 61.5379 111.978 61.2514 112.106 60.9105L114.116 61.2727C113.955 61.8646 113.666 62.383 113.25 62.8281C112.838 63.2685 112.319 63.6117 111.694 63.858C111.074 64.0994 110.366 64.2202 109.571 64.2202ZM178.004 55.7543L176.079 56.0952C175.999 55.849 175.871 55.6146 175.696 55.392C175.525 55.1695 175.293 54.9872 175 54.8452C174.706 54.7031 174.339 54.6321 173.899 54.6321C173.297 54.6321 172.796 54.767 172.393 55.0369C171.991 55.3021 171.789 55.6454 171.789 56.0668C171.789 56.4313 171.924 56.7249 172.194 56.9474C172.464 57.17 172.9 57.3523 173.501 57.4943L175.234 57.892C176.238 58.1241 176.986 58.4815 177.478 58.9645C177.971 59.4474 178.217 60.0748 178.217 60.8466C178.217 61.5 178.028 62.0824 177.649 62.5938C177.275 63.1004 176.751 63.4981 176.079 63.7869C175.412 64.0758 174.637 64.2202 173.757 64.2202C172.535 64.2202 171.538 63.9598 170.767 63.4389C169.995 62.9134 169.521 62.1676 169.346 61.2017L171.399 60.8892C171.527 61.4242 171.789 61.8291 172.187 62.1037C172.585 62.3736 173.103 62.5085 173.742 62.5085C174.438 62.5085 174.995 62.3641 175.412 62.0753C175.828 61.7817 176.037 61.4242 176.037 61.0028C176.037 60.6619 175.909 60.3755 175.653 60.1435C175.402 59.9115 175.016 59.7363 174.495 59.6179L172.649 59.2131C171.631 58.9811 170.878 58.6117 170.39 58.1051C169.907 57.5985 169.666 56.9569 169.666 56.1804C169.666 55.5365 169.846 54.973 170.206 54.4901C170.565 54.0071 171.063 53.6307 171.697 53.3608C172.331 53.0862 173.058 52.9489 173.877 52.9489C175.056 52.9489 175.984 53.2045 176.662 53.7159C177.339 54.2225 177.786 54.902 178.004 55.7543ZM184.653 64.2202C183.579 64.2202 182.653 63.9905 181.876 63.5312C181.105 63.0672 180.508 62.4162 180.087 61.5781C179.67 60.7353 179.462 59.7481 179.462 58.6165C179.462 57.4991 179.67 56.5142 180.087 55.6619C180.508 54.8097 181.095 54.1444 181.848 53.6662C182.606 53.188 183.491 52.9489 184.504 52.9489C185.12 52.9489 185.716 53.0507 186.294 53.2543C186.872 53.4579 187.39 53.7775 187.85 54.2131C188.309 54.6487 188.671 55.2145 188.936 55.9105C189.201 56.6018 189.334 57.4422 189.334 58.4318V59.1847H180.662V57.5938H187.253C187.253 57.035 187.139 56.5402 186.912 56.1094C186.685 55.6738 186.365 55.3305 185.953 55.0795C185.546 54.8286 185.068 54.7031 184.519 54.7031C183.922 54.7031 183.401 54.8499 182.956 55.1435C182.516 55.4323 182.175 55.8111 181.933 56.2798C181.697 56.7438 181.578 57.2481 181.578 57.7926V59.0355C181.578 59.7647 181.706 60.3849 181.962 60.8963C182.222 61.4077 182.584 61.7983 183.048 62.0682C183.512 62.3333 184.055 62.4659 184.675 62.4659C185.077 62.4659 185.444 62.4091 185.776 62.2955C186.107 62.1771 186.394 62.0019 186.635 61.7699C186.876 61.5379 187.061 61.2514 187.189 60.9105L189.199 61.2727C189.038 61.8646 188.749 62.383 188.332 62.8281C187.921 63.2685 187.402 63.6117 186.777 63.858C186.157 64.0994 185.449 64.2202 184.653 64.2202ZM196.182 53.0909V54.7955H190.224V53.0909H196.182ZM191.822 50.4773H193.945V60.7969C193.945 61.2088 194.007 61.5189 194.13 61.7273C194.253 61.9309 194.412 62.0705 194.606 62.1463C194.805 62.2173 195.02 62.2528 195.252 62.2528C195.422 62.2528 195.572 62.241 195.699 62.2173C195.827 62.1937 195.927 62.1747 195.998 62.1605L196.381 63.9148C196.258 63.9621 196.083 64.0095 195.856 64.0568C195.628 64.1089 195.344 64.1373 195.003 64.142C194.445 64.1515 193.924 64.0521 193.441 63.8438C192.958 63.6354 192.567 63.3134 192.269 62.8778C191.971 62.4422 191.822 61.8954 191.822 61.2372V50.4773ZM203.024 53.0909V54.7955H197.065V53.0909H203.024ZM198.663 50.4773H200.787V60.7969C200.787 61.2088 200.848 61.5189 200.971 61.7273C201.094 61.9309 201.253 62.0705 201.447 62.1463C201.646 62.2173 201.861 62.2528 202.093 62.2528C202.264 62.2528 202.413 62.241 202.541 62.2173C202.669 62.1937 202.768 62.1747 202.839 62.1605L203.223 63.9148C203.1 63.9621 202.924 64.0095 202.697 64.0568C202.47 64.1089 202.186 64.1373 201.845 64.142C201.286 64.1515 200.765 64.0521 200.282 63.8438C199.799 63.6354 199.409 63.3134 199.11 62.8778C198.812 62.4422 198.663 61.8954 198.663 61.2372V50.4773ZM204.773 64V53.0909H206.896V64H204.773ZM205.845 51.4077C205.476 51.4077 205.159 51.2846 204.894 51.0384C204.633 50.7874 204.503 50.4891 204.503 50.1435C204.503 49.7931 204.633 49.4948 204.894 49.2486C205.159 48.9976 205.476 48.8722 205.845 48.8722C206.215 48.8722 206.529 48.9976 206.79 49.2486C207.055 49.4948 207.188 49.7931 207.188 50.1435C207.188 50.4891 207.055 50.7874 206.79 51.0384C206.529 51.2846 206.215 51.4077 205.845 51.4077ZM211.277 57.5227V64H209.153V53.0909H211.192V54.8665H211.327C211.578 54.2888 211.971 53.8248 212.506 53.4744C213.045 53.1241 213.725 52.9489 214.544 52.9489C215.287 52.9489 215.938 53.1051 216.497 53.4176C217.056 53.7254 217.489 54.1847 217.797 54.7955C218.105 55.4062 218.258 56.1615 218.258 57.0611V64H216.135V57.3168C216.135 56.526 215.929 55.9081 215.517 55.4631C215.105 55.0133 214.539 54.7884 213.82 54.7884C213.327 54.7884 212.889 54.8949 212.506 55.108C212.127 55.321 211.826 55.6335 211.604 56.0455C211.386 56.4527 211.277 56.9451 211.277 57.5227ZM225.08 68.3182C224.214 68.3182 223.468 68.2045 222.843 67.9773C222.223 67.75 221.716 67.4493 221.323 67.0753C220.93 66.7012 220.637 66.2917 220.443 65.8466L222.268 65.0938C222.396 65.3021 222.566 65.5223 222.779 65.7543C222.997 65.991 223.291 66.1922 223.66 66.358C224.034 66.5237 224.515 66.6065 225.102 66.6065C225.907 66.6065 226.572 66.41 227.097 66.017C227.623 65.6288 227.886 65.0085 227.886 64.1562V62.0114H227.751C227.623 62.2434 227.438 62.5014 227.197 62.7855C226.96 63.0696 226.633 63.3158 226.217 63.5241C225.8 63.7325 225.258 63.8366 224.59 63.8366C223.729 63.8366 222.952 63.6354 222.261 63.233C221.574 62.8258 221.03 62.2268 220.627 61.4361C220.229 60.6406 220.031 59.6629 220.031 58.5028C220.031 57.3428 220.227 56.3485 220.62 55.5199C221.018 54.6913 221.562 54.0568 222.254 53.6165C222.945 53.1714 223.729 52.9489 224.604 52.9489C225.282 52.9489 225.828 53.0625 226.245 53.2898C226.662 53.5123 226.986 53.7727 227.218 54.071C227.455 54.3693 227.637 54.6321 227.765 54.8594H227.921V53.0909H230.002V64.2415C230.002 65.179 229.784 65.9484 229.349 66.5497C228.913 67.151 228.324 67.5961 227.58 67.8849C226.842 68.1738 226.008 68.3182 225.08 68.3182ZM225.059 62.0753C225.67 62.0753 226.186 61.9332 226.607 61.6491C227.033 61.3603 227.355 60.9484 227.573 60.4134C227.796 59.8736 227.907 59.2273 227.907 58.4744C227.907 57.7405 227.798 57.0942 227.58 56.5355C227.363 55.9768 227.043 55.5412 226.622 55.2287C226.2 54.9115 225.679 54.7528 225.059 54.7528C224.42 54.7528 223.887 54.9186 223.461 55.25C223.035 55.5767 222.713 56.0218 222.495 56.5852C222.282 57.1487 222.175 57.7784 222.175 58.4744C222.175 59.1894 222.284 59.8168 222.502 60.3565C222.72 60.8963 223.042 61.3177 223.468 61.6207C223.899 61.9238 224.429 62.0753 225.059 62.0753ZM240.425 55.7543L238.5 56.0952C238.42 55.849 238.292 55.6146 238.117 55.392C237.946 55.1695 237.714 54.9872 237.421 54.8452C237.127 54.7031 236.76 54.6321 236.32 54.6321C235.718 54.6321 235.217 54.767 234.814 55.0369C234.412 55.3021 234.21 55.6454 234.21 56.0668C234.21 56.4313 234.345 56.7249 234.615 56.9474C234.885 57.17 235.321 57.3523 235.922 57.4943L237.655 57.892C238.659 58.1241 239.407 58.4815 239.899 58.9645C240.392 59.4474 240.638 60.0748 240.638 60.8466C240.638 61.5 240.449 62.0824 240.07 62.5938C239.696 63.1004 239.173 63.4981 238.5 63.7869C237.833 64.0758 237.058 64.2202 236.178 64.2202C234.956 64.2202 233.959 63.9598 233.188 63.4389C232.416 62.9134 231.942 62.1676 231.767 61.2017L233.82 60.8892C233.948 61.4242 234.21 61.8291 234.608 62.1037C235.006 62.3736 235.524 62.5085 236.164 62.5085C236.86 62.5085 237.416 62.3641 237.833 62.0753C238.249 61.7817 238.458 61.4242 238.458 61.0028C238.458 60.6619 238.33 60.3755 238.074 60.1435C237.823 59.9115 237.437 59.7363 236.916 59.6179L235.07 59.2131C234.052 58.9811 233.299 58.6117 232.811 58.1051C232.328 57.5985 232.087 56.9569 232.087 56.1804C232.087 55.5365 232.267 54.973 232.627 54.4901C232.986 54.0071 233.484 53.6307 234.118 53.3608C234.753 53.0862 235.479 52.9489 236.299 52.9489C237.477 52.9489 238.406 53.2045 239.083 53.7159C239.76 54.2225 240.207 54.902 240.425 55.7543Z" fill="white"/>
<path d="M120.594 64V53.0909H123.051V54.9446H123.179C123.406 54.3196 123.783 53.8319 124.308 53.4815C124.834 53.1264 125.461 52.9489 126.19 52.9489C126.929 52.9489 127.552 53.1288 128.058 53.4886C128.57 53.8437 128.929 54.3291 129.138 54.9446H129.251C129.493 54.3385 129.9 53.8556 130.473 53.4957C131.051 53.1312 131.735 52.9489 132.526 52.9489C133.529 52.9489 134.348 53.2661 134.983 53.9006C135.617 54.535 135.935 55.4607 135.935 56.6776V64H133.356V57.0753C133.356 56.3982 133.177 55.9034 132.817 55.5909C132.457 55.2737 132.017 55.1151 131.496 55.1151C130.875 55.1151 130.39 55.3092 130.04 55.6974C129.694 56.081 129.521 56.5805 129.521 57.196V64H127V56.9688C127 56.4053 126.829 55.9555 126.489 55.6193C126.152 55.2831 125.712 55.1151 125.168 55.1151C124.798 55.1151 124.462 55.2098 124.159 55.3991C123.856 55.5838 123.615 55.8466 123.435 56.1875C123.255 56.5237 123.165 56.9167 123.165 57.3665V64H120.594ZM141.082 64.2202C140.391 64.2202 139.768 64.0971 139.214 63.8509C138.665 63.5999 138.229 63.2306 137.907 62.7429C137.59 62.2552 137.432 61.6539 137.432 60.9389C137.432 60.3234 137.545 59.8144 137.772 59.4119C138 59.0095 138.31 58.6875 138.703 58.446C139.096 58.2045 139.539 58.0223 140.031 57.8991C140.528 57.7713 141.042 57.679 141.572 57.6222C142.211 57.5559 142.73 57.4967 143.128 57.4446C143.525 57.3878 143.814 57.3026 143.994 57.1889C144.179 57.0705 144.271 56.8883 144.271 56.642V56.5994C144.271 56.0644 144.112 55.6501 143.795 55.3565C143.478 55.063 143.021 54.9162 142.424 54.9162C141.795 54.9162 141.295 55.0535 140.926 55.3281C140.561 55.6027 140.315 55.9271 140.187 56.3011L137.787 55.9602C137.976 55.2973 138.289 54.7434 138.724 54.2983C139.16 53.8485 139.692 53.5123 140.322 53.2898C140.952 53.0625 141.648 52.9489 142.41 52.9489C142.936 52.9489 143.459 53.0104 143.98 53.1335C144.501 53.2566 144.977 53.4602 145.407 53.7443C145.838 54.0237 146.184 54.4048 146.444 54.8878C146.709 55.3707 146.842 55.9744 146.842 56.6989V64H144.37V62.5014H144.285C144.129 62.8045 143.909 63.0885 143.625 63.3537C143.345 63.6141 142.993 63.8248 142.566 63.9858C142.145 64.142 141.65 64.2202 141.082 64.2202ZM141.75 62.331C142.266 62.331 142.713 62.2292 143.092 62.0256C143.471 61.8172 143.762 61.5426 143.966 61.2017C144.174 60.8608 144.278 60.4891 144.278 60.0866V58.8011C144.198 58.8674 144.06 58.929 143.866 58.9858C143.677 59.0426 143.464 59.0923 143.227 59.1349C142.99 59.1776 142.756 59.2154 142.524 59.2486C142.292 59.2817 142.091 59.3101 141.92 59.3338C141.537 59.3859 141.193 59.4711 140.89 59.5895C140.587 59.7079 140.348 59.8736 140.173 60.0866C139.998 60.295 139.91 60.5649 139.91 60.8963C139.91 61.3698 140.083 61.7273 140.429 61.9688C140.774 62.2102 141.215 62.331 141.75 62.331ZM148.827 64V53.0909H151.398V64H148.827ZM150.12 51.5426C149.713 51.5426 149.362 51.4077 149.069 51.1378C148.775 50.8632 148.628 50.5341 148.628 50.1506C148.628 49.7623 148.775 49.4332 149.069 49.1634C149.362 48.8887 149.713 48.7514 150.12 48.7514C150.532 48.7514 150.882 48.8887 151.171 49.1634C151.465 49.4332 151.611 49.7623 151.611 50.1506C151.611 50.5341 151.465 50.8632 151.171 51.1378C150.882 51.4077 150.532 51.5426 150.12 51.5426ZM156.013 57.608V64H153.442V53.0909H155.9V54.9446H156.027C156.278 54.3338 156.678 53.8485 157.228 53.4886C157.782 53.1288 158.466 52.9489 159.28 52.9489C160.033 52.9489 160.689 53.1098 161.248 53.4318C161.811 53.7538 162.247 54.2202 162.554 54.831C162.867 55.4418 163.021 56.1828 163.016 57.054V64H160.445V57.4517C160.445 56.7225 160.256 56.152 159.877 55.7401C159.503 55.3281 158.984 55.1222 158.321 55.1222C157.872 55.1222 157.471 55.2216 157.121 55.4205C156.775 55.6146 156.503 55.8963 156.304 56.2656C156.11 56.6349 156.013 57.0824 156.013 57.608Z" fill="#FF713B"/>
<path d="M55.4347 103V88.4545H60.8892C62.0066 88.4545 62.9441 88.6629 63.7017 89.0795C64.464 89.4962 65.0393 90.0691 65.4276 90.7983C65.8205 91.5227 66.017 92.3466 66.017 93.2699C66.017 94.2027 65.8205 95.0312 65.4276 95.7557C65.0346 96.4801 64.4545 97.0507 63.6875 97.4673C62.9205 97.8793 61.9759 98.0852 60.8537 98.0852H57.2386V95.919H60.4986C61.152 95.919 61.687 95.8054 62.1037 95.5781C62.5204 95.3509 62.8281 95.0384 63.027 94.6406C63.2306 94.2429 63.3324 93.786 63.3324 93.2699C63.3324 92.7538 63.2306 92.2992 63.027 91.9062C62.8281 91.5133 62.518 91.2079 62.0966 90.9901C61.6799 90.7675 61.1425 90.6562 60.4844 90.6562H58.0696V103H55.4347ZM67.5921 103V92.0909H70.085V93.9091H70.1987C70.3975 93.2794 70.7384 92.794 71.2214 92.4531C71.7091 92.1075 72.2654 91.9347 72.8904 91.9347C73.0325 91.9347 73.1911 91.9418 73.3663 91.956C73.5462 91.9654 73.6953 91.982 73.8137 92.0057V94.3707C73.7048 94.3329 73.532 94.2997 73.2952 94.2713C73.0632 94.2382 72.8383 94.2216 72.6205 94.2216C72.1518 94.2216 71.7304 94.3234 71.3563 94.527C70.987 94.7259 70.6958 95.0028 70.4827 95.358C70.2697 95.7131 70.1631 96.1226 70.1631 96.5866V103H67.5921ZM74.9218 103V92.0909H77.4928V103H74.9218ZM76.2144 90.5426C75.8072 90.5426 75.4568 90.4077 75.1633 90.1378C74.8697 89.8632 74.7229 89.5341 74.7229 89.1506C74.7229 88.7623 74.8697 88.4332 75.1633 88.1634C75.4568 87.8887 75.8072 87.7514 76.2144 87.7514C76.6263 87.7514 76.9767 87.8887 77.2656 88.1634C77.5591 88.4332 77.7059 88.7623 77.7059 89.1506C77.7059 89.5341 77.5591 89.8632 77.2656 90.1378C76.9767 90.4077 76.6263 90.5426 76.2144 90.5426ZM79.3946 103V101.366L85.0196 94.3139V94.2216H79.5793V92.0909H88.1659V93.8452L82.8108 100.777V100.869H88.3506V103H79.3946ZM94.6842 103.213C93.5904 103.213 92.6458 102.986 91.8504 102.531C91.0596 102.072 90.4512 101.423 90.0251 100.585C89.5989 99.7424 89.3859 98.7505 89.3859 97.6094C89.3859 96.4872 89.5989 95.5024 90.0251 94.6548C90.4559 93.8026 91.0573 93.1397 91.829 92.6662C92.6008 92.188 93.5076 91.9489 94.5492 91.9489C95.2216 91.9489 95.856 92.0578 96.4526 92.2756C97.054 92.4886 97.5843 92.8201 98.0435 93.2699C98.5076 93.7197 98.8721 94.2926 99.1373 94.9886C99.4024 95.6799 99.535 96.5038 99.535 97.4602V98.2486H90.5933V96.5156H97.0705C97.0658 96.0232 96.9593 95.5852 96.7509 95.2017C96.5426 94.8134 96.2514 94.508 95.8773 94.2855C95.508 94.063 95.0772 93.9517 94.5847 93.9517C94.0592 93.9517 93.5975 94.0795 93.1998 94.3352C92.8021 94.5862 92.4919 94.9176 92.2694 95.3295C92.0516 95.7367 91.9403 96.1842 91.9356 96.6719V98.1847C91.9356 98.8191 92.0516 99.3636 92.2836 99.8182C92.5156 100.268 92.8399 100.614 93.2566 100.855C93.6733 101.092 94.161 101.21 94.7197 101.21C95.0937 101.21 95.4323 101.158 95.7353 101.054C96.0383 100.945 96.3011 100.786 96.5236 100.578C96.7462 100.37 96.9143 100.112 97.0279 99.804L99.4285 100.074C99.277 100.708 98.9881 101.262 98.562 101.736C98.1406 102.205 97.6008 102.569 96.9427 102.83C96.2845 103.085 95.5317 103.213 94.6842 103.213ZM105.91 107.091V92.0909H107.983V93.8594H108.161C108.284 93.6321 108.462 93.3693 108.694 93.071C108.926 92.7727 109.248 92.5123 109.66 92.2898C110.072 92.0625 110.616 91.9489 111.293 91.9489C112.174 91.9489 112.96 92.1714 113.651 92.6165C114.342 93.0616 114.884 93.7031 115.277 94.5412C115.675 95.3793 115.874 96.3878 115.874 97.5668C115.874 98.7457 115.678 99.7566 115.285 100.599C114.892 101.437 114.352 102.084 113.665 102.538C112.979 102.988 112.195 103.213 111.314 103.213C110.652 103.213 110.109 103.102 109.688 102.879C109.271 102.657 108.945 102.396 108.708 102.098C108.471 101.8 108.289 101.535 108.161 101.303H108.033V107.091H105.91ZM107.991 97.5455C107.991 98.3125 108.102 98.9848 108.324 99.5625C108.547 100.14 108.869 100.592 109.29 100.919C109.712 101.241 110.228 101.402 110.839 101.402C111.473 101.402 112.003 101.234 112.429 100.898C112.856 100.557 113.178 100.095 113.395 99.5128C113.618 98.9304 113.729 98.2746 113.729 97.5455C113.729 96.8258 113.62 96.1795 113.402 95.6065C113.189 95.0336 112.867 94.5814 112.437 94.25C112.01 93.9186 111.478 93.7528 110.839 93.7528C110.223 93.7528 109.702 93.9115 109.276 94.2287C108.855 94.5459 108.535 94.9886 108.317 95.5568C108.099 96.125 107.991 96.7879 107.991 97.5455ZM122.249 103.22C121.226 103.22 120.333 102.986 119.571 102.517C118.809 102.048 118.217 101.393 117.795 100.55C117.374 99.7069 117.163 98.7221 117.163 97.5952C117.163 96.4635 117.374 95.474 117.795 94.6264C118.217 93.7789 118.809 93.1207 119.571 92.652C120.333 92.1832 121.226 91.9489 122.249 91.9489C123.271 91.9489 124.164 92.1832 124.926 92.652C125.688 93.1207 126.28 93.7789 126.702 94.6264C127.123 95.474 127.334 96.4635 127.334 97.5952C127.334 98.7221 127.123 99.7069 126.702 100.55C126.28 101.393 125.688 102.048 124.926 102.517C124.164 102.986 123.271 103.22 122.249 103.22ZM122.256 101.438C122.918 101.438 123.468 101.262 123.903 100.912C124.339 100.562 124.661 100.095 124.869 99.5128C125.082 98.9304 125.189 98.2888 125.189 97.5881C125.189 96.892 125.082 96.2528 124.869 95.6705C124.661 95.0833 124.339 94.6122 123.903 94.2571C123.468 93.902 122.918 93.7244 122.256 93.7244C121.588 93.7244 121.034 93.902 120.594 94.2571C120.158 94.6122 119.834 95.0833 119.621 95.6705C119.412 96.2528 119.308 96.892 119.308 97.5881C119.308 98.2888 119.412 98.9304 119.621 99.5128C119.834 100.095 120.158 100.562 120.594 100.912C121.034 101.262 121.588 101.438 122.256 101.438ZM133.699 103.22C132.677 103.22 131.784 102.986 131.022 102.517C130.259 102.048 129.668 101.393 129.246 100.55C128.825 99.7069 128.614 98.7221 128.614 97.5952C128.614 96.4635 128.825 95.474 129.246 94.6264C129.668 93.7789 130.259 93.1207 131.022 92.652C131.784 92.1832 132.677 91.9489 133.699 91.9489C134.722 91.9489 135.615 92.1832 136.377 92.652C137.139 93.1207 137.731 93.7789 138.152 94.6264C138.574 95.474 138.785 96.4635 138.785 97.5952C138.785 98.7221 138.574 99.7069 138.152 100.55C137.731 101.393 137.139 102.048 136.377 102.517C135.615 102.986 134.722 103.22 133.699 103.22ZM133.706 101.438C134.369 101.438 134.919 101.262 135.354 100.912C135.79 100.562 136.112 100.095 136.32 99.5128C136.533 98.9304 136.64 98.2888 136.64 97.5881C136.64 96.892 136.533 96.2528 136.32 95.6705C136.112 95.0833 135.79 94.6122 135.354 94.2571C134.919 93.902 134.369 93.7244 133.706 93.7244C133.039 93.7244 132.485 93.902 132.044 94.2571C131.609 94.6122 131.285 95.0833 131.071 95.6705C130.863 96.2528 130.759 96.892 130.759 97.5881C130.759 98.2888 130.863 98.9304 131.071 99.5128C131.285 100.095 131.609 100.562 132.044 100.912C132.485 101.262 133.039 101.438 133.706 101.438ZM142.678 88.4545V103H140.555V88.4545H142.678Z" fill="#FF713B"/>
<path d="M157.803 94.7543L155.878 95.0952C155.798 94.849 155.67 94.6146 155.495 94.392C155.324 94.1695 155.092 93.9872 154.799 93.8452C154.505 93.7031 154.138 93.6321 153.698 93.6321C153.097 93.6321 152.595 93.767 152.192 94.0369C151.79 94.3021 151.589 94.6454 151.589 95.0668C151.589 95.4313 151.724 95.7249 151.993 95.9474C152.263 96.17 152.699 96.3523 153.3 96.4943L155.033 96.892C156.037 97.1241 156.785 97.4815 157.277 97.9645C157.77 98.4474 158.016 99.0748 158.016 99.8466C158.016 100.5 157.827 101.082 157.448 101.594C157.074 102.1 156.551 102.498 155.878 102.787C155.211 103.076 154.437 103.22 153.556 103.22C152.334 103.22 151.338 102.96 150.566 102.439C149.794 101.913 149.321 101.168 149.145 100.202L151.198 99.8892C151.326 100.424 151.589 100.829 151.986 101.104C152.384 101.374 152.902 101.509 153.542 101.509C154.238 101.509 154.794 101.364 155.211 101.075C155.627 100.782 155.836 100.424 155.836 100.003C155.836 99.6619 155.708 99.3755 155.452 99.1435C155.201 98.9115 154.815 98.7363 154.295 98.6179L152.448 98.2131C151.43 97.9811 150.677 97.6117 150.189 97.1051C149.706 96.5985 149.465 95.9569 149.465 95.1804C149.465 94.5365 149.645 93.973 150.005 93.4901C150.365 93.0071 150.862 92.6307 151.496 92.3608C152.131 92.0862 152.858 91.9489 153.677 91.9489C154.856 91.9489 155.784 92.2045 156.461 92.7159C157.138 93.2225 157.585 93.902 157.803 94.7543ZM164.453 103.22C163.378 103.22 162.452 102.991 161.676 102.531C160.904 102.067 160.307 101.416 159.886 100.578C159.469 99.7353 159.261 98.7481 159.261 97.6165C159.261 96.4991 159.469 95.5142 159.886 94.6619C160.307 93.8097 160.894 93.1444 161.647 92.6662C162.405 92.188 163.29 91.9489 164.304 91.9489C164.919 91.9489 165.516 92.0507 166.093 92.2543C166.671 92.4579 167.189 92.7775 167.649 93.2131C168.108 93.6487 168.47 94.2145 168.735 94.9105C169.001 95.6018 169.133 96.4422 169.133 97.4318V98.1847H160.461V96.5938H167.052C167.052 96.035 166.938 95.5402 166.711 95.1094C166.484 94.6738 166.164 94.3305 165.752 94.0795C165.345 93.8286 164.867 93.7031 164.318 93.7031C163.721 93.7031 163.2 93.8499 162.755 94.1435C162.315 94.4323 161.974 94.8111 161.733 95.2798C161.496 95.7438 161.377 96.2481 161.377 96.7926V98.0355C161.377 98.7647 161.505 99.3849 161.761 99.8963C162.021 100.408 162.384 100.798 162.848 101.068C163.312 101.333 163.854 101.466 164.474 101.466C164.876 101.466 165.243 101.409 165.575 101.295C165.906 101.177 166.193 101.002 166.434 100.77C166.676 100.538 166.86 100.251 166.988 99.9105L168.998 100.273C168.837 100.865 168.548 101.383 168.132 101.828C167.72 102.268 167.201 102.612 166.576 102.858C165.956 103.099 165.248 103.22 164.453 103.22ZM175.982 92.0909V93.7955H170.023V92.0909H175.982ZM171.621 89.4773H173.744V99.7969C173.744 100.209 173.806 100.519 173.929 100.727C174.052 100.931 174.211 101.071 174.405 101.146C174.604 101.217 174.819 101.253 175.051 101.253C175.222 101.253 175.371 101.241 175.499 101.217C175.626 101.194 175.726 101.175 175.797 101.161L176.18 102.915C176.057 102.962 175.882 103.009 175.655 103.057C175.428 103.109 175.144 103.137 174.803 103.142C174.244 103.152 173.723 103.052 173.24 102.844C172.757 102.635 172.367 102.313 172.068 101.878C171.77 101.442 171.621 100.895 171.621 100.237V89.4773ZM182.823 92.0909V93.7955H176.864V92.0909H182.823ZM178.462 89.4773H180.586V99.7969C180.586 100.209 180.647 100.519 180.77 100.727C180.894 100.931 181.052 101.071 181.246 101.146C181.445 101.217 181.661 101.253 181.893 101.253C182.063 101.253 182.212 101.241 182.34 101.217C182.468 101.194 182.567 101.175 182.638 101.161L183.022 102.915C182.899 102.962 182.724 103.009 182.496 103.057C182.269 103.109 181.985 103.137 181.644 103.142C181.085 103.152 180.564 103.052 180.082 102.844C179.599 102.635 179.208 102.313 178.91 101.878C178.611 101.442 178.462 100.895 178.462 100.237V89.4773ZM184.572 103V92.0909H186.696V103H184.572ZM185.645 90.4077C185.275 90.4077 184.958 90.2846 184.693 90.0384C184.432 89.7874 184.302 89.4891 184.302 89.1435C184.302 88.7931 184.432 88.4948 184.693 88.2486C184.958 87.9976 185.275 87.8722 185.645 87.8722C186.014 87.8722 186.329 87.9976 186.589 88.2486C186.854 88.4948 186.987 88.7931 186.987 89.1435C186.987 89.4891 186.854 89.7874 186.589 90.0384C186.329 90.2846 186.014 90.4077 185.645 90.4077ZM191.076 96.5227V103H188.953V92.0909H190.991V93.8665H191.126C191.377 93.2888 191.77 92.8248 192.305 92.4744C192.845 92.1241 193.524 91.9489 194.343 91.9489C195.087 91.9489 195.738 92.1051 196.296 92.4176C196.855 92.7254 197.288 93.1847 197.596 93.7955C197.904 94.4062 198.058 95.1615 198.058 96.0611V103H195.934V96.3168C195.934 95.526 195.728 94.9081 195.316 94.4631C194.904 94.0133 194.338 93.7884 193.619 93.7884C193.126 93.7884 192.688 93.8949 192.305 94.108C191.926 94.321 191.625 94.6335 191.403 95.0455C191.185 95.4527 191.076 95.9451 191.076 96.5227ZM204.88 107.318C204.013 107.318 203.267 107.205 202.642 106.977C202.022 106.75 201.515 106.449 201.122 106.075C200.729 105.701 200.436 105.292 200.242 104.847L202.067 104.094C202.195 104.302 202.365 104.522 202.578 104.754C202.796 104.991 203.09 105.192 203.459 105.358C203.833 105.524 204.314 105.607 204.901 105.607C205.706 105.607 206.371 105.41 206.897 105.017C207.422 104.629 207.685 104.009 207.685 103.156V101.011H207.55C207.422 101.243 207.238 101.501 206.996 101.786C206.759 102.07 206.433 102.316 206.016 102.524C205.599 102.732 205.057 102.837 204.389 102.837C203.528 102.837 202.751 102.635 202.06 102.233C201.373 101.826 200.829 101.227 200.426 100.436C200.029 99.6406 199.83 98.6629 199.83 97.5028C199.83 96.3428 200.026 95.3485 200.419 94.5199C200.817 93.6913 201.362 93.0568 202.053 92.6165C202.744 92.1714 203.528 91.9489 204.404 91.9489C205.081 91.9489 205.628 92.0625 206.044 92.2898C206.461 92.5123 206.785 92.7727 207.017 93.071C207.254 93.3693 207.436 93.6321 207.564 93.8594H207.72V92.0909H209.801V103.241C209.801 104.179 209.584 104.948 209.148 105.55C208.712 106.151 208.123 106.596 207.38 106.885C206.641 107.174 205.808 107.318 204.88 107.318ZM204.858 101.075C205.469 101.075 205.985 100.933 206.407 100.649C206.833 100.36 207.155 99.9484 207.372 99.4134C207.595 98.8736 207.706 98.2273 207.706 97.4744C207.706 96.7405 207.597 96.0942 207.38 95.5355C207.162 94.9768 206.842 94.5412 206.421 94.2287C205.999 93.9115 205.479 93.7528 204.858 93.7528C204.219 93.7528 203.686 93.9186 203.26 94.25C202.834 94.5767 202.512 95.0218 202.294 95.5852C202.081 96.1487 201.975 96.7784 201.975 97.4744C201.975 98.1894 202.084 98.8168 202.301 99.3565C202.519 99.8963 202.841 100.318 203.267 100.621C203.698 100.924 204.229 101.075 204.858 101.075ZM220.224 94.7543L218.299 95.0952C218.219 94.849 218.091 94.6146 217.916 94.392C217.745 94.1695 217.513 93.9872 217.22 93.8452C216.926 93.7031 216.559 93.6321 216.119 93.6321C215.518 93.6321 215.016 93.767 214.613 94.0369C214.211 94.3021 214.01 94.6454 214.01 95.0668C214.01 95.4313 214.145 95.7249 214.414 95.9474C214.684 96.17 215.12 96.3523 215.721 96.4943L217.454 96.892C218.458 97.1241 219.206 97.4815 219.699 97.9645C220.191 98.4474 220.437 99.0748 220.437 99.8466C220.437 100.5 220.248 101.082 219.869 101.594C219.495 102.1 218.972 102.498 218.299 102.787C217.632 103.076 216.858 103.22 215.977 103.22C214.755 103.22 213.759 102.96 212.987 102.439C212.215 101.913 211.742 101.168 211.566 100.202L213.619 99.8892C213.747 100.424 214.01 100.829 214.407 101.104C214.805 101.374 215.324 101.509 215.963 101.509C216.659 101.509 217.215 101.364 217.632 101.075C218.048 100.782 218.257 100.424 218.257 100.003C218.257 99.6619 218.129 99.3755 217.873 99.1435C217.622 98.9115 217.236 98.7363 216.716 98.6179L214.869 98.2131C213.851 97.9811 213.098 97.6117 212.611 97.1051C212.128 96.5985 211.886 95.9569 211.886 95.1804C211.886 94.5365 212.066 93.973 212.426 93.4901C212.786 93.0071 213.283 92.6307 213.917 92.3608C214.552 92.0862 215.279 91.9489 216.098 91.9489C217.277 91.9489 218.205 92.2045 218.882 92.7159C219.559 93.2225 220.006 93.902 220.224 94.7543Z" fill="white"/>
<path d="M63.3395 248.453C63.2732 247.833 62.9938 247.35 62.5014 247.004C62.0137 246.659 61.3793 246.486 60.598 246.486C60.0488 246.486 59.5777 246.569 59.1847 246.734C58.7917 246.9 58.491 247.125 58.2827 247.409C58.0743 247.693 57.9678 248.018 57.9631 248.382C57.9631 248.685 58.0317 248.948 58.169 249.17C58.3111 249.393 58.5028 249.582 58.7443 249.739C58.9858 249.89 59.2533 250.018 59.5469 250.122C59.8404 250.226 60.1364 250.314 60.4347 250.385L61.7983 250.726C62.3475 250.854 62.8755 251.027 63.3821 251.244C63.8935 251.462 64.3504 251.737 64.7528 252.068C65.16 252.4 65.482 252.8 65.7188 253.268C65.9555 253.737 66.0739 254.286 66.0739 254.916C66.0739 255.768 65.8561 256.519 65.4205 257.168C64.9848 257.812 64.3551 258.316 63.5312 258.68C62.7121 259.04 61.7202 259.22 60.5554 259.22C59.4238 259.22 58.4413 259.045 57.608 258.695C56.7794 258.344 56.1307 257.833 55.6619 257.161C55.1979 256.488 54.947 255.669 54.9091 254.703H57.5014C57.5393 255.21 57.6955 255.631 57.9702 255.967C58.2448 256.304 58.6023 256.554 59.0426 256.72C59.4877 256.886 59.9848 256.969 60.5341 256.969C61.107 256.969 61.6089 256.884 62.0398 256.713C62.4754 256.538 62.8163 256.296 63.0625 255.989C63.3087 255.676 63.4342 255.312 63.4389 254.895C63.4342 254.516 63.3229 254.204 63.1051 253.957C62.8873 253.706 62.5819 253.498 62.1889 253.332C61.8007 253.162 61.3461 253.01 60.8253 252.878L59.1705 252.452C57.9725 252.144 57.0256 251.678 56.3295 251.053C55.6383 250.423 55.2926 249.587 55.2926 248.545C55.2926 247.688 55.5246 246.938 55.9886 246.294C56.4574 245.65 57.0942 245.151 57.8991 244.795C58.7041 244.436 59.6155 244.256 60.6335 244.256C61.6657 244.256 62.5701 244.436 63.3466 244.795C64.1278 245.151 64.741 245.645 65.1861 246.28C65.6312 246.91 65.8608 247.634 65.875 248.453H63.3395ZM72.4678 259.213C71.4025 259.213 70.4792 258.979 69.6979 258.51C68.9167 258.041 68.3106 257.385 67.8798 256.543C67.4536 255.7 67.2406 254.715 67.2406 253.588C67.2406 252.461 67.4536 251.474 67.8798 250.626C68.3106 249.779 68.9167 249.121 69.6979 248.652C70.4792 248.183 71.4025 247.949 72.4678 247.949C73.5332 247.949 74.4565 248.183 75.2377 248.652C76.019 249.121 76.6227 249.779 77.0488 250.626C77.4797 251.474 77.6951 252.461 77.6951 253.588C77.6951 254.715 77.4797 255.7 77.0488 256.543C76.6227 257.385 76.019 258.041 75.2377 258.51C74.4565 258.979 73.5332 259.213 72.4678 259.213ZM72.482 257.153C73.0597 257.153 73.5426 256.995 73.9309 256.678C74.3192 256.356 74.608 255.925 74.7974 255.385C74.9915 254.845 75.0886 254.244 75.0886 253.581C75.0886 252.913 74.9915 252.31 74.7974 251.77C74.608 251.225 74.3192 250.792 73.9309 250.47C73.5426 250.148 73.0597 249.987 72.482 249.987C71.8902 249.987 71.3978 250.148 71.0048 250.47C70.6165 250.792 70.3253 251.225 70.1312 251.77C69.9418 252.31 69.8471 252.913 69.8471 253.581C69.8471 254.244 69.9418 254.845 70.1312 255.385C70.3253 255.925 70.6165 256.356 71.0048 256.678C71.3978 256.995 71.8902 257.153 72.482 257.153ZM84.0358 259.213C82.9468 259.213 82.0116 258.974 81.2304 258.496C80.4539 258.018 79.8549 257.357 79.4335 256.514C79.0169 255.667 78.8085 254.691 78.8085 253.588C78.8085 252.48 79.0216 251.502 79.4477 250.655C79.8739 249.803 80.4752 249.14 81.2517 248.666C82.033 248.188 82.9562 247.949 84.0216 247.949C84.907 247.949 85.6906 248.112 86.3724 248.439C87.059 248.761 87.6059 249.218 88.0131 249.81C88.4203 250.397 88.6523 251.083 88.7091 251.869H86.2517C86.1523 251.344 85.9155 250.906 85.5415 250.555C85.1722 250.2 84.6774 250.023 84.0571 250.023C83.5315 250.023 83.0699 250.165 82.6722 250.449C82.2744 250.728 81.9643 251.131 81.7418 251.656C81.524 252.182 81.4151 252.812 81.4151 253.545C81.4151 254.289 81.524 254.928 81.7418 255.463C81.9596 255.993 82.265 256.403 82.658 256.692C83.0557 256.976 83.5221 257.118 84.0571 257.118C84.4359 257.118 84.7744 257.047 85.0727 256.905C85.3758 256.758 85.6291 256.547 85.8327 256.273C86.0363 255.998 86.1759 255.664 86.2517 255.271H88.7091C88.6475 256.043 88.4203 256.727 88.0273 257.324C87.6343 257.916 87.0992 258.38 86.4222 258.716C85.7451 259.047 84.9496 259.213 84.0358 259.213ZM90.2202 259V248.091H92.7913V259H90.2202ZM91.5129 246.543C91.1057 246.543 90.7553 246.408 90.4617 246.138C90.1682 245.863 90.0214 245.534 90.0214 245.151C90.0214 244.762 90.1682 244.433 90.4617 244.163C90.7553 243.889 91.1057 243.751 91.5129 243.751C91.9248 243.751 92.2752 243.889 92.564 244.163C92.8576 244.433 93.0043 244.762 93.0043 245.151C93.0043 245.534 92.8576 245.863 92.564 246.138C92.2752 246.408 91.9248 246.543 91.5129 246.543ZM97.9743 259.22C97.283 259.22 96.6604 259.097 96.1064 258.851C95.5571 258.6 95.1215 258.231 94.7996 257.743C94.4823 257.255 94.3237 256.654 94.3237 255.939C94.3237 255.323 94.4374 254.814 94.6646 254.412C94.8919 254.009 95.202 253.688 95.595 253.446C95.988 253.205 96.4307 253.022 96.9232 252.899C97.4203 252.771 97.934 252.679 98.4643 252.622C99.1035 252.556 99.622 252.497 100.02 252.445C100.417 252.388 100.706 252.303 100.886 252.189C101.071 252.071 101.163 251.888 101.163 251.642V251.599C101.163 251.064 101.005 250.65 100.687 250.357C100.37 250.063 99.9132 249.916 99.3166 249.916C98.6869 249.916 98.1874 250.054 97.818 250.328C97.4535 250.603 97.2072 250.927 97.0794 251.301L94.6788 250.96C94.8682 250.297 95.1807 249.743 95.6163 249.298C96.0519 248.848 96.5846 248.512 97.2143 248.29C97.8441 248.062 98.5401 247.949 99.3024 247.949C99.828 247.949 100.351 248.01 100.872 248.134C101.393 248.257 101.869 248.46 102.3 248.744C102.73 249.024 103.076 249.405 103.337 249.888C103.602 250.371 103.734 250.974 103.734 251.699V259H101.263V257.501H101.177C101.021 257.804 100.801 258.089 100.517 258.354C100.238 258.614 99.8848 258.825 99.4587 258.986C99.0373 259.142 98.5425 259.22 97.9743 259.22ZM98.6419 257.331C99.158 257.331 99.6054 257.229 99.9842 257.026C100.363 256.817 100.654 256.543 100.858 256.202C101.066 255.861 101.17 255.489 101.17 255.087V253.801C101.09 253.867 100.953 253.929 100.758 253.986C100.569 254.043 100.356 254.092 100.119 254.135C99.8824 254.178 99.6481 254.215 99.416 254.249C99.184 254.282 98.9828 254.31 98.8124 254.334C98.4288 254.386 98.0856 254.471 97.7825 254.589C97.4795 254.708 97.2404 254.874 97.0652 255.087C96.89 255.295 96.8024 255.565 96.8024 255.896C96.8024 256.37 96.9752 256.727 97.3209 256.969C97.6665 257.21 98.1069 257.331 98.6419 257.331ZM108.29 244.455V259H105.719V244.455H108.29ZM114.695 259V248.091H117.153V249.945H117.28C117.508 249.32 117.884 248.832 118.41 248.482C118.935 248.126 119.563 247.949 120.292 247.949C121.03 247.949 121.653 248.129 122.16 248.489C122.671 248.844 123.031 249.329 123.239 249.945H123.353C123.594 249.339 124.002 248.856 124.575 248.496C125.152 248.131 125.836 247.949 126.627 247.949C127.631 247.949 128.45 248.266 129.084 248.901C129.719 249.535 130.036 250.461 130.036 251.678V259H127.458V252.075C127.458 251.398 127.278 250.903 126.918 250.591C126.558 250.274 126.118 250.115 125.597 250.115C124.977 250.115 124.492 250.309 124.141 250.697C123.796 251.081 123.623 251.58 123.623 252.196V259H121.101V251.969C121.101 251.405 120.931 250.955 120.59 250.619C120.254 250.283 119.814 250.115 119.269 250.115C118.9 250.115 118.564 250.21 118.261 250.399C117.958 250.584 117.716 250.847 117.536 251.188C117.356 251.524 117.266 251.917 117.266 252.366V259H114.695ZM136.874 259.213C135.78 259.213 134.836 258.986 134.04 258.531C133.249 258.072 132.641 257.423 132.215 256.585C131.789 255.742 131.576 254.75 131.576 253.609C131.576 252.487 131.789 251.502 132.215 250.655C132.646 249.803 133.247 249.14 134.019 248.666C134.791 248.188 135.697 247.949 136.739 247.949C137.411 247.949 138.046 248.058 138.642 248.276C139.244 248.489 139.774 248.82 140.233 249.27C140.697 249.72 141.062 250.293 141.327 250.989C141.592 251.68 141.725 252.504 141.725 253.46V254.249H132.783V252.516H139.26C139.256 252.023 139.149 251.585 138.941 251.202C138.732 250.813 138.441 250.508 138.067 250.286C137.698 250.063 137.267 249.952 136.775 249.952C136.249 249.952 135.787 250.08 135.39 250.335C134.992 250.586 134.682 250.918 134.459 251.33C134.241 251.737 134.13 252.184 134.125 252.672V254.185C134.125 254.819 134.241 255.364 134.473 255.818C134.705 256.268 135.03 256.614 135.446 256.855C135.863 257.092 136.351 257.21 136.91 257.21C137.284 257.21 137.622 257.158 137.925 257.054C138.228 256.945 138.491 256.786 138.713 256.578C138.936 256.37 139.104 256.112 139.218 255.804L141.618 256.074C141.467 256.708 141.178 257.262 140.752 257.736C140.33 258.205 139.791 258.569 139.133 258.83C138.474 259.085 137.722 259.213 136.874 259.213ZM147.348 259.192C146.491 259.192 145.724 258.972 145.047 258.531C144.37 258.091 143.835 257.452 143.442 256.614C143.049 255.776 142.852 254.758 142.852 253.56C142.852 252.348 143.051 251.325 143.449 250.491C143.852 249.653 144.394 249.021 145.075 248.595C145.757 248.164 146.517 247.949 147.355 247.949C147.995 247.949 148.52 248.058 148.932 248.276C149.344 248.489 149.671 248.747 149.912 249.05C150.154 249.348 150.341 249.63 150.473 249.895H150.58V244.455H153.158V259H150.629V257.281H150.473C150.341 257.546 150.149 257.828 149.898 258.126C149.647 258.42 149.316 258.671 148.904 258.879C148.492 259.088 147.973 259.192 147.348 259.192ZM148.066 257.082C148.61 257.082 149.074 256.936 149.458 256.642C149.841 256.344 150.132 255.929 150.331 255.399C150.53 254.869 150.629 254.251 150.629 253.545C150.629 252.84 150.53 252.227 150.331 251.706C150.137 251.185 149.848 250.78 149.465 250.491C149.086 250.203 148.62 250.058 148.066 250.058C147.493 250.058 147.014 250.207 146.631 250.506C146.247 250.804 145.959 251.216 145.764 251.741C145.57 252.267 145.473 252.868 145.473 253.545C145.473 254.227 145.57 254.836 145.764 255.371C145.963 255.901 146.254 256.32 146.638 256.628C147.026 256.931 147.502 257.082 148.066 257.082ZM155.298 259V248.091H157.869V259H155.298ZM156.59 246.543C156.183 246.543 155.833 246.408 155.539 246.138C155.246 245.863 155.099 245.534 155.099 245.151C155.099 244.762 155.246 244.433 155.539 244.163C155.833 243.889 156.183 243.751 156.59 243.751C157.002 243.751 157.353 243.889 157.641 244.163C157.935 244.433 158.082 244.762 158.082 245.151C158.082 245.534 157.935 245.863 157.641 246.138C157.353 246.408 157.002 246.543 156.59 246.543ZM163.052 259.22C162.36 259.22 161.738 259.097 161.184 258.851C160.634 258.6 160.199 258.231 159.877 257.743C159.56 257.255 159.401 256.654 159.401 255.939C159.401 255.323 159.515 254.814 159.742 254.412C159.969 254.009 160.279 253.688 160.672 253.446C161.065 253.205 161.508 253.022 162 252.899C162.498 252.771 163.011 252.679 163.542 252.622C164.181 252.556 164.699 252.497 165.097 252.445C165.495 252.388 165.784 252.303 165.964 252.189C166.148 252.071 166.241 251.888 166.241 251.642V251.599C166.241 251.064 166.082 250.65 165.765 250.357C165.447 250.063 164.991 249.916 164.394 249.916C163.764 249.916 163.265 250.054 162.895 250.328C162.531 250.603 162.285 250.927 162.157 251.301L159.756 250.96C159.946 250.297 160.258 249.743 160.694 249.298C161.129 248.848 161.662 248.512 162.292 248.29C162.921 248.062 163.617 247.949 164.38 247.949C164.905 247.949 165.429 248.01 165.949 248.134C166.47 248.257 166.946 248.46 167.377 248.744C167.808 249.024 168.153 249.405 168.414 249.888C168.679 250.371 168.812 250.974 168.812 251.699V259H166.34V257.501H166.255C166.099 257.804 165.878 258.089 165.594 258.354C165.315 258.614 164.962 258.825 164.536 258.986C164.115 259.142 163.62 259.22 163.052 259.22ZM163.719 257.331C164.235 257.331 164.683 257.229 165.062 257.026C165.44 256.817 165.732 256.543 165.935 256.202C166.143 255.861 166.248 255.489 166.248 255.087V253.801C166.167 253.867 166.03 253.929 165.836 253.986C165.646 254.043 165.433 254.092 165.197 254.135C164.96 254.178 164.725 254.215 164.493 254.249C164.261 254.282 164.06 254.31 163.89 254.334C163.506 254.386 163.163 254.471 162.86 254.589C162.557 254.708 162.318 254.874 162.143 255.087C161.967 255.295 161.88 255.565 161.88 255.896C161.88 256.37 162.053 256.727 162.398 256.969C162.744 257.21 163.184 257.331 163.719 257.331Z" fill="#FF713B"/>
<path d="M183.771 250.754L181.846 251.095C181.766 250.849 181.638 250.615 181.463 250.392C181.292 250.17 181.06 249.987 180.767 249.845C180.473 249.703 180.106 249.632 179.666 249.632C179.065 249.632 178.563 249.767 178.16 250.037C177.758 250.302 177.557 250.645 177.557 251.067C177.557 251.431 177.691 251.725 177.961 251.947C178.231 252.17 178.667 252.352 179.268 252.494L181.001 252.892C182.005 253.124 182.753 253.482 183.245 253.964C183.738 254.447 183.984 255.075 183.984 255.847C183.984 256.5 183.795 257.082 183.416 257.594C183.042 258.1 182.519 258.498 181.846 258.787C181.179 259.076 180.405 259.22 179.524 259.22C178.302 259.22 177.306 258.96 176.534 258.439C175.762 257.913 175.289 257.168 175.113 256.202L177.166 255.889C177.294 256.424 177.557 256.829 177.954 257.104C178.352 257.374 178.87 257.509 179.51 257.509C180.206 257.509 180.762 257.364 181.179 257.075C181.595 256.782 181.804 256.424 181.804 256.003C181.804 255.662 181.676 255.375 181.42 255.143C181.169 254.911 180.783 254.736 180.262 254.618L178.416 254.213C177.398 253.981 176.645 253.612 176.157 253.105C175.674 252.598 175.433 251.957 175.433 251.18C175.433 250.536 175.613 249.973 175.973 249.49C176.333 249.007 176.83 248.631 177.464 248.361C178.099 248.086 178.825 247.949 179.645 247.949C180.824 247.949 181.752 248.205 182.429 248.716C183.106 249.223 183.553 249.902 183.771 250.754ZM190.421 259.22C189.346 259.22 188.42 258.991 187.644 258.531C186.872 258.067 186.275 257.416 185.854 256.578C185.437 255.735 185.229 254.748 185.229 253.616C185.229 252.499 185.437 251.514 185.854 250.662C186.275 249.81 186.862 249.144 187.615 248.666C188.373 248.188 189.258 247.949 190.272 247.949C190.887 247.949 191.484 248.051 192.061 248.254C192.639 248.458 193.157 248.777 193.617 249.213C194.076 249.649 194.438 250.214 194.703 250.911C194.968 251.602 195.101 252.442 195.101 253.432V254.185H186.429V252.594H193.02C193.02 252.035 192.906 251.54 192.679 251.109C192.452 250.674 192.132 250.33 191.72 250.08C191.313 249.829 190.835 249.703 190.286 249.703C189.689 249.703 189.168 249.85 188.723 250.143C188.283 250.432 187.942 250.811 187.701 251.28C187.464 251.744 187.345 252.248 187.345 252.793V254.036C187.345 254.765 187.473 255.385 187.729 255.896C187.989 256.408 188.352 256.798 188.816 257.068C189.28 257.333 189.822 257.466 190.442 257.466C190.844 257.466 191.211 257.409 191.543 257.295C191.874 257.177 192.161 257.002 192.402 256.77C192.644 256.538 192.828 256.251 192.956 255.911L194.966 256.273C194.805 256.865 194.516 257.383 194.1 257.828C193.688 258.268 193.169 258.612 192.544 258.858C191.924 259.099 191.216 259.22 190.421 259.22ZM201.95 248.091V249.795H195.991V248.091H201.95ZM197.589 245.477H199.712V255.797C199.712 256.209 199.774 256.519 199.897 256.727C200.02 256.931 200.179 257.071 200.373 257.146C200.572 257.217 200.787 257.253 201.019 257.253C201.19 257.253 201.339 257.241 201.467 257.217C201.594 257.194 201.694 257.175 201.765 257.161L202.148 258.915C202.025 258.962 201.85 259.009 201.623 259.057C201.396 259.109 201.112 259.137 200.771 259.142C200.212 259.152 199.691 259.052 199.208 258.844C198.725 258.635 198.335 258.313 198.036 257.878C197.738 257.442 197.589 256.895 197.589 256.237V245.477ZM208.791 248.091V249.795H202.832V248.091H208.791ZM204.43 245.477H206.554V255.797C206.554 256.209 206.615 256.519 206.738 256.727C206.862 256.931 207.02 257.071 207.214 257.146C207.413 257.217 207.629 257.253 207.861 257.253C208.031 257.253 208.18 257.241 208.308 257.217C208.436 257.194 208.535 257.175 208.606 257.161L208.99 258.915C208.867 258.962 208.692 259.009 208.464 259.057C208.237 259.109 207.953 259.137 207.612 259.142C207.053 259.152 206.532 259.052 206.049 258.844C205.567 258.635 205.176 258.313 204.878 257.878C204.579 257.442 204.43 256.895 204.43 256.237V245.477ZM210.54 259V248.091H212.664V259H210.54ZM211.613 246.408C211.243 246.408 210.926 246.285 210.661 246.038C210.4 245.787 210.27 245.489 210.27 245.143C210.27 244.793 210.4 244.495 210.661 244.249C210.926 243.998 211.243 243.872 211.613 243.872C211.982 243.872 212.297 243.998 212.557 244.249C212.822 244.495 212.955 244.793 212.955 245.143C212.955 245.489 212.822 245.787 212.557 246.038C212.297 246.285 211.982 246.408 211.613 246.408ZM217.044 252.523V259H214.921V248.091H216.959V249.866H217.094C217.345 249.289 217.738 248.825 218.273 248.474C218.813 248.124 219.492 247.949 220.311 247.949C221.055 247.949 221.706 248.105 222.264 248.418C222.823 248.725 223.256 249.185 223.564 249.795C223.872 250.406 224.026 251.161 224.026 252.061V259H221.902V252.317C221.902 251.526 221.696 250.908 221.284 250.463C220.872 250.013 220.306 249.788 219.587 249.788C219.094 249.788 218.656 249.895 218.273 250.108C217.894 250.321 217.593 250.634 217.371 251.045C217.153 251.453 217.044 251.945 217.044 252.523ZM230.848 263.318C229.981 263.318 229.235 263.205 228.61 262.977C227.99 262.75 227.483 262.449 227.09 262.075C226.697 261.701 226.404 261.292 226.21 260.847L228.035 260.094C228.163 260.302 228.333 260.522 228.546 260.754C228.764 260.991 229.058 261.192 229.427 261.358C229.801 261.524 230.282 261.607 230.869 261.607C231.674 261.607 232.339 261.41 232.865 261.017C233.39 260.629 233.653 260.009 233.653 259.156V257.011H233.518C233.39 257.243 233.205 257.501 232.964 257.786C232.727 258.07 232.401 258.316 231.984 258.524C231.567 258.732 231.025 258.837 230.357 258.837C229.496 258.837 228.719 258.635 228.028 258.233C227.341 257.826 226.797 257.227 226.394 256.436C225.997 255.641 225.798 254.663 225.798 253.503C225.798 252.343 225.994 251.348 226.387 250.52C226.785 249.691 227.33 249.057 228.021 248.616C228.712 248.171 229.496 247.949 230.372 247.949C231.049 247.949 231.596 248.062 232.012 248.29C232.429 248.512 232.753 248.773 232.985 249.071C233.222 249.369 233.404 249.632 233.532 249.859H233.688V248.091H235.769V259.241C235.769 260.179 235.552 260.948 235.116 261.55C234.68 262.151 234.091 262.596 233.348 262.885C232.609 263.174 231.776 263.318 230.848 263.318ZM230.826 257.075C231.437 257.075 231.953 256.933 232.375 256.649C232.801 256.36 233.123 255.948 233.34 255.413C233.563 254.874 233.674 254.227 233.674 253.474C233.674 252.741 233.565 252.094 233.348 251.536C233.13 250.977 232.81 250.541 232.389 250.229C231.967 249.911 231.446 249.753 230.826 249.753C230.187 249.753 229.654 249.919 229.228 250.25C228.802 250.577 228.48 251.022 228.262 251.585C228.049 252.149 227.943 252.778 227.943 253.474C227.943 254.189 228.052 254.817 228.269 255.357C228.487 255.896 228.809 256.318 229.235 256.621C229.666 256.924 230.196 257.075 230.826 257.075ZM246.192 250.754L244.267 251.095C244.187 250.849 244.059 250.615 243.884 250.392C243.713 250.17 243.481 249.987 243.188 249.845C242.894 249.703 242.527 249.632 242.087 249.632C241.486 249.632 240.984 249.767 240.581 250.037C240.179 250.302 239.978 250.645 239.978 251.067C239.978 251.431 240.113 251.725 240.382 251.947C240.652 252.17 241.088 252.352 241.689 252.494L243.422 252.892C244.426 253.124 245.174 253.482 245.667 253.964C246.159 254.447 246.405 255.075 246.405 255.847C246.405 256.5 246.216 257.082 245.837 257.594C245.463 258.1 244.94 258.498 244.267 258.787C243.6 259.076 242.826 259.22 241.945 259.22C240.723 259.22 239.727 258.96 238.955 258.439C238.183 257.913 237.71 257.168 237.534 256.202L239.587 255.889C239.715 256.424 239.978 256.829 240.375 257.104C240.773 257.374 241.292 257.509 241.931 257.509C242.627 257.509 243.183 257.364 243.6 257.075C244.016 256.782 244.225 256.424 244.225 256.003C244.225 255.662 244.097 255.375 243.841 255.143C243.59 254.911 243.204 254.736 242.684 254.618L240.837 254.213C239.819 253.981 239.066 253.612 238.578 253.105C238.096 252.598 237.854 251.957 237.854 251.18C237.854 250.536 238.034 249.973 238.394 249.49C238.754 249.007 239.251 248.631 239.885 248.361C240.52 248.086 241.247 247.949 242.066 247.949C243.245 247.949 244.173 248.205 244.85 248.716C245.527 249.223 245.974 249.902 246.192 250.754Z" fill="white"/>
<path d="M60.8537 215.114H63.2401L64.6534 216.946L65.6619 218.139L68.0838 221.25H65.527L63.8793 219.162L63.1761 218.168L60.8537 215.114ZM68.4318 212.727C68.4318 214.295 68.1383 215.637 67.5511 216.754C66.9688 217.867 66.1733 218.719 65.1648 219.311C64.161 219.903 63.0223 220.199 61.7486 220.199C60.4749 220.199 59.3338 219.903 58.3253 219.311C57.3215 218.714 56.526 217.86 55.9389 216.747C55.3565 215.63 55.0653 214.29 55.0653 212.727C55.0653 211.16 55.3565 209.82 55.9389 208.707C56.526 207.59 57.3215 206.735 58.3253 206.143C59.3338 205.552 60.4749 205.256 61.7486 205.256C63.0223 205.256 64.161 205.552 65.1648 206.143C66.1733 206.735 66.9688 207.59 67.5511 208.707C68.1383 209.82 68.4318 211.16 68.4318 212.727ZM65.7827 212.727C65.7827 211.624 65.6098 210.694 65.2642 209.936C64.9233 209.174 64.4498 208.598 63.8438 208.21C63.2377 207.817 62.5393 207.621 61.7486 207.621C60.9579 207.621 60.2595 207.817 59.6534 208.21C59.0473 208.598 58.5715 209.174 58.2259 209.936C57.8849 210.694 57.7145 211.624 57.7145 212.727C57.7145 213.83 57.8849 214.763 58.2259 215.526C58.5715 216.283 59.0473 216.858 59.6534 217.251C60.2595 217.64 60.9579 217.834 61.7486 217.834C62.5393 217.834 63.2377 217.64 63.8438 217.251C64.4498 216.858 64.9233 216.283 65.2642 215.526C65.6098 214.763 65.7827 213.83 65.7827 212.727ZM74.5754 220.213C73.5811 220.213 72.7265 220.033 72.0115 219.673C71.2965 219.313 70.7449 218.828 70.3567 218.217C69.9732 217.602 69.7814 216.908 69.7814 216.136C69.7814 215.554 69.8998 215.038 70.1365 214.588C70.378 214.138 70.7094 213.722 71.1308 213.338C71.557 212.955 72.0494 212.573 72.6081 212.195L75.1862 210.44C75.565 210.194 75.8515 209.934 76.0456 209.659C76.2445 209.384 76.3439 209.062 76.3439 208.693C76.3439 208.381 76.2113 208.085 75.9462 207.805C75.6857 207.526 75.3259 207.386 74.8666 207.386C74.5589 207.386 74.2866 207.46 74.0499 207.607C73.8179 207.749 73.6356 207.936 73.503 208.168C73.3751 208.4 73.3112 208.646 73.3112 208.906C73.3112 209.223 73.3988 209.545 73.574 209.872C73.7539 210.199 73.9859 210.537 74.27 210.888C74.5589 211.238 74.8666 211.61 75.1933 212.003L82.0186 220H79.2345L73.5669 213.509C73.1455 213.016 72.7383 212.531 72.3453 212.053C71.9571 211.574 71.6375 211.077 71.3865 210.561C71.1403 210.04 71.0172 209.477 71.0172 208.871C71.0172 208.184 71.1758 207.571 71.493 207.031C71.8103 206.487 72.253 206.058 72.8212 205.746C73.3941 205.433 74.0641 205.277 74.8311 205.277C75.5982 205.277 76.2563 205.429 76.8055 205.732C77.3548 206.035 77.7786 206.437 78.0768 206.939C78.3751 207.441 78.5243 207.988 78.5243 208.58C78.5243 209.266 78.3538 209.882 78.0129 210.426C77.672 210.966 77.1985 211.456 76.5925 211.896L73.6521 214.048C73.1692 214.399 72.8235 214.754 72.6152 215.114C72.4069 215.469 72.3027 215.772 72.3027 216.023C72.3027 216.406 72.3998 216.754 72.5939 217.067C72.788 217.379 73.0603 217.63 73.4107 217.82C73.7658 218.004 74.1801 218.097 74.6536 218.097C75.1744 218.097 75.6881 217.981 76.1947 217.749C76.7014 217.512 77.163 217.176 77.5797 216.74C77.9964 216.304 78.3278 215.784 78.574 215.178C78.8202 214.567 78.9433 213.89 78.9433 213.146H81.1521C81.1521 214.065 81.0503 214.865 80.8467 215.547C80.6431 216.224 80.3804 216.797 80.0584 217.266C79.7364 217.73 79.3955 218.101 79.0357 218.381C78.922 218.461 78.8131 218.542 78.7089 218.622C78.6048 218.703 78.4959 218.783 78.3822 218.864C77.8709 219.328 77.2719 219.669 76.5854 219.886C75.9036 220.104 75.2336 220.213 74.5754 220.213ZM84.8721 220H82.0596L87.1803 205.455H90.4332L95.561 220H92.7485L88.8636 208.438H88.7499L84.8721 220ZM84.9644 214.297H92.6349V216.413H84.9644V214.297Z" fill="#FF713B"/>
<path d="M109.737 211.754L107.813 212.095C107.732 211.849 107.604 211.615 107.429 211.392C107.259 211.17 107.027 210.987 106.733 210.845C106.44 210.703 106.073 210.632 105.632 210.632C105.031 210.632 104.529 210.767 104.127 211.037C103.724 211.302 103.523 211.645 103.523 212.067C103.523 212.431 103.658 212.725 103.928 212.947C104.198 213.17 104.633 213.352 105.235 213.494L106.968 213.892C107.971 214.124 108.719 214.482 109.212 214.964C109.704 215.447 109.95 216.075 109.95 216.847C109.95 217.5 109.761 218.082 109.382 218.594C109.008 219.1 108.485 219.498 107.813 219.787C107.145 220.076 106.371 220.22 105.49 220.22C104.269 220.22 103.272 219.96 102.5 219.439C101.728 218.913 101.255 218.168 101.08 217.202L103.132 216.889C103.26 217.424 103.523 217.829 103.921 218.104C104.318 218.374 104.837 218.509 105.476 218.509C106.172 218.509 106.728 218.364 107.145 218.075C107.562 217.782 107.77 217.424 107.77 217.003C107.77 216.662 107.642 216.375 107.387 216.143C107.136 215.911 106.75 215.736 106.229 215.618L104.382 215.213C103.364 214.981 102.611 214.612 102.124 214.105C101.641 213.598 101.399 212.957 101.399 212.18C101.399 211.536 101.579 210.973 101.939 210.49C102.299 210.007 102.796 209.631 103.431 209.361C104.065 209.086 104.792 208.949 105.611 208.949C106.79 208.949 107.718 209.205 108.395 209.716C109.072 210.223 109.52 210.902 109.737 211.754ZM116.387 220.22C115.312 220.22 114.387 219.991 113.61 219.531C112.838 219.067 112.242 218.416 111.82 217.578C111.404 216.735 111.195 215.748 111.195 214.616C111.195 213.499 111.404 212.514 111.82 211.662C112.242 210.81 112.829 210.144 113.582 209.666C114.339 209.188 115.225 208.949 116.238 208.949C116.853 208.949 117.45 209.051 118.028 209.254C118.605 209.458 119.124 209.777 119.583 210.213C120.042 210.649 120.405 211.214 120.67 211.911C120.935 212.602 121.067 213.442 121.067 214.432V215.185H112.396V213.594H118.987C118.987 213.035 118.873 212.54 118.646 212.109C118.418 211.674 118.099 211.33 117.687 211.08C117.28 210.829 116.801 210.703 116.252 210.703C115.656 210.703 115.135 210.85 114.69 211.143C114.249 211.432 113.908 211.811 113.667 212.28C113.43 212.744 113.312 213.248 113.312 213.793V215.036C113.312 215.765 113.44 216.385 113.695 216.896C113.956 217.408 114.318 217.798 114.782 218.068C115.246 218.333 115.788 218.466 116.408 218.466C116.811 218.466 117.178 218.409 117.509 218.295C117.841 218.177 118.127 218.002 118.369 217.77C118.61 217.538 118.795 217.251 118.923 216.911L120.933 217.273C120.772 217.865 120.483 218.383 120.066 218.828C119.654 219.268 119.136 219.612 118.511 219.858C117.89 220.099 117.183 220.22 116.387 220.22ZM127.916 209.091V210.795H121.957V209.091H127.916ZM123.555 206.477H125.679V216.797C125.679 217.209 125.74 217.519 125.863 217.727C125.987 217.931 126.145 218.071 126.339 218.146C126.538 218.217 126.754 218.253 126.986 218.253C127.156 218.253 127.305 218.241 127.433 218.217C127.561 218.194 127.66 218.175 127.731 218.161L128.115 219.915C127.992 219.962 127.817 220.009 127.589 220.057C127.362 220.109 127.078 220.137 126.737 220.142C126.178 220.152 125.657 220.052 125.175 219.844C124.692 219.635 124.301 219.313 124.003 218.878C123.704 218.442 123.555 217.895 123.555 217.237V206.477ZM134.757 209.091V210.795H128.799V209.091H134.757ZM130.397 206.477H132.52V216.797C132.52 217.209 132.582 217.519 132.705 217.727C132.828 217.931 132.987 218.071 133.181 218.146C133.38 218.217 133.595 218.253 133.827 218.253C133.997 218.253 134.147 218.241 134.274 218.217C134.402 218.194 134.502 218.175 134.573 218.161L134.956 219.915C134.833 219.962 134.658 220.009 134.431 220.057C134.203 220.109 133.919 220.137 133.578 220.142C133.02 220.152 132.499 220.052 132.016 219.844C131.533 219.635 131.142 219.313 130.844 218.878C130.546 218.442 130.397 217.895 130.397 217.237V206.477ZM136.506 220V209.091H138.63V220H136.506ZM137.579 207.408C137.21 207.408 136.892 207.285 136.627 207.038C136.367 206.787 136.237 206.489 136.237 206.143C136.237 205.793 136.367 205.495 136.627 205.249C136.892 204.998 137.21 204.872 137.579 204.872C137.948 204.872 138.263 204.998 138.524 205.249C138.789 205.495 138.921 205.793 138.921 206.143C138.921 206.489 138.789 206.787 138.524 207.038C138.263 207.285 137.948 207.408 137.579 207.408ZM143.011 213.523V220H140.887V209.091H142.925V210.866H143.06C143.311 210.289 143.704 209.825 144.239 209.474C144.779 209.124 145.458 208.949 146.278 208.949C147.021 208.949 147.672 209.105 148.231 209.418C148.789 209.725 149.223 210.185 149.53 210.795C149.838 211.406 149.992 212.161 149.992 213.061V220H147.868V213.317C147.868 212.526 147.662 211.908 147.251 211.463C146.839 211.013 146.273 210.788 145.553 210.788C145.061 210.788 144.623 210.895 144.239 211.108C143.86 211.321 143.56 211.634 143.337 212.045C143.119 212.453 143.011 212.945 143.011 213.523ZM156.814 224.318C155.947 224.318 155.202 224.205 154.577 223.977C153.956 223.75 153.45 223.449 153.057 223.075C152.664 222.701 152.37 222.292 152.176 221.847L154.001 221.094C154.129 221.302 154.3 221.522 154.513 221.754C154.731 221.991 155.024 222.192 155.393 222.358C155.768 222.524 156.248 222.607 156.835 222.607C157.64 222.607 158.305 222.41 158.831 222.017C159.357 221.629 159.619 221.009 159.619 220.156V218.011H159.484C159.357 218.243 159.172 218.501 158.93 218.786C158.694 219.07 158.367 219.316 157.95 219.524C157.534 219.732 156.991 219.837 156.324 219.837C155.462 219.837 154.686 219.635 153.994 219.233C153.308 218.826 152.763 218.227 152.361 217.436C151.963 216.641 151.764 215.663 151.764 214.503C151.764 213.343 151.961 212.348 152.354 211.52C152.751 210.691 153.296 210.057 153.987 209.616C154.679 209.171 155.462 208.949 156.338 208.949C157.015 208.949 157.562 209.062 157.979 209.29C158.395 209.512 158.72 209.773 158.952 210.071C159.188 210.369 159.371 210.632 159.499 210.859H159.655V209.091H161.736V220.241C161.736 221.179 161.518 221.948 161.082 222.55C160.647 223.151 160.057 223.596 159.314 223.885C158.575 224.174 157.742 224.318 156.814 224.318ZM156.793 218.075C157.403 218.075 157.92 217.933 158.341 217.649C158.767 217.36 159.089 216.948 159.307 216.413C159.529 215.874 159.641 215.227 159.641 214.474C159.641 213.741 159.532 213.094 159.314 212.536C159.096 211.977 158.777 211.541 158.355 211.229C157.934 210.911 157.413 210.753 156.793 210.753C156.153 210.753 155.621 210.919 155.195 211.25C154.768 211.577 154.446 212.022 154.229 212.585C154.016 213.149 153.909 213.778 153.909 214.474C153.909 215.189 154.018 215.817 154.236 216.357C154.454 216.896 154.776 217.318 155.202 217.621C155.633 217.924 156.163 218.075 156.793 218.075ZM172.159 211.754L170.234 212.095C170.153 211.849 170.025 211.615 169.85 211.392C169.68 211.17 169.448 210.987 169.154 210.845C168.861 210.703 168.494 210.632 168.053 210.632C167.452 210.632 166.95 210.767 166.548 211.037C166.145 211.302 165.944 211.645 165.944 212.067C165.944 212.431 166.079 212.725 166.349 212.947C166.619 213.17 167.054 213.352 167.656 213.494L169.389 213.892C170.392 214.124 171.141 214.482 171.633 214.964C172.125 215.447 172.372 216.075 172.372 216.847C172.372 217.5 172.182 218.082 171.803 218.594C171.429 219.1 170.906 219.498 170.234 219.787C169.566 220.076 168.792 220.22 167.911 220.22C166.69 220.22 165.693 219.96 164.921 219.439C164.15 218.913 163.676 218.168 163.501 217.202L165.553 216.889C165.681 217.424 165.944 217.829 166.342 218.104C166.739 218.374 167.258 218.509 167.897 218.509C168.593 218.509 169.15 218.364 169.566 218.075C169.983 217.782 170.191 217.424 170.191 217.003C170.191 216.662 170.063 216.375 169.808 216.143C169.557 215.911 169.171 215.736 168.65 215.618L166.803 215.213C165.785 214.981 165.033 214.612 164.545 214.105C164.062 213.598 163.82 212.957 163.82 212.18C163.82 211.536 164 210.973 164.36 210.49C164.72 210.007 165.217 209.631 165.852 209.361C166.486 209.086 167.213 208.949 168.032 208.949C169.211 208.949 170.139 209.205 170.816 209.716C171.493 210.223 171.941 210.902 172.159 211.754Z" fill="white"/>
<path d="M55.4347 180V165.455H60.8892C62.0066 165.455 62.9441 165.663 63.7017 166.08C64.464 166.496 65.0393 167.069 65.4276 167.798C65.8205 168.523 66.017 169.347 66.017 170.27C66.017 171.203 65.8205 172.031 65.4276 172.756C65.0346 173.48 64.4545 174.051 63.6875 174.467C62.9205 174.879 61.9759 175.085 60.8537 175.085H57.2386V172.919H60.4986C61.152 172.919 61.687 172.805 62.1037 172.578C62.5204 172.351 62.8281 172.038 63.027 171.641C63.2306 171.243 63.3324 170.786 63.3324 170.27C63.3324 169.754 63.2306 169.299 63.027 168.906C62.8281 168.513 62.518 168.208 62.0966 167.99C61.6799 167.768 61.1425 167.656 60.4844 167.656H58.0696V180H55.4347ZM70.536 180.22C69.8447 180.22 69.2221 180.097 68.6681 179.851C68.1189 179.6 67.6833 179.231 67.3613 178.743C67.0441 178.255 66.8854 177.654 66.8854 176.939C66.8854 176.323 66.9991 175.814 67.2263 175.412C67.4536 175.009 67.7638 174.688 68.1567 174.446C68.5497 174.205 68.9924 174.022 69.4849 173.899C69.982 173.771 70.4958 173.679 71.0261 173.622C71.6653 173.556 72.1837 173.497 72.5815 173.445C72.9792 173.388 73.268 173.303 73.4479 173.189C73.6326 173.071 73.7249 172.888 73.7249 172.642V172.599C73.7249 172.064 73.5663 171.65 73.2491 171.357C72.9318 171.063 72.4749 170.916 71.8783 170.916C71.2486 170.916 70.7491 171.054 70.3798 171.328C70.0152 171.603 69.769 171.927 69.6411 172.301L67.2406 171.96C67.4299 171.297 67.7424 170.743 68.1781 170.298C68.6137 169.848 69.1463 169.512 69.7761 169.29C70.4058 169.062 71.1018 168.949 71.8641 168.949C72.3897 168.949 72.9129 169.01 73.4337 169.134C73.9546 169.257 74.4304 169.46 74.8613 169.744C75.2922 170.024 75.6378 170.405 75.8982 170.888C76.1634 171.371 76.296 171.974 76.296 172.699V180H73.8244V178.501H73.7391C73.5829 178.804 73.3627 179.089 73.0786 179.354C72.7993 179.614 72.4465 179.825 72.0204 179.986C71.599 180.142 71.1042 180.22 70.536 180.22ZM71.2036 178.331C71.7197 178.331 72.1672 178.229 72.546 178.026C72.9247 177.817 73.2159 177.543 73.4195 177.202C73.6279 176.861 73.732 176.489 73.732 176.087V174.801C73.6515 174.867 73.5142 174.929 73.3201 174.986C73.1307 175.043 72.9176 175.092 72.6809 175.135C72.4442 175.178 72.2098 175.215 71.9778 175.249C71.7458 175.282 71.5445 175.31 71.3741 175.334C70.9906 175.386 70.6473 175.471 70.3442 175.589C70.0412 175.708 69.8021 175.874 69.6269 176.087C69.4517 176.295 69.3641 176.565 69.3641 176.896C69.3641 177.37 69.537 177.727 69.8826 177.969C70.2282 178.21 70.6686 178.331 71.2036 178.331ZM78.2812 180V169.091H80.7741V170.909H80.8877C81.0866 170.279 81.4275 169.794 81.9104 169.453C82.3981 169.107 82.9545 168.935 83.5795 168.935C83.7215 168.935 83.8801 168.942 84.0553 168.956C84.2353 168.965 84.3844 168.982 84.5028 169.006V171.371C84.3939 171.333 84.221 171.3 83.9843 171.271C83.7523 171.238 83.5274 171.222 83.3096 171.222C82.8408 171.222 82.4194 171.323 82.0454 171.527C81.6761 171.726 81.3849 172.003 81.1718 172.358C80.9587 172.713 80.8522 173.123 80.8522 173.587V180H78.2812ZM91.6442 169.091V171.08H85.3729V169.091H91.6442ZM86.9212 166.477H89.4923V176.719C89.4923 177.064 89.5443 177.33 89.6485 177.514C89.7574 177.694 89.8995 177.817 90.0746 177.884C90.2498 177.95 90.444 177.983 90.657 177.983C90.818 177.983 90.9648 177.971 91.0974 177.947C91.2347 177.924 91.3389 177.902 91.4099 177.884L91.8431 179.893C91.7058 179.941 91.5093 179.993 91.2536 180.05C91.0027 180.107 90.6949 180.14 90.3303 180.149C89.6864 180.168 89.1064 180.071 88.5903 179.858C88.0742 179.64 87.6646 179.304 87.3616 178.849C87.0633 178.395 86.9165 177.827 86.9212 177.145V166.477ZM95.7655 173.608V180H93.1945V169.091H95.6518V170.945H95.7797C96.0306 170.334 96.4307 169.848 96.98 169.489C97.5339 169.129 98.2181 168.949 99.0325 168.949C99.7854 168.949 100.441 169.11 101 169.432C101.563 169.754 101.999 170.22 102.307 170.831C102.619 171.442 102.773 172.183 102.768 173.054V180H100.197V173.452C100.197 172.723 100.008 172.152 99.6291 171.74C99.2551 171.328 98.7366 171.122 98.0737 171.122C97.6239 171.122 97.2238 171.222 96.8734 171.42C96.5278 171.615 96.2555 171.896 96.0567 172.266C95.8625 172.635 95.7655 173.082 95.7655 173.608ZM109.612 180.213C108.518 180.213 107.573 179.986 106.778 179.531C105.987 179.072 105.379 178.423 104.952 177.585C104.526 176.742 104.313 175.75 104.313 174.609C104.313 173.487 104.526 172.502 104.952 171.655C105.383 170.803 105.985 170.14 106.756 169.666C107.528 169.188 108.435 168.949 109.477 168.949C110.149 168.949 110.783 169.058 111.38 169.276C111.981 169.489 112.512 169.82 112.971 170.27C113.435 170.72 113.799 171.293 114.065 171.989C114.33 172.68 114.462 173.504 114.462 174.46V175.249H105.521V173.516H111.998C111.993 173.023 111.887 172.585 111.678 172.202C111.47 171.813 111.179 171.508 110.805 171.286C110.435 171.063 110.004 170.952 109.512 170.952C108.987 170.952 108.525 171.08 108.127 171.335C107.729 171.586 107.419 171.918 107.197 172.33C106.979 172.737 106.868 173.184 106.863 173.672V175.185C106.863 175.819 106.979 176.364 107.211 176.818C107.443 177.268 107.767 177.614 108.184 177.855C108.601 178.092 109.088 178.21 109.647 178.21C110.021 178.21 110.36 178.158 110.663 178.054C110.966 177.945 111.228 177.786 111.451 177.578C111.674 177.37 111.842 177.112 111.955 176.804L114.356 177.074C114.204 177.708 113.915 178.262 113.489 178.736C113.068 179.205 112.528 179.569 111.87 179.83C111.212 180.085 110.459 180.213 109.612 180.213ZM116.037 180V169.091H118.53V170.909H118.644C118.843 170.279 119.184 169.794 119.667 169.453C120.154 169.107 120.711 168.935 121.336 168.935C121.478 168.935 121.636 168.942 121.812 168.956C121.992 168.965 122.141 168.982 122.259 169.006V171.371C122.15 171.333 121.977 171.3 121.741 171.271C121.509 171.238 121.284 171.222 121.066 171.222C120.597 171.222 120.176 171.323 119.802 171.527C119.432 171.726 119.141 172.003 118.928 172.358C118.715 172.713 118.608 173.123 118.608 173.587V180H116.037ZM131.989 171.974L129.646 172.23C129.579 171.993 129.463 171.771 129.298 171.562C129.137 171.354 128.919 171.186 128.644 171.058C128.369 170.93 128.033 170.866 127.636 170.866C127.101 170.866 126.651 170.982 126.286 171.214C125.926 171.446 125.749 171.747 125.753 172.116C125.749 172.434 125.865 172.692 126.101 172.891C126.343 173.089 126.741 173.253 127.295 173.381L129.155 173.778C130.188 174.001 130.955 174.354 131.457 174.837C131.963 175.32 132.219 175.952 132.224 176.733C132.219 177.42 132.018 178.026 131.62 178.551C131.227 179.072 130.68 179.479 129.979 179.773C129.279 180.066 128.474 180.213 127.565 180.213C126.229 180.213 125.155 179.934 124.34 179.375C123.526 178.812 123.04 178.028 122.884 177.024L125.391 176.783C125.505 177.275 125.746 177.647 126.116 177.898C126.485 178.149 126.966 178.274 127.557 178.274C128.168 178.274 128.658 178.149 129.028 177.898C129.402 177.647 129.589 177.337 129.589 176.967C129.589 176.655 129.468 176.397 129.226 176.193C128.99 175.99 128.62 175.833 128.119 175.724L126.258 175.334C125.211 175.116 124.437 174.749 123.935 174.233C123.433 173.712 123.185 173.054 123.19 172.259C123.185 171.586 123.367 171.004 123.736 170.511C124.11 170.014 124.629 169.631 125.292 169.361C125.959 169.086 126.729 168.949 127.6 168.949C128.878 168.949 129.885 169.221 130.619 169.766C131.357 170.31 131.814 171.046 131.989 171.974Z" fill="#FF713B"/>
<path d="M146.718 171.754L144.793 172.095C144.713 171.849 144.585 171.615 144.41 171.392C144.239 171.17 144.007 170.987 143.714 170.845C143.42 170.703 143.053 170.632 142.613 170.632C142.011 170.632 141.51 170.767 141.107 171.037C140.705 171.302 140.503 171.645 140.503 172.067C140.503 172.431 140.638 172.725 140.908 172.947C141.178 173.17 141.614 173.352 142.215 173.494L143.948 173.892C144.952 174.124 145.7 174.482 146.192 174.964C146.685 175.447 146.931 176.075 146.931 176.847C146.931 177.5 146.742 178.082 146.363 178.594C145.989 179.1 145.466 179.498 144.793 179.787C144.126 180.076 143.351 180.22 142.471 180.22C141.249 180.22 140.252 179.96 139.481 179.439C138.709 178.913 138.235 178.168 138.06 177.202L140.113 176.889C140.241 177.424 140.503 177.829 140.901 178.104C141.299 178.374 141.817 178.509 142.457 178.509C143.153 178.509 143.709 178.364 144.126 178.075C144.542 177.782 144.751 177.424 144.751 177.003C144.751 176.662 144.623 176.375 144.367 176.143C144.116 175.911 143.73 175.736 143.209 175.618L141.363 175.213C140.345 174.981 139.592 174.612 139.104 174.105C138.621 173.598 138.38 172.957 138.38 172.18C138.38 171.536 138.56 170.973 138.92 170.49C139.279 170.007 139.777 169.631 140.411 169.361C141.046 169.086 141.772 168.949 142.591 168.949C143.77 168.949 144.698 169.205 145.376 169.716C146.053 170.223 146.5 170.902 146.718 171.754ZM153.368 180.22C152.293 180.22 151.367 179.991 150.591 179.531C149.819 179.067 149.222 178.416 148.801 177.578C148.384 176.735 148.176 175.748 148.176 174.616C148.176 173.499 148.384 172.514 148.801 171.662C149.222 170.81 149.809 170.144 150.562 169.666C151.32 169.188 152.205 168.949 153.218 168.949C153.834 168.949 154.431 169.051 155.008 169.254C155.586 169.458 156.104 169.777 156.564 170.213C157.023 170.649 157.385 171.214 157.65 171.911C157.915 172.602 158.048 173.442 158.048 174.432V175.185H149.376V173.594H155.967C155.967 173.035 155.853 172.54 155.626 172.109C155.399 171.674 155.079 171.33 154.667 171.08C154.26 170.829 153.782 170.703 153.233 170.703C152.636 170.703 152.115 170.85 151.67 171.143C151.23 171.432 150.889 171.811 150.647 172.28C150.411 172.744 150.292 173.248 150.292 173.793V175.036C150.292 175.765 150.42 176.385 150.676 176.896C150.936 177.408 151.298 177.798 151.762 178.068C152.226 178.333 152.769 178.466 153.389 178.466C153.791 178.466 154.158 178.409 154.49 178.295C154.821 178.177 155.108 178.002 155.349 177.77C155.591 177.538 155.775 177.251 155.903 176.911L157.913 177.273C157.752 177.865 157.463 178.383 157.047 178.828C156.635 179.268 156.116 179.612 155.491 179.858C154.871 180.099 154.163 180.22 153.368 180.22ZM164.896 169.091V170.795H158.938V169.091H164.896ZM160.536 166.477H162.659V176.797C162.659 177.209 162.721 177.519 162.844 177.727C162.967 177.931 163.126 178.071 163.32 178.146C163.519 178.217 163.734 178.253 163.966 178.253C164.137 178.253 164.286 178.241 164.413 178.217C164.541 178.194 164.641 178.175 164.712 178.161L165.095 179.915C164.972 179.962 164.797 180.009 164.57 180.057C164.342 180.109 164.058 180.137 163.717 180.142C163.159 180.152 162.638 180.052 162.155 179.844C161.672 179.635 161.281 179.313 160.983 178.878C160.685 178.442 160.536 177.895 160.536 177.237V166.477ZM171.738 169.091V170.795H165.779V169.091H171.738ZM167.377 166.477H169.501V176.797C169.501 177.209 169.562 177.519 169.685 177.727C169.808 177.931 169.967 178.071 170.161 178.146C170.36 178.217 170.575 178.253 170.807 178.253C170.978 178.253 171.127 178.241 171.255 178.217C171.383 178.194 171.482 178.175 171.553 178.161L171.937 179.915C171.814 179.962 171.638 180.009 171.411 180.057C171.184 180.109 170.9 180.137 170.559 180.142C170 180.152 169.479 180.052 168.996 179.844C168.513 179.635 168.123 179.313 167.825 178.878C167.526 178.442 167.377 177.895 167.377 177.237V166.477ZM173.487 180V169.091H175.611V180H173.487ZM174.559 167.408C174.19 167.408 173.873 167.285 173.608 167.038C173.347 166.787 173.217 166.489 173.217 166.143C173.217 165.793 173.347 165.495 173.608 165.249C173.873 164.998 174.19 164.872 174.559 164.872C174.929 164.872 175.244 164.998 175.504 165.249C175.769 165.495 175.902 165.793 175.902 166.143C175.902 166.489 175.769 166.787 175.504 167.038C175.244 167.285 174.929 167.408 174.559 167.408ZM179.991 173.523V180H177.867V169.091H179.906V170.866H180.041C180.292 170.289 180.685 169.825 181.22 169.474C181.759 169.124 182.439 168.949 183.258 168.949C184.001 168.949 184.652 169.105 185.211 169.418C185.77 169.725 186.203 170.185 186.511 170.795C186.819 171.406 186.973 172.161 186.973 173.061V180H184.849V173.317C184.849 172.526 184.643 171.908 184.231 171.463C183.819 171.013 183.253 170.788 182.534 170.788C182.041 170.788 181.603 170.895 181.22 171.108C180.841 171.321 180.54 171.634 180.318 172.045C180.1 172.453 179.991 172.945 179.991 173.523ZM193.794 184.318C192.928 184.318 192.182 184.205 191.557 183.977C190.937 183.75 190.43 183.449 190.037 183.075C189.644 182.701 189.351 182.292 189.157 181.847L190.982 181.094C191.11 181.302 191.28 181.522 191.493 181.754C191.711 181.991 192.005 182.192 192.374 182.358C192.748 182.524 193.229 182.607 193.816 182.607C194.621 182.607 195.286 182.41 195.811 182.017C196.337 181.629 196.6 181.009 196.6 180.156V178.011H196.465C196.337 178.243 196.152 178.501 195.911 178.786C195.674 179.07 195.347 179.316 194.931 179.524C194.514 179.732 193.972 179.837 193.304 179.837C192.443 179.837 191.666 179.635 190.975 179.233C190.288 178.826 189.744 178.227 189.341 177.436C188.944 176.641 188.745 175.663 188.745 174.503C188.745 173.343 188.941 172.348 189.334 171.52C189.732 170.691 190.276 170.057 190.968 169.616C191.659 169.171 192.443 168.949 193.319 168.949C193.996 168.949 194.542 169.062 194.959 169.29C195.376 169.512 195.7 169.773 195.932 170.071C196.169 170.369 196.351 170.632 196.479 170.859H196.635V169.091H198.716V180.241C198.716 181.179 198.498 181.948 198.063 182.55C197.627 183.151 197.038 183.596 196.294 183.885C195.556 184.174 194.722 184.318 193.794 184.318ZM193.773 178.075C194.384 178.075 194.9 177.933 195.321 177.649C195.748 177.36 196.069 176.948 196.287 176.413C196.51 175.874 196.621 175.227 196.621 174.474C196.621 173.741 196.512 173.094 196.294 172.536C196.077 171.977 195.757 171.541 195.336 171.229C194.914 170.911 194.393 170.753 193.773 170.753C193.134 170.753 192.601 170.919 192.175 171.25C191.749 171.577 191.427 172.022 191.209 172.585C190.996 173.149 190.89 173.778 190.89 174.474C190.89 175.189 190.998 175.817 191.216 176.357C191.434 176.896 191.756 177.318 192.182 177.621C192.613 177.924 193.143 178.075 193.773 178.075ZM209.139 171.754L207.214 172.095C207.134 171.849 207.006 171.615 206.831 171.392C206.66 171.17 206.428 170.987 206.135 170.845C205.841 170.703 205.474 170.632 205.034 170.632C204.433 170.632 203.931 170.767 203.528 171.037C203.126 171.302 202.924 171.645 202.924 172.067C202.924 172.431 203.059 172.725 203.329 172.947C203.599 173.17 204.035 173.352 204.636 173.494L206.369 173.892C207.373 174.124 208.121 174.482 208.613 174.964C209.106 175.447 209.352 176.075 209.352 176.847C209.352 177.5 209.163 178.082 208.784 178.594C208.41 179.1 207.887 179.498 207.214 179.787C206.547 180.076 205.773 180.22 204.892 180.22C203.67 180.22 202.674 179.96 201.902 179.439C201.13 178.913 200.657 178.168 200.481 177.202L202.534 176.889C202.662 177.424 202.924 177.829 203.322 178.104C203.72 178.374 204.238 178.509 204.878 178.509C205.574 178.509 206.13 178.364 206.547 178.075C206.963 177.782 207.172 177.424 207.172 177.003C207.172 176.662 207.044 176.375 206.788 176.143C206.537 175.911 206.151 175.736 205.63 175.618L203.784 175.213C202.766 174.981 202.013 174.612 201.525 174.105C201.042 173.598 200.801 172.957 200.801 172.18C200.801 171.536 200.981 170.973 201.341 170.49C201.701 170.007 202.198 169.631 202.832 169.361C203.467 169.086 204.193 168.949 205.013 168.949C206.192 168.949 207.12 169.205 207.797 169.716C208.474 170.223 208.921 170.902 209.139 171.754Z" fill="white"/>
<path d="M54.7955 128.663V126.455H66.4006V128.663H61.9048V141H59.2912V128.663H54.7955ZM69.579 141.22C68.8877 141.22 68.2651 141.097 67.7111 140.851C67.1618 140.6 66.7262 140.231 66.4043 139.743C66.087 139.255 65.9284 138.654 65.9284 137.939C65.9284 137.323 66.042 136.814 66.2693 136.412C66.4966 136.009 66.8067 135.688 67.1997 135.446C67.5927 135.205 68.0354 135.022 68.5278 134.899C69.025 134.771 69.5387 134.679 70.069 134.622C70.7082 134.556 71.2267 134.497 71.6244 134.445C72.0222 134.388 72.311 134.303 72.4909 134.189C72.6756 134.071 72.7679 133.888 72.7679 133.642V133.599C72.7679 133.064 72.6093 132.65 72.292 132.357C71.9748 132.063 71.5179 131.916 70.9213 131.916C70.2916 131.916 69.792 132.054 69.4227 132.328C69.0581 132.603 68.8119 132.927 68.6841 133.301L66.2835 132.96C66.4729 132.297 66.7854 131.743 67.221 131.298C67.6566 130.848 68.1893 130.512 68.819 130.29C69.4488 130.062 70.1448 129.949 70.9071 129.949C71.4327 129.949 71.9559 130.01 72.4767 130.134C72.9975 130.257 73.4734 130.46 73.9043 130.744C74.3351 131.024 74.6808 131.405 74.9412 131.888C75.2063 132.371 75.3389 132.974 75.3389 133.699V141H72.8673V139.501H72.7821C72.6259 139.804 72.4057 140.089 72.1216 140.354C71.8422 140.614 71.4895 140.825 71.0634 140.986C70.642 141.142 70.1472 141.22 69.579 141.22ZM70.2466 139.331C70.7627 139.331 71.2101 139.229 71.5889 139.026C71.9677 138.817 72.2589 138.543 72.4625 138.202C72.6708 137.861 72.775 137.489 72.775 137.087V135.801C72.6945 135.867 72.5572 135.929 72.3631 135.986C72.1737 136.043 71.9606 136.092 71.7239 136.135C71.4871 136.178 71.2527 136.215 71.0207 136.249C70.7887 136.282 70.5875 136.31 70.417 136.334C70.0335 136.386 69.6902 136.471 69.3872 136.589C69.0842 136.708 68.8451 136.874 68.6699 137.087C68.4947 137.295 68.4071 137.565 68.4071 137.896C68.4071 138.37 68.5799 138.727 68.9256 138.969C69.2712 139.21 69.7116 139.331 70.2466 139.331ZM85.9463 132.974L83.6026 133.23C83.5363 132.993 83.4203 132.771 83.2545 132.562C83.0936 132.354 82.8758 132.186 82.6011 132.058C82.3265 131.93 81.9903 131.866 81.5926 131.866C81.0576 131.866 80.6078 131.982 80.2432 132.214C79.8833 132.446 79.7058 132.747 79.7105 133.116C79.7058 133.434 79.8218 133.692 80.0585 133.891C80.3 134.089 80.6977 134.253 81.2517 134.381L83.1125 134.778C84.1447 135.001 84.9117 135.354 85.4136 135.837C85.9203 136.32 86.1759 136.952 86.1807 137.733C86.1759 138.42 85.9747 139.026 85.577 139.551C85.184 140.072 84.6371 140.479 83.9364 140.773C83.2356 141.066 82.4307 141.213 81.5216 141.213C80.1864 141.213 79.1116 140.934 78.2972 140.375C77.4828 139.812 76.9974 139.028 76.8412 138.024L79.3483 137.783C79.4619 138.275 79.7034 138.647 80.0727 138.898C80.442 139.149 80.9226 139.274 81.5145 139.274C82.1253 139.274 82.6153 139.149 82.9847 138.898C83.3587 138.647 83.5457 138.337 83.5457 137.967C83.5457 137.655 83.425 137.397 83.1835 137.193C82.9468 136.99 82.5775 136.833 82.0756 136.724L80.2148 136.334C79.1684 136.116 78.3942 135.749 77.8923 135.233C77.3904 134.712 77.1419 134.054 77.1466 133.259C77.1419 132.586 77.3241 132.004 77.6935 131.511C78.0675 131.014 78.586 130.631 79.2489 130.361C79.9165 130.086 80.6859 129.949 81.5571 129.949C82.8355 129.949 83.8417 130.221 84.5756 130.766C85.3142 131.31 85.7711 132.046 85.9463 132.974ZM90.0445 137.577L90.0374 134.473H90.4493L94.3697 130.091H97.374L92.5516 135.46H92.0189L90.0445 137.577ZM87.7007 141V126.455H90.2717V141H87.7007ZM94.5473 141L90.9962 136.036L92.7291 134.224L97.6226 141H94.5473ZM107.11 132.974L104.766 133.23C104.7 132.993 104.584 132.771 104.418 132.562C104.257 132.354 104.039 132.186 103.764 132.058C103.49 131.93 103.154 131.866 102.756 131.866C102.221 131.866 101.771 131.982 101.406 132.214C101.047 132.446 100.869 132.747 100.874 133.116C100.869 133.434 100.985 133.692 101.222 133.891C101.463 134.089 101.861 134.253 102.415 134.381L104.276 134.778C105.308 135.001 106.075 135.354 106.577 135.837C107.084 136.32 107.339 136.952 107.344 137.733C107.339 138.42 107.138 139.026 106.74 139.551C106.347 140.072 105.8 140.479 105.1 140.773C104.399 141.066 103.594 141.213 102.685 141.213C101.35 141.213 100.275 140.934 99.4604 140.375C98.646 139.812 98.1607 139.028 98.0045 138.024L100.512 137.783C100.625 138.275 100.867 138.647 101.236 138.898C101.605 139.149 102.086 139.274 102.678 139.274C103.289 139.274 103.779 139.149 104.148 138.898C104.522 138.647 104.709 138.337 104.709 137.967C104.709 137.655 104.588 137.397 104.347 137.193C104.11 136.99 103.741 136.833 103.239 136.724L101.378 136.334C100.332 136.116 99.5575 135.749 99.0556 135.233C98.5537 134.712 98.3051 134.054 98.3099 133.259C98.3051 132.586 98.4874 132.004 98.8567 131.511C99.2308 131.014 99.7493 130.631 100.412 130.361C101.08 130.086 101.849 129.949 102.72 129.949C103.999 129.949 105.005 130.221 105.739 130.766C106.477 131.31 106.934 132.046 107.11 132.974Z" fill="#FF713B"/>
<path d="M121.838 132.754L119.913 133.095C119.833 132.849 119.705 132.615 119.53 132.392C119.36 132.17 119.128 131.987 118.834 131.845C118.54 131.703 118.173 131.632 117.733 131.632C117.132 131.632 116.63 131.767 116.227 132.037C115.825 132.302 115.624 132.645 115.624 133.067C115.624 133.431 115.759 133.725 116.029 133.947C116.298 134.17 116.734 134.352 117.335 134.494L119.068 134.892C120.072 135.124 120.82 135.482 121.313 135.964C121.805 136.447 122.051 137.075 122.051 137.847C122.051 138.5 121.862 139.082 121.483 139.594C121.109 140.1 120.586 140.498 119.913 140.787C119.246 141.076 118.472 141.22 117.591 141.22C116.369 141.22 115.373 140.96 114.601 140.439C113.829 139.913 113.356 139.168 113.181 138.202L115.233 137.889C115.361 138.424 115.624 138.829 116.021 139.104C116.419 139.374 116.938 139.509 117.577 139.509C118.273 139.509 118.829 139.364 119.246 139.075C119.663 138.782 119.871 138.424 119.871 138.003C119.871 137.662 119.743 137.375 119.487 137.143C119.236 136.911 118.851 136.736 118.33 136.618L116.483 136.213C115.465 135.981 114.712 135.612 114.225 135.105C113.742 134.598 113.5 133.957 113.5 133.18C113.5 132.536 113.68 131.973 114.04 131.49C114.4 131.007 114.897 130.631 115.531 130.361C116.166 130.086 116.893 129.949 117.712 129.949C118.891 129.949 119.819 130.205 120.496 130.716C121.173 131.223 121.62 131.902 121.838 132.754ZM128.488 141.22C127.413 141.22 126.487 140.991 125.711 140.531C124.939 140.067 124.342 139.416 123.921 138.578C123.504 137.735 123.296 136.748 123.296 135.616C123.296 134.499 123.504 133.514 123.921 132.662C124.342 131.81 124.93 131.144 125.682 130.666C126.44 130.188 127.325 129.949 128.339 129.949C128.954 129.949 129.551 130.051 130.128 130.254C130.706 130.458 131.225 130.777 131.684 131.213C132.143 131.649 132.505 132.214 132.771 132.911C133.036 133.602 133.168 134.442 133.168 135.432V136.185H124.496V134.594H131.087C131.087 134.035 130.974 133.54 130.746 133.109C130.519 132.674 130.2 132.33 129.788 132.08C129.38 131.829 128.902 131.703 128.353 131.703C127.756 131.703 127.235 131.85 126.79 132.143C126.35 132.432 126.009 132.811 125.768 133.28C125.531 133.744 125.413 134.248 125.413 134.793V136.036C125.413 136.765 125.54 137.385 125.796 137.896C126.057 138.408 126.419 138.798 126.883 139.068C127.347 139.333 127.889 139.466 128.509 139.466C128.912 139.466 129.279 139.409 129.61 139.295C129.941 139.177 130.228 139.002 130.469 138.77C130.711 138.538 130.896 138.251 131.023 137.911L133.033 138.273C132.872 138.865 132.584 139.383 132.167 139.828C131.755 140.268 131.236 140.612 130.611 140.858C129.991 141.099 129.283 141.22 128.488 141.22ZM140.017 130.091V131.795H134.058V130.091H140.017ZM135.656 127.477H137.78V137.797C137.78 138.209 137.841 138.519 137.964 138.727C138.087 138.931 138.246 139.071 138.44 139.146C138.639 139.217 138.854 139.253 139.086 139.253C139.257 139.253 139.406 139.241 139.534 139.217C139.662 139.194 139.761 139.175 139.832 139.161L140.216 140.915C140.093 140.962 139.917 141.009 139.69 141.057C139.463 141.109 139.179 141.137 138.838 141.142C138.279 141.152 137.758 141.052 137.275 140.844C136.792 140.635 136.402 140.313 136.103 139.878C135.805 139.442 135.656 138.895 135.656 138.237V127.477ZM146.858 130.091V131.795H140.899V130.091H146.858ZM142.497 127.477H144.621V137.797C144.621 138.209 144.683 138.519 144.806 138.727C144.929 138.931 145.087 139.071 145.281 139.146C145.48 139.217 145.696 139.253 145.928 139.253C146.098 139.253 146.247 139.241 146.375 139.217C146.503 139.194 146.602 139.175 146.674 139.161L147.057 140.915C146.934 140.962 146.759 141.009 146.531 141.057C146.304 141.109 146.02 141.137 145.679 141.142C145.12 141.152 144.6 141.052 144.117 140.844C143.634 140.635 143.243 140.313 142.945 139.878C142.647 139.442 142.497 138.895 142.497 138.237V127.477ZM148.607 141V130.091H150.731V141H148.607ZM149.68 128.408C149.31 128.408 148.993 128.285 148.728 128.038C148.468 127.787 148.337 127.489 148.337 127.143C148.337 126.793 148.468 126.495 148.728 126.249C148.993 125.998 149.31 125.872 149.68 125.872C150.049 125.872 150.364 125.998 150.624 126.249C150.889 126.495 151.022 126.793 151.022 127.143C151.022 127.489 150.889 127.787 150.624 128.038C150.364 128.285 150.049 128.408 149.68 128.408ZM155.111 134.523V141H152.988V130.091H155.026V131.866H155.161C155.412 131.289 155.805 130.825 156.34 130.474C156.88 130.124 157.559 129.949 158.378 129.949C159.122 129.949 159.773 130.105 160.331 130.418C160.89 130.725 161.323 131.185 161.631 131.795C161.939 132.406 162.093 133.161 162.093 134.061V141H159.969V134.317C159.969 133.526 159.763 132.908 159.351 132.463C158.939 132.013 158.374 131.788 157.654 131.788C157.161 131.788 156.724 131.895 156.34 132.108C155.961 132.321 155.661 132.634 155.438 133.045C155.22 133.453 155.111 133.945 155.111 134.523ZM168.915 145.318C168.048 145.318 167.302 145.205 166.677 144.977C166.057 144.75 165.551 144.449 165.158 144.075C164.765 143.701 164.471 143.292 164.277 142.847L166.102 142.094C166.23 142.302 166.401 142.522 166.614 142.754C166.831 142.991 167.125 143.192 167.494 143.358C167.868 143.524 168.349 143.607 168.936 143.607C169.741 143.607 170.406 143.41 170.932 143.017C171.457 142.629 171.72 142.009 171.72 141.156V139.011H171.585C171.457 139.243 171.273 139.501 171.031 139.786C170.794 140.07 170.468 140.316 170.051 140.524C169.634 140.732 169.092 140.837 168.425 140.837C167.563 140.837 166.786 140.635 166.095 140.233C165.409 139.826 164.864 139.227 164.462 138.436C164.064 137.641 163.865 136.663 163.865 135.503C163.865 134.343 164.061 133.348 164.454 132.52C164.852 131.691 165.397 131.057 166.088 130.616C166.779 130.171 167.563 129.949 168.439 129.949C169.116 129.949 169.663 130.062 170.079 130.29C170.496 130.512 170.82 130.773 171.052 131.071C171.289 131.369 171.472 131.632 171.599 131.859H171.756V130.091H173.837V141.241C173.837 142.179 173.619 142.948 173.183 143.55C172.748 144.151 172.158 144.596 171.415 144.885C170.676 145.174 169.843 145.318 168.915 145.318ZM168.893 139.075C169.504 139.075 170.02 138.933 170.442 138.649C170.868 138.36 171.19 137.948 171.408 137.413C171.63 136.874 171.741 136.227 171.741 135.474C171.741 134.741 171.633 134.094 171.415 133.536C171.197 132.977 170.877 132.541 170.456 132.229C170.034 131.911 169.514 131.753 168.893 131.753C168.254 131.753 167.722 131.919 167.295 132.25C166.869 132.577 166.547 133.022 166.329 133.585C166.116 134.149 166.01 134.778 166.01 135.474C166.01 136.189 166.119 136.817 166.337 137.357C166.554 137.896 166.876 138.318 167.302 138.621C167.733 138.924 168.264 139.075 168.893 139.075ZM184.259 132.754L182.335 133.095C182.254 132.849 182.126 132.615 181.951 132.392C181.781 132.17 181.549 131.987 181.255 131.845C180.961 131.703 180.595 131.632 180.154 131.632C179.553 131.632 179.051 131.767 178.649 132.037C178.246 132.302 178.045 132.645 178.045 133.067C178.045 133.431 178.18 133.725 178.45 133.947C178.72 134.17 179.155 134.352 179.756 134.494L181.489 134.892C182.493 135.124 183.241 135.482 183.734 135.964C184.226 136.447 184.472 137.075 184.472 137.847C184.472 138.5 184.283 139.082 183.904 139.594C183.53 140.1 183.007 140.498 182.335 140.787C181.667 141.076 180.893 141.22 180.012 141.22C178.791 141.22 177.794 140.96 177.022 140.439C176.25 139.913 175.777 139.168 175.602 138.202L177.654 137.889C177.782 138.424 178.045 138.829 178.443 139.104C178.84 139.374 179.359 139.509 179.998 139.509C180.694 139.509 181.25 139.364 181.667 139.075C182.084 138.782 182.292 138.424 182.292 138.003C182.292 137.662 182.164 137.375 181.908 137.143C181.658 136.911 181.272 136.736 180.751 136.618L178.904 136.213C177.886 135.981 177.133 135.612 176.646 135.105C176.163 134.598 175.921 133.957 175.921 133.18C175.921 132.536 176.101 131.973 176.461 131.49C176.821 131.007 177.318 130.631 177.952 130.361C178.587 130.086 179.314 129.949 180.133 129.949C181.312 129.949 182.24 130.205 182.917 130.716C183.594 131.223 184.041 131.902 184.259 132.754Z" fill="white"/>
</g>
<defs>
<clipPath id="clip0_212_308">
<rect width="394" height="311" rx="20" fill="white"/>
</clipPath>
</defs>
</svg>
