<svg width="1000" height="1000" viewBox="0 0 1000 1000" fill="none" xmlns="http://www.w3.org/2000/svg">
<g clip-path="url(#clip0_275_357)">
<rect width="537.174" height="406.097" rx="15" transform="matrix(0.967313 0.253585 -0.786033 0.618184 396.73 525.896)" fill="#FF713B"/>
<mask id="mask0_275_357" style="mask-type:alpha" maskUnits="userSpaceOnUse" x="392" y="657" width="223" height="117">
<path fill-rule="evenodd" clip-rule="evenodd" d="M472.35 657.999L614.999 701.125L534.649 773.999L391.999 730.873L472.35 657.999Z" fill="white"/>
</mask>
<g mask="url(#mask0_275_357)">
<path fill-rule="evenodd" clip-rule="evenodd" d="M463.325 752.437C424.096 740.577 410.079 714.477 432.376 694.254C454.829 674.322 504.647 667.521 544.031 679.67C583.059 691.712 596.921 717.522 574.423 737.927C552.171 757.677 502.553 764.296 463.325 752.437Z" fill="#0090FF"/>
<path fill-rule="evenodd" clip-rule="evenodd" d="M515.096 713.675L506.528 718.858L525.249 726.461L520.809 728.762L502.445 721.267C498.407 723.204 494.882 725.539 490.688 727.187C486.093 729.198 481.497 731.21 476.746 732.931C470.478 735.166 463.075 735.843 455.697 734.341C451.372 733.519 447.293 732.043 445.49 729.798C444.822 729.11 444.555 728.058 445.158 727.511C445.962 726.782 447.679 726.087 449.151 726.046C450.065 726.079 451.647 726.801 452.516 727.306C452.983 728.176 453.25 729.228 453.16 730.173C453.692 732.277 456.344 733.322 460.403 733.091C465.219 732.604 469.212 731.139 472.492 729.459C479.452 725.733 486.212 722.19 492.816 718.356L493.62 717.628L476.326 710.456L480.052 707.939L498.059 715.326L506.783 710.433L488.263 702.648L492.191 699.949L511.624 707.767C513.543 706.89 514.904 706.086 516.621 705.391C522.02 702.651 527.419 699.911 534.913 698.289C542.406 696.668 549.408 696.356 556.696 698.802C559.906 699.772 562.513 701.289 563.246 703.212C563.402 703.502 563.713 704.082 563.312 704.446C562.508 705.175 561.504 706.086 559.831 706.309C557.802 706.424 556.22 705.703 555.597 704.543C555.13 703.673 555.019 702.911 554.552 702.041C554.019 699.936 551.01 698.784 547.108 699.304C544.32 699.676 541.131 700.412 538.655 701.364C531.94 704.435 525.738 707.904 518.822 711.158L536.83 718.545L532.39 720.847L515.096 713.675Z" fill="white"/>
</g>
<g clip-path="url(#clip1_275_357)">
<path d="M304.858 761.32L273.241 772.226C272.556 772.463 271.849 772.614 271.164 772.67C270.479 772.725 269.831 772.683 269.261 772.547L184.22 752.194C183.815 752.097 183.502 751.908 183.321 751.652C183.14 751.395 183.097 751.081 183.2 750.748C183.302 750.416 183.544 750.079 183.896 749.779C184.248 749.479 184.695 749.23 185.182 749.06L216.779 738.15C217.464 737.912 218.171 737.762 218.856 737.706C219.541 737.651 220.189 737.693 220.759 737.829L305.8 758.182C306.215 758.273 306.537 758.458 306.726 758.715C306.915 758.971 306.963 759.287 306.862 759.623C306.762 759.958 306.517 760.298 306.16 760.6C305.804 760.902 305.351 761.153 304.858 761.32ZM314.468 726.412C314.374 725.99 314.14 725.615 313.78 725.31C313.42 725.005 312.942 724.776 312.374 724.637L227.333 704.284C226.928 704.187 226.447 704.186 225.949 704.281C225.452 704.375 224.96 704.561 224.533 704.816C224.107 705.071 223.764 705.384 223.548 705.716C223.331 706.048 223.25 706.385 223.314 706.686L227.548 726.182C227.642 726.604 227.876 726.979 228.236 727.284C228.596 727.589 229.075 727.818 229.642 727.957L314.683 748.31C315.089 748.405 315.57 748.405 316.066 748.31C316.563 748.215 317.053 748.028 317.478 747.773C317.903 747.518 318.245 747.206 318.459 746.874C318.675 746.543 318.757 746.206 318.692 745.906L314.468 726.412ZM236.217 694.413L321.257 714.766C321.828 714.902 322.476 714.943 323.161 714.888C323.845 714.833 324.552 714.682 325.237 714.445L356.855 703.539C357.347 703.371 357.8 703.121 358.157 702.819C358.514 702.517 358.758 702.177 358.858 701.841C358.96 701.506 358.912 701.19 358.723 700.933C358.534 700.677 358.211 700.492 357.796 700.4L272.756 680.047C272.185 679.911 271.537 679.87 270.853 679.925C270.168 679.98 269.461 680.131 268.776 680.368L237.179 691.279C236.692 691.448 236.244 691.698 235.892 691.998C235.54 692.297 235.298 692.634 235.196 692.967C235.094 693.299 235.136 693.613 235.318 693.87C235.499 694.127 235.811 694.316 236.217 694.413Z" fill="url(#paint0_linear_275_357)"/>
</g>
<line y1="-0.5" x2="296.169" y2="-0.5" transform="matrix(5.92472e-09 0.54232 -1.86471 0.131826 562.592 656.648)" stroke="white" stroke-opacity="0.8"/>
</g>
<rect x="0.18128" y="0.871769" width="535.174" height="404.097" rx="14" transform="matrix(0.967313 0.253585 -0.786033 0.618184 397.422 526.182)" stroke="white" stroke-width="2"/>
<g clip-path="url(#clip2_275_357)">
<path d="M762.342 695.889C760.634 694.138 757.253 693.016 753.501 692.954L726.381 693.029L708.141 692.895L681.021 692.97C677.529 692.995 674.149 691.873 672.18 690.035L661.408 679.353C659.699 677.602 659.514 675.369 661.298 673.593L671.85 663.083C673.633 661.306 676.828 660.196 680.58 660.258L701.644 660.343C705.136 660.318 708.517 661.44 710.486 663.278L721.146 673.725C722.855 675.477 723.04 677.71 721.257 679.486L714.42 686.295L732.809 686.282L739.646 679.473C741.429 677.696 741.504 675.55 739.535 673.712L719.96 654.187C718.252 652.435 714.871 651.313 711.119 651.251L671.406 651.093C667.654 651.032 664.458 652.142 662.675 653.918L642.908 673.606C641.125 675.382 641.05 677.529 643.019 679.366L663.114 699.064C664.823 700.816 668.203 701.938 671.955 702L698.926 702.072L717.315 702.059L744.286 702.132C747.778 702.107 751.159 703.229 753.128 705.067L763.788 715.515C765.497 717.266 765.682 719.499 763.899 721.275L753.347 731.785C751.563 733.561 748.368 734.672 744.616 734.61L723.403 734.673C719.911 734.698 716.531 733.575 714.562 731.738L703.902 721.29C702.193 719.539 702.007 717.306 703.791 715.53L710.627 708.72L692.238 708.734L685.402 715.543C683.618 717.319 683.544 719.466 685.513 721.303L705.607 741.002C707.316 742.753 710.697 743.875 714.449 743.937L754.162 744.095C757.654 744.07 761.109 743.046 762.893 741.27L782.659 721.582C784.443 719.806 784.517 717.66 782.549 715.822L762.342 695.889Z" fill="#7950DD"/>
</g>
<line x1="251.929" y1="586" x2="251.929" y2="739" stroke="white" stroke-opacity="0.8"/>
<g clip-path="url(#clip3_275_357)">
<rect width="537.174" height="441.826" rx="15" transform="matrix(0.967313 0.253585 -0.786033 0.618184 429.5 329.862)" fill="#FF713B" fill-opacity="0.5"/>
<path d="M456.283 356.971C457.093 356.26 457.336 355.606 457.011 355.012C456.686 354.417 455.809 353.934 454.379 353.563C453.407 353.311 452.473 353.183 451.575 353.179C450.686 353.17 449.865 353.265 449.112 353.466C448.368 353.669 447.746 353.957 447.244 354.33C446.807 354.636 446.548 354.934 446.465 355.225C446.392 355.519 446.448 355.803 446.632 356.08C446.824 356.351 447.107 356.618 447.481 356.883C447.862 357.142 448.302 357.393 448.803 357.637L450.831 358.666C451.831 359.154 452.654 359.672 453.301 360.22C453.948 360.769 454.369 361.347 454.566 361.954C454.763 362.561 454.691 363.198 454.351 363.864C454.02 364.532 453.373 365.229 452.409 365.954C450.97 367.013 449.291 367.82 447.372 368.373C445.468 368.924 443.412 369.202 441.203 369.208C439.01 369.211 436.768 368.915 434.477 368.321C432.203 367.731 430.512 367.003 429.403 366.136C428.304 365.272 427.848 364.297 428.036 363.211C428.242 362.121 429.161 360.947 430.796 359.687L436.557 361.181C435.838 361.779 435.455 362.335 435.407 362.848C435.376 363.358 435.63 363.816 436.171 364.223C436.728 364.627 437.52 364.962 438.547 365.228C439.555 365.489 440.552 365.626 441.538 365.638C442.533 365.652 443.453 365.552 444.299 365.337C445.145 365.122 445.849 364.805 446.412 364.388C446.936 363.998 447.189 363.622 447.171 363.259C447.161 362.898 446.924 362.532 446.46 362.16C446.005 361.791 445.367 361.397 444.546 360.978L442.118 359.709C440.223 358.737 439.097 357.695 438.741 356.582C438.384 355.469 439.074 354.272 440.808 352.993C442.213 351.94 443.902 351.14 445.875 350.593C447.858 350.048 449.952 349.764 452.158 349.742C454.365 349.72 456.494 349.975 458.548 350.508C460.638 351.05 462.165 351.743 463.131 352.588C464.105 353.435 464.5 354.363 464.314 355.374C464.128 356.385 463.353 357.411 461.99 358.451L456.283 356.971ZM533.759 382.033C531.213 383.925 528.464 385.384 525.514 386.409C522.572 387.436 519.631 388.041 516.69 388.223C513.766 388.402 511.062 388.169 508.578 387.525C506.075 386.876 504.301 385.944 503.254 384.728C502.208 383.511 502 382.09 502.632 380.464C503.263 378.837 504.848 377.081 507.387 375.195C509.934 373.303 512.678 371.843 515.619 370.816C518.561 369.788 521.493 369.185 524.418 369.006C527.349 368.822 530.066 369.054 532.569 369.703C535.053 370.347 536.818 371.277 537.865 372.493C538.928 373.706 539.144 375.126 538.513 376.752C537.89 378.381 536.306 380.142 533.759 382.033ZM527.723 380.468C529.373 379.243 530.466 378.132 531.003 377.136C531.549 376.143 531.578 375.289 531.091 374.576C530.604 373.863 529.641 373.32 528.202 372.947C526.762 372.574 525.214 372.466 523.556 372.622C521.898 372.779 520.205 373.201 518.477 373.888C516.757 374.577 515.073 375.534 513.423 376.76C511.774 377.985 510.676 379.095 510.13 380.088C509.593 381.084 509.568 381.939 510.056 382.652C510.543 383.365 511.506 383.908 512.945 384.281C514.384 384.654 515.933 384.762 517.59 384.606C519.248 384.449 520.937 384.026 522.656 383.337C524.385 382.65 526.074 381.693 527.723 380.468ZM613.702 391.062L619.656 392.606L604.491 403.872C602.788 405.137 600.807 406.117 598.55 406.811C596.301 407.508 593.944 407.895 591.478 407.971C589.021 408.043 586.628 407.776 584.299 407.173C581.962 406.566 580.271 405.774 579.227 404.795C578.191 403.81 577.826 402.717 578.131 401.516C578.437 400.316 579.441 399.083 581.144 397.818L596.309 386.552L602.263 388.096L587.519 399.048C586.63 399.709 586.073 400.357 585.849 400.992C585.633 401.63 585.759 402.207 586.225 402.724C586.692 403.241 587.498 403.648 588.644 403.945C589.799 404.245 591 404.358 592.248 404.286C593.505 404.215 594.713 403.984 595.872 403.591C597.041 403.201 598.069 402.676 598.959 402.015L613.702 391.062ZM647.665 423.273L671.018 405.925L676.971 407.469L657.689 421.793L669.762 424.924L665.691 427.948L647.665 423.273ZM726.079 443.607L716.097 441.019L739.449 423.671L749.514 426.281C752.347 427.016 754.317 427.995 755.427 429.22C756.543 430.439 756.781 431.838 756.14 433.416C755.509 434.997 753.98 436.688 751.556 438.489C749.123 440.296 746.478 441.706 743.62 442.717C740.772 443.73 737.849 444.317 734.852 444.477C731.863 444.639 728.939 444.349 726.079 443.607ZM726.281 439.42L730.062 440.401C731.822 440.857 733.561 441.049 735.279 440.976C737.013 440.9 738.73 440.534 740.43 439.878C742.146 439.219 743.875 438.242 745.616 436.949C747.341 435.667 748.444 434.54 748.925 433.568C749.414 432.597 749.317 431.765 748.633 431.069C747.949 430.374 746.728 429.798 744.968 429.342L741.173 428.358L726.281 439.42ZM790.73 460.373L814.082 443.025L833.057 447.945L828.986 450.969L815.965 447.593L810.401 451.726L822.446 454.85L818.375 457.874L806.33 454.75L800.754 458.893L813.83 462.283L809.76 465.307L790.73 460.373ZM889.341 462.541L878.405 477.486L878.666 477.554L903.228 466.142L909.828 467.854L876.768 482.684L869.096 480.694L882.727 460.826L889.341 462.541Z" fill="white"/>
<path d="M155.382 604.4L146.283 611.16L142.685 610.227L158.01 598.842L161.463 599.738L158.969 601.591L159.198 601.65C160.434 601.157 161.752 600.846 163.15 600.715C164.557 600.587 165.954 600.702 167.341 601.062C168.601 601.389 169.484 601.838 169.992 602.409C170.506 602.976 170.594 603.645 170.258 604.418C169.921 605.191 169.121 606.046 167.857 606.985L158.109 614.226L154.512 613.294L163.9 606.319C165.011 605.494 165.53 604.759 165.458 604.113C165.392 603.463 164.749 602.98 163.53 602.663C162.696 602.447 161.805 602.366 160.856 602.42C159.915 602.476 158.966 602.67 158.011 603.002C157.07 603.331 156.193 603.797 155.382 604.4ZM218.02 630.072C216.199 629.6 214.954 628.954 214.284 628.134C213.628 627.31 213.532 626.369 213.996 625.309C214.474 624.247 215.508 623.125 217.097 621.944C218.667 620.778 220.404 619.842 222.307 619.135C224.218 618.431 226.147 617.995 228.094 617.826C230.049 617.66 231.885 617.799 233.601 618.244C234.644 618.515 235.511 618.883 236.204 619.349C236.897 619.816 237.326 620.377 237.492 621.033C237.658 621.69 237.477 622.439 236.948 623.282C236.426 624.12 235.47 625.055 234.08 626.088L233.022 626.874L218.332 623.064L220.567 621.404L231.732 624.299C232.517 623.716 233.02 623.15 233.24 622.6C233.467 622.046 233.408 621.547 233.062 621.104C232.725 620.664 232.091 620.323 231.161 620.081C230.15 619.819 229.062 619.744 227.895 619.855C226.744 619.963 225.634 620.208 224.567 620.591C223.514 620.971 222.605 621.446 221.84 622.014L220.094 623.311C219.07 624.072 218.415 624.775 218.13 625.421C217.852 626.069 217.917 626.636 218.324 627.122C218.738 627.602 219.47 627.979 220.52 628.251C221.202 628.428 221.904 628.53 222.625 628.557C223.352 628.579 224.084 628.522 224.819 628.386C225.554 628.25 226.269 628.032 226.964 627.732L229.86 628.993C228.756 629.54 227.539 629.954 226.208 630.236C224.891 630.514 223.531 630.645 222.126 630.627C220.736 630.607 219.367 630.422 218.02 630.072ZM301.631 636.086L299.237 637.865L289.143 635.247L291.537 633.468L301.631 636.086ZM297.916 631.443L301.513 632.376L287.016 643.145C286.438 643.575 286.106 643.926 286.022 644.197C285.945 644.464 286.017 644.679 286.24 644.843C286.477 645.005 286.792 645.137 287.185 645.239C287.473 645.313 287.743 645.367 287.993 645.398C288.242 645.429 288.437 645.453 288.578 645.47L286.763 647.469C286.488 647.464 286.125 647.437 285.673 647.386C285.215 647.341 284.694 647.246 284.11 647.101C283.15 646.865 282.407 646.533 281.882 646.103C281.356 645.674 281.147 645.166 281.254 644.58C281.36 643.995 281.876 643.359 282.801 642.672L297.916 631.443ZM341.723 661.841L351.61 649.047L355.328 650.011L347.695 659.31L347.875 659.357L362.763 651.939L366.481 652.903L358.885 662.162L359.066 662.209L373.868 654.818L377.585 655.782L356.834 665.76L353.165 664.808L360.476 655.615L360.199 655.543L345.381 662.79L341.723 661.841ZM420.017 682.454C418.285 682.005 417.102 681.368 416.469 680.544C415.837 679.72 415.755 678.776 416.225 677.711C416.696 676.647 417.722 675.526 419.305 674.35C420.895 673.169 422.642 672.229 424.546 671.53C426.451 670.831 428.378 670.404 430.328 670.249C432.278 670.095 434.119 670.243 435.851 670.692C437.584 671.141 438.766 671.778 439.399 672.602C440.032 673.426 440.11 674.373 439.633 675.442C439.157 676.512 438.123 677.637 436.534 678.818C434.951 679.994 433.21 680.929 431.312 681.624C429.414 682.318 427.491 682.742 425.541 682.897C423.591 683.051 421.75 682.904 420.017 682.454ZM422.534 680.597C423.657 680.888 424.833 680.947 426.063 680.772C427.293 680.598 428.494 680.253 429.665 679.737C430.844 679.223 431.926 678.6 432.91 677.868C433.888 677.142 434.605 676.428 435.063 675.727C435.535 675.023 435.651 674.39 435.412 673.828C435.173 673.266 434.492 672.839 433.369 672.548C432.238 672.255 431.05 672.197 429.805 672.374C428.569 672.553 427.357 672.902 426.172 673.421C425.001 673.938 423.926 674.559 422.949 675.285C421.964 676.017 421.239 676.732 420.774 677.431C420.317 678.132 420.211 678.762 420.457 679.319C420.71 679.878 421.403 680.304 422.534 680.597ZM480.387 697.8L495.712 686.415L499.189 687.317L496.755 689.125L496.947 689.175C498.109 688.65 499.351 688.322 500.674 688.192C502.011 688.058 503.221 688.132 504.304 688.413C504.528 688.471 504.786 688.545 505.078 688.634C505.377 688.725 505.605 688.8 505.762 688.861L502.908 690.981C502.797 690.919 502.577 690.825 502.248 690.7C501.925 690.569 501.58 690.456 501.211 690.361C500.361 690.14 499.453 690.055 498.488 690.105C497.538 690.151 496.607 690.32 495.697 690.611C494.793 690.896 494.009 691.286 493.343 691.78L483.985 698.732L480.387 697.8ZM549.328 710.468L552.945 707.756L553.571 707.918L567.419 705.01L571.726 706.127L555.946 709.434L555.38 709.287L549.328 710.468ZM540.821 713.471L561.255 698.292L564.852 699.225L544.418 714.404L540.821 713.471ZM552.491 716.497L553.158 709.371L557.721 708.465L556.907 717.642L552.491 716.497Z" fill="white"/>
</g>
<rect x="0.18128" y="0.871769" width="535.174" height="439.826" rx="14" transform="matrix(0.967313 0.253585 -0.786033 0.618184 430.191 330.149)" stroke="white" stroke-width="2"/>
<g clip-path="url(#clip4_275_357)">
<ellipse rx="88.7224" ry="79.6927" transform="matrix(0.96705 0.254586 -0.784766 0.619792 582.222 484.539)" fill="white"/>
<path d="M338.132 509.674C353.468 497.562 382.492 493.364 397.066 501.15L488.499 549.998C492.122 551.934 496.869 553.205 502.331 553.702L648.896 567.04C670.715 569.025 677.051 582.512 661.817 594.543L625.234 623.435L582.304 657.341C569.301 667.61 545.772 672.515 529.749 668.297L264.414 598.445C248.392 594.227 245.943 582.483 258.946 572.214L338.132 509.674Z" fill="white"/>
<g clip-path="url(#clip5_275_357)">
<rect width="80" height="80" rx="40" transform="matrix(0.96705 0.254586 -0.784766 0.619792 555.193 567.708)" fill="white"/>
<path d="M545.413 623.719C533.085 624.616 525.29 617.895 528.003 608.708C530.716 599.521 538.305 607.959 550.633 607.063C562.961 606.166 575.361 596.275 572.648 605.462C569.935 614.649 557.741 622.823 545.413 623.719Z" fill="#FF713B"/>
<path d="M574.241 580.876C586.723 578.837 597.071 584.345 597.354 593.177C597.637 602.01 586.924 594.881 574.441 596.919C561.959 598.958 552.434 609.392 552.152 600.56C551.869 591.727 561.758 582.914 574.241 580.876Z" fill="#FF713B"/>
</g>
<rect x="0.182284" y="0.874378" width="78" height="78" rx="39" transform="matrix(0.96705 0.254586 -0.784766 0.619792 555.886 567.994)" stroke="#FF713B" stroke-width="2"/>
<line x1="440.927" y1="524.996" x2="441.427" y2="653.998" stroke="white" stroke-opacity="0.8"/>
</g>
<g clip-path="url(#clip6_275_357)">
<line x1="666.929" y1="584" x2="666.929" y2="737" stroke="white" stroke-opacity="0.8"/>
</g>
<path d="M563 319L564 636.026" stroke="white" stroke-opacity="0.8"/>
<path d="M251.5 296.999L251.5 587.029" stroke="white" stroke-opacity="0.8"/>
<path d="M667 205L667 577" stroke="white" stroke-opacity="0.8"/>
<path d="M778 339L778 711" stroke="white" stroke-opacity="0.8"/>
<path d="M440.999 196L441 525.5" stroke="white" stroke-opacity="0.8"/>
<rect x="0.18128" y="0.871769" width="212.308" height="218.601" rx="14" transform="matrix(0.967313 0.253585 -0.786033 0.618184 289.094 166.045)" fill="#FF713B" fill-opacity="0.3"/>
<path d="M451.394 239.552C442.597 246.327 428.832 247.744 420.653 243.022C412.475 238.3 412.608 229.013 421.404 222.238C430.201 215.462 443.966 214.046 452.145 218.767C460.323 223.489 460.19 232.777 451.394 239.552Z" fill="white" fill-opacity="0.6" stroke="white" stroke-width="2"/>
<path d="M440.257 226.679L445.185 230.808L441.199 234.646L432.307 234.357L427.376 230.23L431.362 226.393L440.257 226.679ZM443.187 223.858L439.915 223.752L431.007 223.462L427.734 223.357L426.269 224.767L422.286 228.601L420.821 230.012L422.628 231.528L427.556 235.657L429.364 237.173L432.636 237.279L441.531 237.565L444.801 237.674L446.266 236.263L450.252 232.426L451.717 231.016L449.91 229.499L444.982 225.37L443.175 223.854L443.187 223.858Z" fill="#375BD2"/>
<rect x="0.18128" y="0.871769" width="212.308" height="218.601" rx="14" transform="matrix(0.967313 0.253585 -0.786033 0.618184 289.094 166.045)" stroke="white" stroke-width="2"/>
<path d="M298.317 226.861C299.532 225.793 299.895 224.813 299.408 223.921C298.921 223.029 297.605 222.305 295.46 221.749C294.002 221.371 292.601 221.179 291.255 221.173C289.92 221.158 288.689 221.301 287.559 221.603C286.444 221.908 285.51 222.34 284.757 222.899C284.103 223.358 283.714 223.805 283.59 224.242C283.48 224.682 283.563 225.109 283.84 225.523C284.128 225.93 284.552 226.331 285.112 226.728C285.684 227.116 286.345 227.493 287.095 227.859L290.138 229.402C291.638 230.134 292.873 230.911 293.843 231.734C294.813 232.557 295.445 233.424 295.741 234.335C296.036 235.245 295.928 236.2 295.418 237.199C294.922 238.202 293.951 239.247 292.505 240.335C290.347 241.924 287.829 243.133 284.949 243.964C282.094 244.789 279.01 245.206 275.696 245.215C272.407 245.219 269.044 244.776 265.606 243.884C262.197 243 259.66 241.908 257.996 240.608C256.347 239.312 255.663 237.849 255.946 236.22C256.254 234.586 257.634 232.824 260.085 230.934L268.727 233.175C267.648 234.072 267.073 234.906 267.002 235.676C266.955 236.441 267.337 237.128 268.148 237.738C268.984 238.344 270.172 238.846 271.712 239.245C273.224 239.638 274.72 239.843 276.199 239.86C277.691 239.882 279.072 239.731 280.34 239.409C281.609 239.086 282.665 238.612 283.509 237.985C284.296 237.401 284.675 236.836 284.647 236.292C284.633 235.751 284.278 235.202 283.582 234.644C282.9 234.09 281.942 233.499 280.71 232.871L277.069 230.967C274.226 229.51 272.537 227.946 272.003 226.276C271.468 224.606 272.502 222.812 275.104 220.893C277.211 219.314 279.745 218.114 282.705 217.293C285.678 216.475 288.82 216.05 292.129 216.017C295.439 215.984 298.633 216.367 301.713 217.165C304.848 217.978 307.14 219.018 308.588 220.285C310.049 221.555 310.641 222.949 310.362 224.465C310.084 225.981 308.921 227.52 306.876 229.08L298.317 226.861ZM291.41 250.079L326.439 224.057L343.351 228.443C346.458 229.249 348.668 230.204 349.98 231.31C351.293 232.416 351.793 233.609 351.481 234.888C351.18 236.158 350.152 237.446 348.396 238.75C347.028 239.767 345.495 240.575 343.797 241.174C342.111 241.766 340.36 242.157 338.543 242.349C336.752 242.536 334.984 242.54 333.239 242.362L332.897 242.616C334.449 243.076 335.578 243.746 336.285 244.626C337.006 245.51 337.179 246.532 336.805 247.692C336.442 248.843 335.399 250.059 333.678 251.338C331.819 252.718 329.603 253.806 327.03 254.602C324.482 255.392 321.706 255.821 318.704 255.888C315.701 255.955 312.619 255.579 309.456 254.759L291.41 250.079ZM306.395 247.897L313.676 249.785C316.164 250.43 318.373 250.608 320.301 250.32C322.24 250.023 323.871 249.383 325.194 248.401C326.163 247.681 326.736 246.972 326.914 246.275C327.091 245.579 326.868 244.938 326.245 244.354C325.636 243.773 324.616 243.297 323.186 242.926L315.7 240.985L306.395 247.897ZM320.711 237.262L327.332 238.979C328.555 239.296 329.818 239.446 331.12 239.43C332.448 239.408 333.717 239.223 334.929 238.875C336.154 238.53 337.228 238.014 338.152 237.328C339.417 236.388 339.895 235.489 339.584 234.631C339.287 233.777 338.148 233.093 336.168 232.58L329.383 230.82L320.711 237.262ZM360.026 238.886L366.132 234.35L400.822 243.346L394.716 247.882L381.785 244.529L352.862 266.014L344.035 263.725L372.957 242.24L360.026 238.886Z" fill="white"/>
<path d="M230.519 259.337L220.394 266.859L214.537 265.34L237.889 247.992L243.581 249.468L234.653 256.101L234.901 256.165C236.411 255.521 237.991 255.119 239.639 254.96C241.296 254.795 242.926 254.921 244.53 255.337C245.997 255.717 247.009 256.246 247.568 256.925C248.143 257.599 248.24 258.382 247.856 259.273C247.49 260.161 246.618 261.112 245.24 262.126L234.089 270.41L228.231 268.891L238.516 261.251C239.605 260.451 240.115 259.742 240.046 259.122C239.987 258.505 239.361 258.042 238.17 257.733C237.372 257.526 236.526 257.447 235.63 257.497C234.744 257.549 233.857 257.73 232.969 258.041C232.098 258.348 231.281 258.78 230.519 259.337ZM246.326 273.915C244.979 273.566 243.972 273.11 243.305 272.549C242.646 271.982 242.394 271.334 242.547 270.604C242.718 269.871 243.381 269.075 244.536 268.217C245.509 267.494 246.542 266.943 247.634 266.564C248.726 266.184 249.845 265.941 250.99 265.834C252.135 265.727 253.283 265.72 254.432 265.812C255.591 265.907 256.734 266.059 257.863 266.268C259.198 266.507 260.287 266.691 261.129 266.818C261.98 266.939 262.67 266.973 263.199 266.92C263.728 266.867 264.179 266.702 264.551 266.425L264.62 266.375C265.342 265.838 265.626 265.352 265.471 264.915C265.326 264.482 264.753 264.135 263.754 263.876C262.7 263.603 261.667 263.529 260.656 263.655C259.653 263.776 258.762 264.025 257.982 264.402L252.93 262.726C254.269 262.007 255.729 261.464 257.311 261.097C258.901 260.724 260.542 260.548 262.234 260.568C263.943 260.584 265.641 260.811 267.328 261.249C268.501 261.553 269.51 261.929 270.354 262.376C271.208 262.826 271.812 263.337 272.168 263.909C272.532 264.484 272.581 265.114 272.314 265.799C272.055 266.478 271.405 267.205 270.363 267.978L258.55 276.754L252.995 275.313L255.424 273.509L255.259 273.466C254.373 273.785 253.436 274.026 252.45 274.189C251.471 274.346 250.465 274.409 249.432 274.378C248.406 274.34 247.371 274.186 246.326 273.915ZM251.356 271.86C252.217 272.083 253.119 272.176 254.06 272.138C255.009 272.095 255.915 271.941 256.777 271.677C257.639 271.413 258.378 271.052 258.994 270.595L260.853 269.214C260.571 269.24 260.227 269.243 259.823 269.222C259.435 269.197 259.01 269.159 258.547 269.108C258.092 269.051 257.641 268.991 257.194 268.928C256.754 268.86 256.355 268.798 255.996 268.743C255.225 268.627 254.491 268.57 253.796 268.573C253.1 268.575 252.454 268.655 251.858 268.813C251.27 268.965 250.748 269.211 250.292 269.55C249.63 270.041 249.414 270.491 249.641 270.901C249.886 271.307 250.458 271.627 251.356 271.86ZM274.231 281.163C272.067 280.602 270.587 279.837 269.789 278.868C269.007 277.896 268.88 276.796 269.406 275.569C269.942 274.345 271.096 273.074 272.867 271.758C274.661 270.426 276.651 269.365 278.839 268.576C281.043 267.784 283.299 267.306 285.609 267.143C287.926 266.975 290.152 267.167 292.288 267.721C294.13 268.199 295.466 268.824 296.295 269.595C297.124 270.366 297.441 271.229 297.244 272.183C297.047 273.138 296.313 274.129 295.043 275.155L289.515 273.722C290.234 273.032 290.524 272.403 290.387 271.834C290.267 271.262 289.671 270.837 288.598 270.558C287.691 270.323 286.693 270.27 285.604 270.399C284.532 270.525 283.42 270.827 282.269 271.306C281.118 271.784 279.991 272.433 278.889 273.252C277.771 274.082 277.004 274.835 276.588 275.512C276.181 276.191 276.111 276.771 276.379 277.252C276.647 277.733 277.235 278.091 278.142 278.326C278.811 278.5 279.526 278.571 280.285 278.539C281.054 278.51 281.83 278.379 282.611 278.148C283.41 277.913 284.172 277.581 284.897 277.152L290.425 278.586C288.995 279.556 287.377 280.317 285.57 280.869C283.78 281.418 281.912 281.726 279.967 281.793C278.022 281.86 276.11 281.65 274.231 281.163ZM300.039 282.461L305.879 278.137L306.732 278.358L320.144 275.174L326.868 276.917L308.976 281.1L307.588 280.739L300.039 282.461ZM289.691 284.829L313.044 267.481L318.901 269L295.549 286.348L289.691 284.829ZM302.891 288.252L304.305 280.974L311.642 279.437L309.752 290.031L302.891 288.252ZM344.255 286.431L338.619 285.244C338.908 284.938 339.053 284.633 339.054 284.328C339.063 284.018 338.912 283.731 338.599 283.468C338.303 283.2 337.816 282.979 337.138 282.803C336.231 282.568 335.306 282.488 334.363 282.563C333.428 282.633 332.698 282.863 332.174 283.253C331.756 283.563 331.604 283.878 331.718 284.197C331.833 284.516 332.293 284.868 333.099 285.252L336.283 286.718C337.986 287.51 338.955 288.325 339.188 289.162C339.421 290 338.906 290.887 337.644 291.825C336.496 292.678 335.081 293.32 333.399 293.752C331.726 294.187 329.94 294.402 328.042 294.397C326.16 294.389 324.303 294.147 322.47 293.672C319.674 292.947 317.929 292.011 317.235 290.863C316.558 289.713 316.914 288.479 318.302 287.163L324.314 288.471C323.782 289.041 323.663 289.552 323.96 290.002C324.264 290.446 324.939 290.804 325.984 291.075C327.011 291.341 327.999 291.434 328.949 291.353C329.916 291.268 330.667 291.032 331.2 290.645C331.632 290.315 331.768 289.989 331.61 289.666C331.459 289.337 331.001 288.997 330.236 288.647L327.183 287.249C325.463 286.46 324.52 285.622 324.356 284.733C324.2 283.848 324.776 282.919 326.084 281.948C327.209 281.112 328.545 280.487 330.091 280.073C331.647 279.661 333.315 279.465 335.094 279.485C336.882 279.507 338.68 279.752 340.485 280.22C343.153 280.912 344.784 281.803 345.38 282.895C345.985 283.989 345.61 285.168 344.255 286.431Z" fill="white"/>
<rect x="0.18128" y="0.871769" width="212.308" height="218.601" rx="14" transform="matrix(0.967313 0.253585 -0.786033 0.618184 520.092 191.287)" fill="#FF713B" fill-opacity="0.3"/>
<rect x="0.18128" y="0.871769" width="212.308" height="218.601" rx="14" transform="matrix(0.967313 0.253585 -0.786033 0.618184 520.092 191.287)" stroke="white" stroke-width="2"/>
<path d="M529.315 252.103C530.53 251.035 530.893 250.055 530.406 249.163C529.919 248.271 528.603 247.547 526.458 246.991C525 246.613 523.599 246.421 522.253 246.415C520.918 246.4 519.687 246.544 518.557 246.845C517.442 247.15 516.508 247.582 515.755 248.141C515.101 248.6 514.712 249.047 514.588 249.484C514.478 249.924 514.561 250.351 514.838 250.766C515.126 251.172 515.55 251.573 516.111 251.97C516.682 252.358 517.343 252.735 518.093 253.101L521.136 254.644C522.636 255.376 523.871 256.154 524.841 256.977C525.811 257.799 526.443 258.666 526.739 259.577C527.034 260.488 526.926 261.443 526.416 262.442C525.92 263.444 524.949 264.489 523.503 265.577C521.345 267.166 518.827 268.376 515.947 269.206C513.092 270.031 510.008 270.448 506.694 270.457C503.405 270.462 500.042 270.018 496.604 269.127C493.195 268.242 490.658 267.15 488.995 265.85C487.345 264.554 486.662 263.091 486.944 261.462C487.252 259.828 488.632 258.066 491.083 256.176L499.725 258.417C498.646 259.314 498.071 260.148 498 260.918C497.953 261.683 498.335 262.37 499.146 262.981C499.982 263.586 501.17 264.088 502.71 264.488C504.223 264.88 505.718 265.085 507.197 265.103C508.689 265.124 510.07 264.973 511.338 264.651C512.607 264.329 513.663 263.854 514.507 263.227C515.294 262.643 515.673 262.078 515.645 261.534C515.631 260.993 515.276 260.444 514.58 259.886C513.898 259.332 512.94 258.741 511.708 258.113L508.067 256.209C505.224 254.752 503.535 253.188 503.001 251.519C502.466 249.849 503.5 248.054 506.102 246.135C508.209 244.556 510.743 243.356 513.703 242.535C516.676 241.718 519.818 241.292 523.127 241.259C526.437 241.226 529.631 241.609 532.711 242.408C535.846 243.22 538.138 244.26 539.586 245.527C541.048 246.798 541.639 248.191 541.36 249.707C541.082 251.223 539.92 252.762 537.874 254.323L529.315 252.103ZM522.408 275.321L557.437 249.299L574.349 253.685C577.456 254.491 579.666 255.447 580.978 256.553C582.291 257.658 582.791 258.851 582.479 260.13C582.178 261.4 581.15 262.688 579.394 263.992C578.026 265.009 576.493 265.817 574.795 266.417C573.109 267.008 571.358 267.399 569.541 267.591C567.75 267.778 565.982 267.782 564.237 267.604L563.895 267.858C565.447 268.318 566.576 268.988 567.283 269.868C568.004 270.752 568.177 271.774 567.803 272.934C567.44 274.085 566.397 275.301 564.676 276.58C562.817 277.96 560.601 279.049 558.028 279.844C555.48 280.634 552.704 281.063 549.702 281.13C546.699 281.197 543.617 280.821 540.455 280.001L522.408 275.321ZM537.393 273.139L544.674 275.027C547.162 275.672 549.371 275.851 551.299 275.562C553.238 275.265 554.869 274.625 556.192 273.643C557.161 272.923 557.734 272.214 557.912 271.518C558.089 270.821 557.866 270.18 557.243 269.596C556.634 269.015 555.614 268.539 554.184 268.168L546.698 266.227L537.393 273.139ZM551.709 262.504L558.33 264.221C559.553 264.538 560.816 264.689 562.119 264.672C563.446 264.651 564.715 264.465 565.927 264.117C567.152 263.772 568.226 263.256 569.15 262.57C570.415 261.63 570.893 260.731 570.582 259.873C570.285 259.019 569.146 258.335 567.166 257.822L560.381 256.062L551.709 262.504ZM591.024 264.128L597.13 259.592L631.82 268.588L625.714 273.124L612.783 269.771L583.86 291.257L575.033 288.968L603.955 267.482L591.024 264.128Z" fill="white"/>
<path d="M511.839 297.419L505.816 295.857C506.352 295.348 506.702 294.864 506.864 294.403C507.034 293.937 507.032 293.502 506.858 293.099C506.684 292.696 506.343 292.333 505.836 292.011C505.339 291.692 504.687 291.427 503.88 291.218C502.423 290.84 500.853 290.734 499.171 290.9C497.496 291.06 495.791 291.486 494.055 292.179C492.326 292.865 490.652 293.81 489.033 295.013C487.369 296.25 486.268 297.366 485.731 298.362C485.203 299.36 485.191 300.214 485.695 300.924C486.199 301.634 487.162 302.173 488.582 302.541C489.38 302.748 490.205 302.874 491.058 302.92C491.921 302.969 492.785 302.938 493.651 302.827C494.525 302.711 495.379 302.517 496.214 302.246C497.058 301.977 497.86 301.629 498.621 301.202L504.621 302.781C503.393 303.536 501.97 304.203 500.351 304.782C498.748 305.356 497.033 305.799 495.205 306.11C493.394 306.417 491.541 306.554 489.645 306.519C487.767 306.482 485.925 306.229 484.119 305.76C481.607 305.109 479.833 304.177 478.795 302.963C477.767 301.752 477.574 300.334 478.214 298.71C478.864 297.088 480.458 295.334 482.997 293.448C485.544 291.556 488.288 290.096 491.229 289.069C494.171 288.041 497.099 287.437 500.014 287.256C502.936 287.069 505.635 287.297 508.11 287.938C509.742 288.361 511.064 288.895 512.077 289.538C513.1 290.185 513.787 290.919 514.139 291.741C514.498 292.558 514.493 293.445 514.122 294.4C513.76 295.357 512.999 296.364 511.839 297.419ZM531.307 294.274L520.371 309.219L520.632 309.287L545.194 297.875L551.794 299.586L518.734 314.417L511.062 312.427L524.693 292.559L531.307 294.274Z" fill="white"/>
<rect x="0.18128" y="0.871769" width="212.308" height="218.601" rx="14" transform="matrix(0.967313 0.253585 -0.786033 0.618184 474.094 62.0447)" fill="#FF713B" fill-opacity="0.3"/>
<path d="M638.017 137.538C629.22 144.314 615.455 145.73 607.276 141.009C599.098 136.287 599.231 126.999 608.027 120.224C616.824 113.449 630.589 112.032 638.768 116.754C646.946 121.476 646.813 130.763 638.017 137.538Z" fill="white" fill-opacity="0.6" stroke="white" stroke-width="2"/>
<path d="M626.88 124.665L631.808 128.794L627.822 132.632L618.93 132.343L613.999 128.217L617.985 124.379L626.88 124.665ZM629.81 121.844L626.538 121.739L617.63 121.449L614.357 121.343L612.892 122.753L608.909 126.588L607.444 127.998L609.251 129.514L614.179 133.644L615.987 135.16L619.259 135.266L628.154 135.551L631.424 135.66L632.889 134.25L636.875 130.412L638.341 129.002L636.533 127.486L631.605 123.356L629.798 121.84L629.81 121.844Z" fill="#375BD2"/>
<rect x="0.18128" y="0.871769" width="212.308" height="218.601" rx="14" transform="matrix(0.967313 0.253585 -0.786033 0.618184 474.094 62.0447)" stroke="white" stroke-width="2"/>
<path d="M483.317 122.861C484.532 121.793 484.895 120.813 484.408 119.921C483.921 119.029 482.605 118.305 480.46 117.749C479.002 117.371 477.601 117.179 476.255 117.173C474.92 117.158 473.689 117.301 472.559 117.603C471.444 117.908 470.51 118.34 469.757 118.899C469.103 119.358 468.714 119.805 468.59 120.242C468.48 120.682 468.563 121.109 468.84 121.523C469.128 121.93 469.552 122.331 470.112 122.728C470.684 123.116 471.345 123.493 472.095 123.859L475.138 125.402C476.638 126.134 477.873 126.911 478.843 127.734C479.813 128.557 480.445 129.424 480.741 130.335C481.036 131.245 480.928 132.2 480.418 133.199C479.922 134.202 478.951 135.247 477.505 136.335C475.347 137.924 472.829 139.133 469.949 139.964C467.094 140.789 464.01 141.206 460.696 141.215C457.407 141.219 454.044 140.776 450.606 139.884C447.197 139 444.66 137.908 442.996 136.608C441.347 135.312 440.663 133.849 440.946 132.22C441.254 130.586 442.634 128.824 445.085 126.934L453.727 129.175C452.648 130.072 452.073 130.906 452.002 131.676C451.955 132.441 452.337 133.128 453.148 133.738C453.984 134.344 455.172 134.846 456.712 135.245C458.224 135.638 459.72 135.843 461.199 135.86C462.691 135.882 464.072 135.731 465.34 135.409C466.609 135.086 467.665 134.612 468.509 133.985C469.296 133.401 469.675 132.836 469.647 132.292C469.633 131.751 469.278 131.202 468.582 130.644C467.9 130.09 466.942 129.499 465.71 128.871L462.069 126.967C459.226 125.51 457.537 123.946 457.003 122.276C456.468 120.606 457.502 118.812 460.104 116.893C462.211 115.314 464.745 114.114 467.705 113.293C470.678 112.475 473.82 112.05 477.129 112.017C480.439 111.984 483.633 112.367 486.713 113.165C489.848 113.978 492.14 115.018 493.588 116.285C495.049 117.555 495.641 118.949 495.362 120.465C495.084 121.981 493.921 123.52 491.876 125.08L483.317 122.861ZM476.41 146.079L511.439 120.057L528.351 124.443C531.458 125.249 533.668 126.204 534.98 127.31C536.293 128.416 536.793 129.609 536.481 130.888C536.18 132.158 535.152 133.446 533.396 134.75C532.028 135.767 530.495 136.575 528.797 137.174C527.111 137.766 525.36 138.157 523.543 138.349C521.752 138.536 519.984 138.54 518.239 138.362L517.897 138.616C519.449 139.076 520.578 139.746 521.285 140.626C522.006 141.51 522.179 142.532 521.805 143.692C521.442 144.843 520.399 146.059 518.678 147.338C516.819 148.718 514.603 149.806 512.03 150.602C509.482 151.392 506.706 151.821 503.704 151.888C500.701 151.955 497.619 151.579 494.456 150.759L476.41 146.079ZM491.395 143.897L498.676 145.785C501.164 146.43 503.373 146.608 505.301 146.32C507.24 146.023 508.871 145.383 510.194 144.401C511.163 143.681 511.736 142.972 511.914 142.275C512.091 141.579 511.868 140.938 511.245 140.354C510.636 139.773 509.616 139.297 508.186 138.926L500.7 136.985L491.395 143.897ZM505.711 133.262L512.332 134.979C513.555 135.296 514.818 135.446 516.12 135.43C517.448 135.408 518.717 135.223 519.929 134.875C521.154 134.53 522.228 134.014 523.152 133.328C524.417 132.388 524.895 131.489 524.584 130.631C524.287 129.777 523.148 129.093 521.168 128.58L514.383 126.82L505.711 133.262ZM545.026 134.886L551.132 130.35L585.822 139.346L579.716 143.882L566.785 140.529L537.862 162.014L529.035 159.725L557.957 138.24L545.026 134.886Z" fill="white"/>
<path d="M428.408 151.274L424.759 153.985L411.725 150.605L415.373 147.894L428.408 151.274ZM400.843 161.679L419.623 147.728C420.892 146.785 422.243 146.08 423.675 145.613C425.116 145.149 426.568 144.897 428.031 144.857C429.495 144.818 430.891 144.97 432.22 145.315C433.118 145.548 433.881 145.803 434.51 146.08C435.148 146.36 435.604 146.581 435.88 146.744L431.186 149.184C431.017 149.079 430.79 148.963 430.504 148.835C430.228 148.71 429.915 148.603 429.567 148.512C428.705 148.289 427.937 148.257 427.264 148.418C426.598 148.573 425.968 148.87 425.375 149.311L406.686 163.194L400.843 161.679ZM437.409 163.688L447.466 156.217L453.323 157.735L435.809 170.746L430.185 169.288L433.367 166.925L433.147 166.868C431.644 167.506 430.026 167.913 428.294 168.089C426.57 168.267 424.916 168.15 423.33 167.739C421.918 167.373 420.942 166.853 420.402 166.18C419.862 165.506 419.779 164.727 420.155 163.841C420.54 162.958 421.412 162.007 422.771 160.989L433.923 152.704L439.78 154.223L429.495 161.864C428.47 162.634 427.988 163.328 428.047 163.945C428.106 164.563 428.691 165.015 429.8 165.303C430.506 165.486 431.299 165.558 432.179 165.52C433.067 165.476 433.965 165.305 434.873 165.007C435.79 164.711 436.635 164.272 437.409 163.688ZM458.413 166.46L448.288 173.982L442.43 172.463L459.945 159.452L465.527 160.9L462.437 163.196L462.684 163.26C464.171 162.624 465.76 162.229 467.453 162.074C469.153 161.913 470.787 162.036 472.355 162.442C473.822 162.822 474.834 163.352 475.393 164.03C475.952 164.708 476.039 165.493 475.656 166.384C475.281 167.269 474.412 168.217 473.052 169.228L461.9 177.512L456.043 175.993L466.328 168.353C467.409 167.559 467.915 166.852 467.846 166.232C467.785 165.607 467.168 165.142 465.995 164.838C465.206 164.634 464.369 164.558 463.483 164.61C462.606 164.664 461.728 164.848 460.849 165.161C459.987 165.47 459.175 165.904 458.413 166.46ZM475.95 181.441C474.346 181.025 473.235 180.394 472.617 179.549C472.017 178.699 472.005 177.679 472.582 176.488C473.176 175.294 474.449 173.971 476.403 172.52C478.41 171.029 480.468 169.89 482.577 169.104C484.695 168.312 486.73 167.838 488.684 167.682C490.654 167.523 492.414 167.644 493.963 168.046C495.146 168.352 495.964 168.732 496.418 169.185C496.888 169.635 497.12 170.106 497.111 170.599C497.12 171.089 497.017 171.542 496.802 171.959L496.981 172.005L505.761 165.483L511.604 166.998L488.252 184.346L482.477 182.848L485.282 180.764L485.035 180.7C484.273 180.99 483.401 181.248 482.418 181.473C481.452 181.695 480.414 181.818 479.305 181.843C478.205 181.87 477.086 181.736 475.95 181.441ZM481.671 179.051C482.616 179.296 483.626 179.345 484.702 179.197C485.796 179.046 486.904 178.728 488.028 178.242C489.161 177.759 490.248 177.131 491.289 176.357C492.331 175.583 493.061 174.866 493.481 174.206C493.9 173.545 493.989 172.974 493.747 172.492C493.505 172.01 492.912 171.647 491.968 171.402C491.005 171.152 489.978 171.103 488.884 171.254C487.791 171.405 486.691 171.721 485.584 172.203C484.477 172.686 483.418 173.303 482.407 174.054C481.388 174.81 480.657 175.524 480.213 176.193C479.786 176.859 479.678 177.441 479.888 177.937C480.114 178.43 480.709 178.801 481.671 179.051ZM525.096 181.353L519.46 180.165C519.748 179.859 519.893 179.554 519.895 179.25C519.904 178.94 519.752 178.653 519.44 178.389C519.144 178.122 518.657 177.9 517.979 177.724C517.071 177.489 516.146 177.409 515.204 177.485C514.269 177.555 513.539 177.784 513.014 178.174C512.596 178.485 512.444 178.799 512.559 179.119C512.673 179.438 513.134 179.79 513.94 180.174L517.123 181.639C518.827 182.432 519.795 183.246 520.028 184.084C520.261 184.921 519.747 185.809 518.485 186.746C517.337 187.599 515.922 188.241 514.239 188.674C512.566 189.108 510.781 189.323 508.882 189.318C507.001 189.311 505.144 189.069 503.31 188.593C500.515 187.868 498.77 186.932 498.076 185.785C497.399 184.634 497.755 183.401 499.143 182.085L505.155 183.392C504.622 183.963 504.504 184.473 504.801 184.923C505.105 185.368 505.78 185.726 506.825 185.997C507.851 186.263 508.84 186.355 509.79 186.274C510.757 186.19 511.507 185.954 512.041 185.567C512.473 185.237 512.609 184.91 512.45 184.587C512.299 184.258 511.841 183.919 511.077 183.568L508.024 182.171C506.303 181.382 505.361 180.543 505.196 179.655C505.041 178.769 505.617 177.84 506.925 176.869C508.05 176.033 509.385 175.408 510.932 174.994C512.488 174.583 514.156 174.387 515.935 174.406C517.723 174.428 519.52 174.673 521.326 175.141C523.994 175.833 525.625 176.725 526.221 177.816C526.826 178.91 526.451 180.089 525.096 181.353Z" fill="white"/>
<rect x="0.18128" y="0.871769" width="212.308" height="218.601" rx="14" transform="matrix(0.967313 0.253585 -0.786033 0.618184 705.092 79.2869)" fill="#FF713B" fill-opacity="0.3"/>
<path d="M867.017 154.538C858.22 161.314 844.455 162.73 836.276 158.009C828.098 153.287 828.231 143.999 837.027 137.224C845.824 130.449 859.589 129.032 867.768 133.754C875.946 138.476 875.813 147.763 867.017 154.538Z" fill="white" fill-opacity="0.6" stroke="white" stroke-width="2"/>
<path d="M855.88 141.665L860.808 145.794L856.822 149.632L847.93 149.343L842.999 145.217L846.985 141.379L855.88 141.665ZM858.81 138.844L855.538 138.739L846.63 138.449L843.357 138.343L841.892 139.753L837.909 143.588L836.444 144.998L838.251 146.514L843.179 150.644L844.987 152.16L848.259 152.266L857.154 152.551L860.424 152.66L861.889 151.25L865.875 147.412L867.341 146.002L865.533 144.486L860.605 140.356L858.798 138.84L858.81 138.844Z" fill="#375BD2"/>
<rect x="0.18128" y="0.871769" width="212.308" height="218.601" rx="14" transform="matrix(0.967313 0.253585 -0.786033 0.618184 705.092 79.2869)" stroke="white" stroke-width="2"/>
<path d="M714.315 140.103C715.53 139.035 715.893 138.055 715.406 137.163C714.919 136.271 713.603 135.547 711.458 134.991C710 134.613 708.599 134.421 707.253 134.415C705.918 134.4 704.687 134.544 703.557 134.845C702.442 135.15 701.508 135.582 700.755 136.141C700.101 136.6 699.712 137.047 699.588 137.484C699.478 137.924 699.561 138.351 699.838 138.766C700.126 139.172 700.55 139.573 701.111 139.97C701.682 140.358 702.343 140.735 703.093 141.101L706.136 142.644C707.636 143.376 708.871 144.154 709.841 144.977C710.811 145.799 711.443 146.666 711.739 147.577C712.034 148.488 711.926 149.443 711.416 150.442C710.92 151.444 709.949 152.489 708.503 153.577C706.345 155.166 703.827 156.376 700.947 157.206C698.092 158.031 695.008 158.448 691.694 158.457C688.405 158.462 685.042 158.018 681.604 157.127C678.195 156.242 675.658 155.15 673.995 153.85C672.345 152.554 671.662 151.091 671.944 149.462C672.252 147.828 673.632 146.066 676.083 144.176L684.725 146.417C683.646 147.314 683.071 148.148 683 148.918C682.953 149.683 683.335 150.37 684.146 150.981C684.982 151.586 686.17 152.088 687.71 152.488C689.223 152.88 690.718 153.085 692.197 153.103C693.689 153.124 695.07 152.973 696.338 152.651C697.607 152.329 698.663 151.854 699.507 151.227C700.294 150.643 700.673 150.078 700.645 149.534C700.631 148.993 700.276 148.444 699.58 147.886C698.898 147.332 697.94 146.741 696.708 146.113L693.067 144.209C690.224 142.752 688.535 141.188 688.001 139.519C687.466 137.849 688.5 136.054 691.102 134.135C693.209 132.556 695.743 131.356 698.703 130.535C701.676 129.718 704.818 129.292 708.127 129.259C711.437 129.226 714.631 129.609 717.711 130.408C720.846 131.22 723.138 132.26 724.586 133.527C726.048 134.798 726.639 136.191 726.36 137.707C726.082 139.223 724.92 140.762 722.874 142.323L714.315 140.103ZM707.408 163.321L742.437 137.299L759.349 141.685C762.456 142.491 764.666 143.447 765.978 144.553C767.291 145.658 767.791 146.851 767.479 148.13C767.178 149.4 766.15 150.688 764.394 151.992C763.026 153.009 761.493 153.817 759.795 154.417C758.109 155.008 756.358 155.399 754.541 155.591C752.75 155.778 750.982 155.782 749.237 155.604L748.895 155.858C750.447 156.318 751.576 156.988 752.283 157.868C753.004 158.752 753.177 159.774 752.803 160.934C752.44 162.085 751.397 163.301 749.676 164.58C747.817 165.96 745.601 167.049 743.028 167.844C740.48 168.634 737.704 169.063 734.702 169.13C731.699 169.197 728.617 168.821 725.455 168.001L707.408 163.321ZM722.393 161.139L729.674 163.027C732.162 163.672 734.371 163.851 736.299 163.562C738.238 163.265 739.869 162.625 741.192 161.643C742.161 160.923 742.734 160.214 742.912 159.518C743.089 158.821 742.866 158.18 742.243 157.596C741.634 157.015 740.614 156.539 739.184 156.168L731.698 154.227L722.393 161.139ZM736.709 150.504L743.33 152.221C744.553 152.538 745.816 152.689 747.119 152.672C748.446 152.651 749.715 152.465 750.927 152.117C752.152 151.772 753.226 151.256 754.15 150.57C755.415 149.63 755.893 148.731 755.582 147.873C755.285 147.019 754.146 146.335 752.166 145.822L745.381 144.062L736.709 150.504ZM776.024 152.128L782.13 147.592L816.82 156.588L810.714 161.124L797.783 157.771L768.86 179.257L760.033 176.968L788.955 155.482L776.024 152.128Z" fill="white"/>
<path d="M658.707 189.74L682.059 172.393L688.013 173.936L678.377 181.094L690.464 184.228L700.099 177.071L706.039 178.611L682.686 195.959L676.746 194.418L686.393 187.252L674.307 184.118L664.66 191.284L658.707 189.74ZM689.531 197.734L712.883 180.386L723.993 183.267C726.12 183.818 727.619 184.523 728.491 185.382C729.381 186.237 729.645 187.193 729.286 188.251C728.943 189.304 728 190.404 726.457 191.551C724.906 192.703 723.169 193.589 721.245 194.21C719.328 194.826 717.308 195.155 715.184 195.198C713.07 195.244 710.931 194.987 708.768 194.426L701.329 192.497L705.297 189.549L711.773 191.228C712.91 191.523 713.983 191.672 714.993 191.675C716.003 191.678 716.95 191.535 717.834 191.246C718.727 190.959 719.557 190.531 720.325 189.961C721.1 189.385 721.566 188.85 721.722 188.357C721.888 187.867 721.727 187.422 721.24 187.021C720.769 186.617 719.961 186.267 718.815 185.97L714.8 184.928L695.484 199.278L689.531 197.734ZM715.365 193.783L711.737 203.492L705.164 201.788L708.944 192.117L715.365 193.783Z" fill="white"/>
<rect x="0.18128" y="0.871769" width="212.308" height="218.601" rx="14" transform="matrix(0.967313 0.253585 -0.786033 0.618184 757.092 207.287)" fill="#FF713B" fill-opacity="0.3"/>
<rect x="0.18128" y="0.871769" width="212.308" height="218.601" rx="14" transform="matrix(0.967313 0.253585 -0.786033 0.618184 757.092 207.287)" stroke="white" stroke-width="2"/>
<path d="M766.315 268.103C767.53 267.035 767.893 266.055 767.406 265.163C766.919 264.271 765.603 263.547 763.458 262.991C762 262.613 760.599 262.421 759.253 262.415C757.918 262.4 756.687 262.544 755.557 262.845C754.442 263.15 753.508 263.582 752.755 264.141C752.101 264.6 751.712 265.047 751.588 265.484C751.478 265.924 751.561 266.351 751.838 266.766C752.126 267.172 752.55 267.573 753.111 267.97C753.682 268.358 754.343 268.735 755.093 269.101L758.136 270.644C759.636 271.376 760.871 272.154 761.841 272.977C762.811 273.799 763.443 274.666 763.739 275.577C764.034 276.488 763.926 277.443 763.416 278.442C762.92 279.444 761.949 280.489 760.503 281.577C758.345 283.166 755.827 284.376 752.947 285.206C750.092 286.031 747.008 286.448 743.694 286.457C740.405 286.462 737.042 286.018 733.604 285.127C730.195 284.242 727.658 283.15 725.995 281.85C724.345 280.554 723.662 279.091 723.944 277.462C724.252 275.828 725.632 274.066 728.083 272.176L736.725 274.417C735.646 275.314 735.071 276.148 735 276.918C734.953 277.683 735.335 278.37 736.146 278.981C736.982 279.586 738.17 280.088 739.71 280.488C741.223 280.88 742.718 281.085 744.197 281.103C745.689 281.124 747.07 280.973 748.338 280.651C749.607 280.329 750.663 279.854 751.507 279.227C752.294 278.643 752.673 278.078 752.645 277.534C752.631 276.993 752.276 276.444 751.58 275.886C750.898 275.332 749.94 274.741 748.708 274.113L745.067 272.209C742.224 270.752 740.535 269.188 740.001 267.519C739.466 265.849 740.5 264.054 743.102 262.135C745.209 260.556 747.743 259.356 750.703 258.535C753.676 257.718 756.818 257.292 760.127 257.259C763.437 257.226 766.631 257.609 769.711 258.408C772.846 259.22 775.138 260.26 776.586 261.527C778.048 262.798 778.639 264.191 778.36 265.707C778.082 267.223 776.92 268.762 774.874 270.323L766.315 268.103ZM759.408 291.321L794.437 265.299L811.349 269.685C814.456 270.491 816.666 271.447 817.978 272.553C819.291 273.658 819.791 274.851 819.479 276.13C819.178 277.4 818.15 278.688 816.394 279.992C815.026 281.009 813.493 281.817 811.795 282.417C810.109 283.008 808.358 283.399 806.541 283.591C804.75 283.778 802.982 283.782 801.237 283.604L800.895 283.858C802.447 284.318 803.576 284.988 804.283 285.868C805.004 286.752 805.177 287.774 804.803 288.934C804.44 290.085 803.397 291.301 801.676 292.58C799.817 293.96 797.601 295.049 795.028 295.844C792.48 296.634 789.704 297.063 786.702 297.13C783.699 297.197 780.617 296.821 777.455 296.001L759.408 291.321ZM774.393 289.139L781.674 291.027C784.162 291.672 786.371 291.851 788.299 291.562C790.238 291.265 791.869 290.625 793.192 289.643C794.161 288.923 794.734 288.214 794.912 287.518C795.089 286.821 794.866 286.18 794.243 285.596C793.634 285.015 792.614 284.539 791.184 284.168L783.698 282.227L774.393 289.139ZM788.709 278.504L795.33 280.221C796.553 280.538 797.816 280.689 799.119 280.672C800.446 280.651 801.715 280.465 802.927 280.117C804.152 279.772 805.226 279.256 806.15 278.57C807.415 277.63 807.893 276.731 807.582 275.873C807.285 275.019 806.146 274.335 804.166 273.822L797.381 272.062L788.709 278.504ZM828.024 280.128L834.13 275.592L868.82 284.588L862.714 289.124L849.783 285.771L820.86 307.257L812.033 304.968L840.955 283.482L828.024 280.128Z" fill="white"/>
<path d="M714.142 313.133L714.529 312.845C715.869 311.859 717.071 311.108 718.137 310.592C719.212 310.079 720.263 309.712 721.29 309.49C722.317 309.269 723.409 309.11 724.565 309.014C725.438 308.936 726.262 308.833 727.038 308.707C727.814 308.58 728.532 308.405 729.193 308.18C729.862 307.95 730.444 307.651 730.938 307.284C731.462 306.894 731.771 306.514 731.864 306.141C731.957 305.769 731.853 305.438 731.552 305.146C731.261 304.858 730.808 304.634 730.194 304.474C729.598 304.32 728.924 304.255 728.172 304.281C727.428 304.302 726.673 304.426 725.908 304.654C725.151 304.877 724.447 305.216 723.796 305.672L718.186 304.217C719.752 303.1 721.446 302.282 723.269 301.764C725.099 301.241 726.945 300.977 728.806 300.972C730.675 300.961 732.439 301.171 734.098 301.601C735.922 302.074 737.285 302.679 738.186 303.416C739.094 304.146 739.476 304.965 739.331 305.872C739.185 306.779 738.448 307.727 737.117 308.715C736.228 309.376 735.259 309.917 734.209 310.338C733.177 310.756 732.078 311.08 730.914 311.312C729.757 311.537 728.535 311.697 727.247 311.789C726.166 311.867 725.198 311.989 724.342 312.156C723.496 312.325 722.704 312.569 721.966 312.888C721.236 313.209 720.495 313.646 719.74 314.197L719.353 314.485L714.142 313.133ZM709.566 319.26C708.65 319.023 708.132 318.622 708.013 318.058C707.911 317.49 708.241 316.928 709.003 316.372C709.739 315.816 710.694 315.424 711.867 315.195C713.05 314.968 714.1 314.974 715.017 315.211C715.888 315.437 716.387 315.833 716.515 316.4C716.643 316.966 716.339 317.527 715.603 318.083C715.092 318.454 714.472 318.754 713.742 318.983C713.029 319.21 712.3 319.352 711.554 319.41C710.816 319.462 710.153 319.413 709.566 319.26ZM737.857 319.283L738.245 318.995C739.584 318.009 740.787 317.258 741.852 316.742C742.927 316.229 743.978 315.861 745.006 315.64C746.033 315.419 747.125 315.26 748.281 315.164C749.153 315.085 749.977 314.983 750.753 314.857C751.529 314.73 752.248 314.555 752.909 314.33C753.578 314.1 754.159 313.801 754.653 313.434C755.178 313.044 755.486 312.663 755.579 312.291C755.672 311.919 755.568 311.588 755.268 311.296C754.976 311.008 754.524 310.783 753.91 310.624C753.314 310.47 752.64 310.405 751.888 310.431C751.143 310.452 750.388 310.576 749.624 310.804C748.866 311.027 748.162 311.366 747.511 311.822L741.902 310.367C743.468 309.25 745.162 308.432 746.984 307.914C748.814 307.391 750.66 307.127 752.522 307.122C754.391 307.111 756.155 307.321 757.814 307.751C759.638 308.224 761.001 308.829 761.901 309.566C762.81 310.296 763.191 311.115 763.046 312.022C762.901 312.929 762.163 313.877 760.833 314.865C759.944 315.526 758.974 316.067 757.925 316.488C756.893 316.906 755.794 317.23 754.629 317.462C753.472 317.687 752.25 317.847 750.963 317.939C749.881 318.017 748.913 318.139 748.058 318.306C747.212 318.475 746.42 318.719 745.681 319.038C744.952 319.359 744.21 319.795 743.456 320.347L743.068 320.635L737.857 319.283ZM733.282 325.41C732.365 325.173 731.848 324.772 731.729 324.208C731.627 323.64 731.957 323.078 732.719 322.522C733.454 321.966 734.409 321.574 735.583 321.345C736.766 321.118 737.816 321.124 738.732 321.361C739.603 321.587 740.103 321.983 740.23 322.55C740.358 323.116 740.054 323.677 739.319 324.233C738.808 324.603 738.187 324.903 737.458 325.133C736.745 325.36 736.015 325.502 735.269 325.56C734.531 325.612 733.869 325.562 733.282 325.41ZM761.573 325.433L761.96 325.145C763.3 324.159 764.502 323.408 765.568 322.892C766.643 322.379 767.694 322.011 768.721 321.79C769.748 321.569 770.84 321.41 771.996 321.314C772.869 321.235 773.693 321.133 774.469 321.007C775.245 320.88 775.964 320.705 776.625 320.48C777.293 320.25 777.875 319.951 778.369 319.584C778.893 319.194 779.202 318.813 779.295 318.441C779.388 318.069 779.284 317.738 778.983 317.446C778.692 317.157 778.239 316.933 777.625 316.774C777.029 316.62 776.355 316.555 775.603 316.581C774.859 316.601 774.104 316.726 773.339 316.954C772.582 317.177 771.878 317.516 771.227 317.972L765.617 316.517C767.183 315.4 768.878 314.582 770.7 314.064C772.53 313.541 774.376 313.277 776.237 313.272C778.106 313.261 779.87 313.471 781.53 313.901C783.354 314.374 784.716 314.979 785.617 315.715C786.525 316.446 786.907 317.265 786.762 318.172C786.617 319.079 785.879 320.027 784.549 321.015C783.659 321.676 782.69 322.217 781.641 322.638C780.608 323.056 779.51 323.38 778.345 323.612C777.188 323.837 775.966 323.996 774.678 324.089C773.597 324.167 772.629 324.289 771.774 324.456C770.927 324.625 770.135 324.869 769.397 325.188C768.667 325.509 767.926 325.945 767.172 326.496L766.784 326.784L761.573 325.433ZM756.998 331.56C756.081 331.323 755.563 330.922 755.445 330.358C755.343 329.79 755.673 329.228 756.434 328.672C757.17 328.116 758.125 327.723 759.299 327.495C760.482 327.268 761.531 327.274 762.448 327.511C763.319 327.737 763.818 328.133 763.946 328.7C764.074 329.266 763.77 329.827 763.034 330.383C762.523 330.753 761.903 331.053 761.173 331.283C760.46 331.51 759.731 331.652 758.985 331.71C758.247 331.762 757.584 331.712 756.998 331.56Z" fill="white"/>
<defs>
<linearGradient id="paint0_linear_275_357" x1="189.658" y1="755.722" x2="348.611" y2="693.293" gradientUnits="userSpaceOnUse">
<stop offset="0.08" stop-color="#815AF0"/>
<stop offset="0.3" stop-color="#8752F3"/>
<stop offset="0.5" stop-color="#5497D5"/>
<stop offset="0.6" stop-color="#43B4CA"/>
<stop offset="0.72" stop-color="#28E0B9"/>
<stop offset="0.97" stop-color="#19FB9B"/>
</linearGradient>
<clipPath id="clip0_275_357">
<rect width="537.174" height="406.097" rx="15" transform="matrix(0.967313 0.253585 -0.786033 0.618184 396.73 525.896)" fill="white"/>
</clipPath>
<clipPath id="clip1_275_357">
<rect width="192.879" height="129.142" fill="white" transform="matrix(0.972534 0.232759 -0.668918 0.743336 220.592 655.896)"/>
</clipPath>
<clipPath id="clip2_275_357">
<rect width="182.419" height="124.023" fill="white" transform="matrix(0.949062 0.31509 -0.708521 0.70569 669.873 625)"/>
</clipPath>
<clipPath id="clip3_275_357">
<rect width="537.174" height="441.826" rx="15" transform="matrix(0.967313 0.253585 -0.786033 0.618184 429.5 329.862)" fill="white"/>
</clipPath>
<clipPath id="clip4_275_357">
<rect width="387.712" height="364.882" fill="white" transform="matrix(0.96705 0.254586 -0.784766 0.619792 477.867 372.156)"/>
</clipPath>
<clipPath id="clip5_275_357">
<rect width="80" height="80" rx="40" transform="matrix(0.96705 0.254586 -0.784766 0.619792 555.193 567.708)" fill="white"/>
</clipPath>
<clipPath id="clip6_275_357">
<rect width="283.79" height="212.778" fill="white" transform="matrix(0.948459 0.316901 -0.753052 0.657961 660.232 584)"/>
</clipPath>
</defs>
</svg>
