<svg width="1000" height="1000" viewBox="0 0 1000 1000" fill="none" xmlns="http://www.w3.org/2000/svg">
<g clip-path="url(#clip0_340_224)">
<rect width="537.174" height="406.097" rx="15" transform="matrix(0.967313 0.253585 -0.786033 0.618184 396.73 525.896)" fill="#FF713B"/>
<g clip-path="url(#clip1_340_224)">
<path d="M572.319 651.347L567.521 653.751L478.929 739.083L479.778 740.483L583.967 741.618L572.319 651.347Z" fill="#343434"/>
<path d="M572.319 651.348L424.204 692.521L479.777 740.484L522.777 699.067L572.319 651.348Z" fill="#8C8C8C"/>
<path d="M471.99 747.983L470.39 748.275L438.832 778.672L438.337 780.398L576.215 749.145L471.99 747.983Z" fill="#3C3C3B"/>
<path d="M438.338 780.399L471.992 747.984L416.406 700.033L438.338 780.399Z" fill="#8C8C8C"/>
<path d="M479.776 740.483L583.964 741.619L522.775 699.066L479.776 740.483Z" fill="#141414"/>
<path d="M424.205 692.521L479.777 740.483L522.776 699.066L424.205 692.521Z" fill="#393939"/>
</g>
<g clip-path="url(#clip2_340_224)">
<path d="M304.858 761.322L273.241 772.228C272.556 772.465 271.849 772.616 271.164 772.672C270.479 772.727 269.831 772.685 269.261 772.549L184.22 752.196C183.815 752.099 183.502 751.91 183.321 751.653C183.14 751.397 183.097 751.083 183.2 750.75C183.302 750.418 183.544 750.081 183.896 749.781C184.248 749.481 184.695 749.232 185.182 749.062L216.779 738.152C217.464 737.914 218.171 737.763 218.856 737.708C219.541 737.653 220.189 737.695 220.759 737.831L305.8 758.184C306.215 758.275 306.537 758.46 306.726 758.717C306.915 758.973 306.963 759.289 306.862 759.624C306.762 759.96 306.517 760.3 306.16 760.602C305.804 760.904 305.351 761.155 304.858 761.322ZM314.468 726.414C314.374 725.992 314.14 725.617 313.78 725.312C313.42 725.007 312.942 724.778 312.374 724.639L227.333 704.286C226.928 704.189 226.447 704.188 225.949 704.283C225.452 704.377 224.96 704.563 224.533 704.818C224.107 705.073 223.764 705.385 223.548 705.718C223.331 706.05 223.25 706.387 223.314 706.688L227.548 726.184C227.642 726.606 227.876 726.981 228.236 727.286C228.596 727.591 229.075 727.82 229.642 727.959L314.683 748.312C315.089 748.407 315.57 748.407 316.066 748.312C316.563 748.216 317.053 748.03 317.478 747.775C317.903 747.52 318.245 747.208 318.459 746.876C318.675 746.545 318.757 746.208 318.692 745.908L314.468 726.414ZM236.217 694.415L321.257 714.768C321.828 714.904 322.476 714.945 323.161 714.89C323.845 714.835 324.552 714.684 325.237 714.447L356.855 703.541C357.347 703.373 357.8 703.123 358.157 702.821C358.514 702.519 358.758 702.179 358.858 701.843C358.96 701.508 358.912 701.192 358.723 700.935C358.534 700.679 358.211 700.493 357.796 700.402L272.756 680.049C272.185 679.913 271.537 679.872 270.853 679.927C270.168 679.982 269.461 680.133 268.776 680.37L237.179 691.281C236.692 691.45 236.244 691.7 235.892 692C235.54 692.299 235.298 692.636 235.196 692.969C235.094 693.301 235.136 693.615 235.318 693.872C235.499 694.129 235.811 694.317 236.217 694.415Z" fill="url(#paint0_linear_340_224)"/>
</g>
<line y1="-0.5" x2="296.169" y2="-0.5" transform="matrix(5.92472e-09 0.54232 -1.86471 0.131826 562.592 656.648)" stroke="white" stroke-opacity="0.8"/>
</g>
<rect x="0.18128" y="0.871769" width="535.174" height="404.097" rx="14" transform="matrix(0.967313 0.253585 -0.786033 0.618184 397.422 526.183)" stroke="white" stroke-width="2"/>
<line x1="251.929" y1="586" x2="251.929" y2="739" stroke="white" stroke-opacity="0.8"/>
<g clip-path="url(#clip3_340_224)">
<rect width="537.174" height="441.826" rx="15" transform="matrix(0.967313 0.253585 -0.786033 0.618184 429.5 329.861)" fill="#FF713B" fill-opacity="0.5"/>
<path d="M456.283 356.971C457.093 356.26 457.336 355.606 457.011 355.012C456.686 354.417 455.809 353.934 454.379 353.563C453.407 353.311 452.473 353.183 451.575 353.179C450.686 353.17 449.865 353.265 449.112 353.466C448.368 353.669 447.746 353.957 447.244 354.33C446.807 354.636 446.548 354.934 446.465 355.225C446.392 355.519 446.448 355.803 446.632 356.08C446.824 356.351 447.107 356.618 447.481 356.883C447.862 357.142 448.302 357.393 448.803 357.637L450.831 358.666C451.831 359.154 452.654 359.672 453.301 360.22C453.948 360.769 454.369 361.347 454.566 361.954C454.763 362.561 454.691 363.198 454.351 363.864C454.02 364.532 453.373 365.229 452.409 365.954C450.97 367.013 449.291 367.82 447.372 368.373C445.468 368.924 443.412 369.202 441.203 369.208C439.01 369.211 436.768 368.915 434.477 368.321C432.203 367.731 430.512 367.003 429.403 366.136C428.304 365.272 427.848 364.297 428.036 363.211C428.242 362.121 429.161 360.947 430.796 359.687L436.557 361.181C435.838 361.779 435.455 362.335 435.407 362.848C435.376 363.358 435.63 363.816 436.171 364.223C436.728 364.627 437.52 364.962 438.547 365.228C439.555 365.489 440.552 365.626 441.538 365.638C442.533 365.652 443.453 365.552 444.299 365.337C445.145 365.122 445.849 364.805 446.412 364.388C446.936 363.998 447.189 363.622 447.171 363.259C447.161 362.898 446.924 362.532 446.46 362.16C446.005 361.791 445.367 361.397 444.546 360.978L442.118 359.709C440.223 358.737 439.097 357.695 438.741 356.582C438.384 355.469 439.074 354.272 440.808 352.993C442.213 351.94 443.902 351.14 445.875 350.593C447.858 350.048 449.952 349.764 452.158 349.742C454.365 349.72 456.494 349.975 458.548 350.508C460.638 351.05 462.165 351.743 463.131 352.588C464.105 353.435 464.5 354.363 464.314 355.374C464.128 356.385 463.353 357.411 461.99 358.451L456.283 356.971ZM533.759 382.033C531.213 383.925 528.464 385.384 525.514 386.409C522.572 387.436 519.631 388.041 516.69 388.223C513.766 388.402 511.062 388.169 508.578 387.525C506.075 386.876 504.301 385.944 503.254 384.728C502.208 383.511 502 382.09 502.632 380.464C503.263 378.837 504.848 377.081 507.387 375.195C509.934 373.303 512.678 371.843 515.619 370.816C518.561 369.788 521.493 369.185 524.418 369.006C527.349 368.822 530.066 369.054 532.569 369.703C535.053 370.347 536.818 371.277 537.865 372.493C538.928 373.706 539.144 375.126 538.513 376.752C537.89 378.381 536.306 380.142 533.759 382.033ZM527.723 380.468C529.373 379.243 530.466 378.132 531.003 377.136C531.549 376.143 531.578 375.289 531.091 374.576C530.604 373.863 529.641 373.32 528.202 372.947C526.762 372.574 525.214 372.466 523.556 372.622C521.898 372.779 520.205 373.201 518.477 373.888C516.757 374.577 515.073 375.534 513.423 376.76C511.774 377.985 510.676 379.095 510.13 380.088C509.593 381.084 509.568 381.939 510.056 382.652C510.543 383.365 511.506 383.908 512.945 384.281C514.384 384.654 515.933 384.762 517.59 384.606C519.248 384.449 520.937 384.026 522.656 383.337C524.385 382.65 526.074 381.693 527.723 380.468ZM613.702 391.062L619.656 392.606L604.491 403.872C602.788 405.137 600.807 406.117 598.55 406.811C596.301 407.508 593.944 407.895 591.478 407.971C589.021 408.043 586.628 407.776 584.299 407.173C581.962 406.566 580.271 405.774 579.227 404.795C578.191 403.81 577.826 402.717 578.131 401.516C578.437 400.316 579.441 399.083 581.144 397.818L596.309 386.552L602.263 388.096L587.519 399.048C586.63 399.709 586.073 400.357 585.849 400.992C585.633 401.63 585.759 402.207 586.225 402.724C586.692 403.241 587.498 403.648 588.644 403.945C589.799 404.245 591 404.358 592.248 404.286C593.505 404.215 594.713 403.984 595.872 403.591C597.041 403.201 598.069 402.676 598.959 402.015L613.702 391.062ZM647.665 423.273L671.018 405.925L676.971 407.469L657.689 421.793L669.762 424.924L665.691 427.948L647.665 423.273ZM726.079 443.607L716.097 441.019L739.449 423.671L749.514 426.281C752.347 427.016 754.317 427.995 755.427 429.22C756.543 430.439 756.781 431.838 756.14 433.416C755.509 434.997 753.98 436.688 751.556 438.489C749.123 440.296 746.478 441.706 743.62 442.717C740.772 443.73 737.849 444.317 734.852 444.477C731.863 444.639 728.939 444.349 726.079 443.607ZM726.281 439.42L730.062 440.401C731.822 440.857 733.561 441.049 735.279 440.976C737.013 440.9 738.73 440.534 740.43 439.878C742.146 439.219 743.875 438.242 745.616 436.949C747.341 435.667 748.444 434.54 748.925 433.568C749.414 432.597 749.317 431.765 748.633 431.069C747.949 430.374 746.728 429.798 744.968 429.342L741.173 428.358L726.281 439.42ZM790.73 460.373L814.082 443.025L833.057 447.945L828.986 450.969L815.965 447.593L810.401 451.726L822.446 454.85L818.375 457.874L806.33 454.75L800.754 458.893L813.83 462.283L809.76 465.307L790.73 460.373ZM889.341 462.541L878.405 477.486L878.666 477.554L903.228 466.142L909.828 467.854L876.768 482.684L869.096 480.694L882.727 460.826L889.341 462.541Z" fill="white"/>
<path d="M155.382 604.4L146.283 611.16L142.685 610.227L158.01 598.842L161.463 599.738L158.969 601.591L159.198 601.65C160.434 601.157 161.752 600.846 163.15 600.715C164.557 600.587 165.954 600.702 167.341 601.062C168.601 601.389 169.484 601.838 169.992 602.409C170.506 602.976 170.594 603.645 170.258 604.418C169.921 605.191 169.121 606.046 167.857 606.985L158.109 614.226L154.512 613.294L163.9 606.319C165.011 605.494 165.53 604.759 165.458 604.113C165.392 603.463 164.749 602.98 163.53 602.663C162.696 602.447 161.805 602.366 160.856 602.42C159.915 602.476 158.966 602.67 158.011 603.002C157.07 603.331 156.193 603.797 155.382 604.4ZM218.02 630.072C216.199 629.6 214.954 628.954 214.284 628.134C213.628 627.31 213.532 626.369 213.996 625.309C214.474 624.247 215.508 623.125 217.097 621.944C218.667 620.778 220.404 619.842 222.307 619.135C224.218 618.431 226.147 617.995 228.094 617.826C230.049 617.66 231.885 617.799 233.601 618.244C234.644 618.515 235.511 618.883 236.204 619.349C236.897 619.816 237.326 620.377 237.492 621.033C237.658 621.69 237.477 622.439 236.948 623.282C236.426 624.12 235.47 625.055 234.08 626.088L233.022 626.874L218.332 623.064L220.567 621.404L231.732 624.299C232.517 623.716 233.02 623.15 233.24 622.6C233.467 622.046 233.408 621.547 233.062 621.104C232.725 620.664 232.091 620.323 231.161 620.081C230.15 619.819 229.062 619.744 227.895 619.855C226.744 619.963 225.634 620.208 224.567 620.591C223.514 620.971 222.605 621.446 221.84 622.014L220.094 623.311C219.07 624.072 218.415 624.775 218.13 625.421C217.852 626.069 217.917 626.636 218.324 627.122C218.738 627.602 219.47 627.979 220.52 628.251C221.202 628.428 221.904 628.53 222.625 628.557C223.352 628.579 224.084 628.522 224.819 628.386C225.554 628.25 226.269 628.032 226.964 627.732L229.86 628.993C228.756 629.54 227.539 629.954 226.208 630.236C224.891 630.514 223.531 630.645 222.126 630.627C220.736 630.607 219.367 630.422 218.02 630.072ZM301.631 636.086L299.237 637.865L289.143 635.247L291.537 633.468L301.631 636.086ZM297.916 631.443L301.513 632.376L287.016 643.145C286.438 643.575 286.106 643.926 286.022 644.197C285.945 644.464 286.017 644.679 286.24 644.843C286.477 645.005 286.792 645.137 287.185 645.239C287.473 645.313 287.743 645.367 287.993 645.398C288.242 645.429 288.437 645.453 288.578 645.47L286.763 647.469C286.488 647.464 286.125 647.437 285.673 647.386C285.215 647.341 284.694 647.246 284.11 647.101C283.15 646.865 282.407 646.533 281.882 646.103C281.356 645.674 281.147 645.166 281.254 644.58C281.36 643.995 281.876 643.359 282.801 642.672L297.916 631.443ZM341.723 661.841L351.61 649.047L355.328 650.011L347.695 659.31L347.875 659.357L362.763 651.939L366.481 652.903L358.885 662.162L359.066 662.209L373.868 654.818L377.585 655.782L356.834 665.76L353.165 664.808L360.476 655.615L360.199 655.543L345.381 662.79L341.723 661.841ZM420.017 682.454C418.285 682.005 417.102 681.368 416.469 680.544C415.837 679.72 415.755 678.776 416.225 677.711C416.696 676.647 417.722 675.526 419.305 674.35C420.895 673.169 422.642 672.229 424.546 671.53C426.451 670.831 428.378 670.404 430.328 670.249C432.278 670.095 434.119 670.243 435.851 670.692C437.584 671.141 438.766 671.778 439.399 672.602C440.032 673.426 440.11 674.373 439.633 675.442C439.157 676.512 438.123 677.637 436.534 678.818C434.951 679.994 433.21 680.929 431.312 681.624C429.414 682.318 427.491 682.742 425.541 682.897C423.591 683.051 421.75 682.904 420.017 682.454ZM422.534 680.597C423.657 680.888 424.833 680.947 426.063 680.772C427.293 680.598 428.494 680.253 429.665 679.737C430.844 679.223 431.926 678.6 432.91 677.868C433.888 677.142 434.605 676.428 435.063 675.727C435.535 675.023 435.651 674.39 435.412 673.828C435.173 673.266 434.492 672.839 433.369 672.548C432.238 672.255 431.05 672.197 429.805 672.374C428.569 672.553 427.357 672.902 426.172 673.421C425.001 673.938 423.926 674.559 422.949 675.285C421.964 676.017 421.239 676.732 420.774 677.431C420.317 678.132 420.211 678.762 420.457 679.319C420.71 679.878 421.403 680.304 422.534 680.597ZM480.387 697.8L495.712 686.415L499.189 687.317L496.755 689.125L496.947 689.175C498.109 688.65 499.351 688.322 500.674 688.192C502.011 688.058 503.221 688.132 504.304 688.413C504.528 688.471 504.786 688.545 505.078 688.634C505.377 688.725 505.605 688.8 505.762 688.861L502.908 690.981C502.797 690.919 502.577 690.825 502.248 690.7C501.925 690.569 501.58 690.456 501.211 690.361C500.361 690.14 499.453 690.055 498.488 690.105C497.538 690.151 496.607 690.32 495.697 690.611C494.793 690.896 494.009 691.286 493.343 691.78L483.985 698.732L480.387 697.8ZM549.328 710.468L552.945 707.756L553.571 707.918L567.419 705.01L571.726 706.127L555.946 709.434L555.38 709.287L549.328 710.468ZM540.821 713.471L561.255 698.292L564.852 699.225L544.418 714.404L540.821 713.471ZM552.491 716.497L553.158 709.371L557.721 708.465L556.907 717.642L552.491 716.497Z" fill="white"/>
</g>
<rect x="0.18128" y="0.871769" width="535.174" height="439.826" rx="14" transform="matrix(0.967313 0.253585 -0.786033 0.618184 430.191 330.148)" stroke="white" stroke-width="2"/>
<g clip-path="url(#clip4_340_224)">
<ellipse rx="88.7224" ry="79.6927" transform="matrix(0.96705 0.254586 -0.784766 0.619792 582.222 484.539)" fill="white"/>
<path d="M338.132 509.674C353.468 497.562 382.492 493.364 397.066 501.15L488.499 549.998C492.122 551.934 496.869 553.205 502.331 553.702L648.896 567.04C670.715 569.025 677.051 582.512 661.817 594.543L625.234 623.435L582.304 657.341C569.301 667.61 545.772 672.515 529.749 668.297L264.414 598.445C248.392 594.227 245.943 582.483 258.946 572.214L338.132 509.674Z" fill="white"/>
<g clip-path="url(#clip5_340_224)">
<rect width="80" height="80" rx="40" transform="matrix(0.96705 0.254586 -0.784766 0.619792 555.193 567.707)" fill="white"/>
<path d="M545.413 623.719C533.085 624.616 525.29 617.895 528.003 608.708C530.716 599.521 538.305 607.959 550.633 607.063C562.961 606.166 575.361 596.275 572.648 605.462C569.935 614.649 557.741 622.823 545.413 623.719Z" fill="#FF713B"/>
<path d="M574.241 580.875C586.723 578.836 597.071 584.344 597.354 593.176C597.637 602.009 586.924 594.88 574.441 596.918C561.959 598.957 552.434 609.391 552.152 600.559C551.869 591.726 561.758 582.913 574.241 580.875Z" fill="#FF713B"/>
</g>
<rect x="0.182284" y="0.874378" width="78" height="78" rx="39" transform="matrix(0.96705 0.254586 -0.784766 0.619792 555.886 567.993)" stroke="#FF713B" stroke-width="2"/>
<line x1="440.927" y1="524.996" x2="441.427" y2="653.998" stroke="white" stroke-opacity="0.8"/>
<mask id="mask0_340_224" style="mask-type:alpha" maskUnits="userSpaceOnUse" x="308" y="517" width="127" height="70">
<path fill-rule="evenodd" clip-rule="evenodd" d="M349.236 517.252L434.377 535.098L393.302 586.101L308.161 568.255L349.236 517.252Z" fill="white"/>
</mask>
<g mask="url(#mask0_340_224)">
<path fill-rule="evenodd" clip-rule="evenodd" d="M350.73 577.177C327.317 572.269 317.402 556.778 328.8 542.625C340.309 528.644 368.495 521.139 392.019 526.219C415.33 531.254 425.134 546.573 413.633 560.854C402.227 574.708 374.144 582.085 350.73 577.177Z" fill="#0090FF"/>
<path fill-rule="evenodd" clip-rule="evenodd" d="M377.777 549.464L373.214 553.276L384.525 556.84L382.133 558.574L371.035 555.055C368.849 556.534 366.986 558.23 364.689 559.537C362.187 561.099 359.685 562.661 357.073 564.051C353.625 565.862 349.412 566.767 345.06 566.302C342.513 566.066 340.062 565.403 338.865 564.109C338.432 563.72 338.204 563.077 338.512 562.694C338.923 562.184 339.862 561.636 340.706 561.515C341.234 561.476 342.196 561.827 342.732 562.088C343.062 562.605 343.29 563.249 343.305 563.848C343.761 565.136 345.361 565.62 347.68 565.212C350.417 564.593 352.611 563.414 354.379 562.145C358.12 559.353 361.759 556.688 365.288 553.851L365.699 553.341L355.239 549.956L357.205 548.132L368.091 551.606L372.764 547.966L361.556 544.275L363.624 542.324L375.361 545.977C376.403 545.301 377.129 544.708 378.068 544.16C380.981 542.088 383.894 540.016 388.091 538.511C392.288 537.006 396.295 536.356 400.662 537.42C402.578 537.822 404.186 538.606 404.744 539.766C404.854 539.938 405.074 540.283 404.869 540.538C404.458 541.048 403.945 541.685 402.998 541.934C401.839 542.138 400.877 541.787 400.436 541.099C400.106 540.582 399.988 540.111 399.658 539.594C399.202 538.306 397.389 537.777 395.18 538.358C393.603 538.772 391.82 539.442 390.462 540.2C386.816 542.566 383.492 545.148 379.743 547.641L390.629 551.114L388.237 552.849L377.777 549.464Z" fill="white"/>
</g>
</g>
<g clip-path="url(#clip6_340_224)">
<path d="M818.75 677.206L763.545 688.051C762.754 688.209 762.107 688.521 761.723 688.93C761.339 689.339 761.244 689.817 761.455 690.276C761.667 690.734 762.171 691.142 762.874 691.424C763.578 691.706 764.432 691.843 765.281 691.81L808.283 690.027C808.538 690.014 808.798 690.043 809.03 690.109C809.262 690.175 809.457 690.276 809.591 690.4C809.725 690.523 809.792 690.664 809.784 690.805C809.776 690.946 809.694 691.08 809.547 691.192L759.665 730.308C759.512 730.428 759.294 730.517 759.04 730.564C758.786 730.611 758.508 730.614 758.244 730.571C757.981 730.528 757.744 730.442 757.566 730.325C757.388 730.208 757.278 730.065 757.251 729.916L741.894 645.421C741.632 644.073 740.841 642.76 739.575 641.573C738.308 640.386 736.598 639.354 734.562 638.548L731.702 637.416C727.985 635.946 723.419 635.321 719.007 635.68C714.595 636.038 710.7 637.351 708.177 639.329L637.924 694.42C635.402 696.397 634.46 698.879 635.305 701.317C636.149 703.756 638.712 705.952 642.429 707.422C644.825 708.371 647.598 708.977 650.484 709.183C653.369 709.388 656.27 709.187 658.911 708.597L714.116 697.752C714.907 697.594 715.554 697.281 715.938 696.872C716.322 696.464 716.417 695.986 716.205 695.527C715.994 695.069 715.49 694.661 714.786 694.379C714.083 694.097 713.228 693.959 712.38 693.993L669.377 695.776C669.122 695.789 668.863 695.76 668.631 695.694C668.399 695.628 668.204 695.527 668.07 695.403C667.936 695.28 667.869 695.139 667.877 694.998C667.884 694.857 667.967 694.723 668.114 694.61L718.008 655.485C718.161 655.365 718.379 655.276 718.633 655.229C718.888 655.182 719.165 655.18 719.429 655.222C719.693 655.265 719.929 655.351 720.107 655.468C720.285 655.585 720.395 655.728 720.422 655.877L735.758 740.379C736.019 741.726 736.811 743.039 738.077 744.226C739.343 745.413 741.054 746.445 743.09 747.251L745.949 748.383C747.79 749.112 749.859 749.641 752.038 749.94C754.217 750.239 756.463 750.301 758.648 750.124C760.834 749.947 762.916 749.533 764.775 748.907C766.634 748.281 768.234 747.454 769.483 746.474L839.736 691.383C842.259 689.405 843.201 686.924 842.356 684.486C841.511 682.047 838.949 679.851 835.232 678.38C832.836 677.432 830.063 676.826 827.177 676.62C824.292 676.415 821.391 676.616 818.75 677.206Z" fill="white"/>
<line x1="666.929" y1="584" x2="666.929" y2="737" stroke="white" stroke-opacity="0.8"/>
</g>
<path d="M563 319L564 636.026" stroke="white" stroke-opacity="0.8"/>
<path d="M251.5 297L251.5 587.03" stroke="white" stroke-opacity="0.8"/>
<path d="M667 205L667 577" stroke="white" stroke-opacity="0.8"/>
<path d="M778 339L778 711" stroke="white" stroke-opacity="0.8"/>
<path d="M440.999 196L441 525.5" stroke="white" stroke-opacity="0.8"/>
<g clip-path="url(#clip7_340_224)">
<rect width="214.308" height="220.601" rx="15" transform="matrix(0.967313 0.253585 -0.786033 0.618184 288.402 165.758)" fill="#FF713B" fill-opacity="0.3"/>
<path d="M451.394 239.552C442.597 246.327 428.832 247.744 420.653 243.022C412.475 238.3 412.608 229.013 421.404 222.238C430.201 215.462 443.966 214.046 452.145 218.767C460.323 223.489 460.19 232.777 451.394 239.552Z" fill="white" fill-opacity="0.6" stroke="white" stroke-width="2"/>
<path d="M440.257 226.679L445.185 230.808L441.199 234.646L432.307 234.357L427.376 230.23L431.362 226.393L440.257 226.679ZM443.187 223.858L439.915 223.752L431.007 223.462L427.734 223.357L426.269 224.767L422.286 228.601L420.821 230.012L422.628 231.528L427.556 235.657L429.364 237.173L432.636 237.279L441.531 237.565L444.801 237.674L446.266 236.263L450.252 232.426L451.717 231.016L449.91 229.499L444.982 225.37L443.175 223.854L443.187 223.858Z" fill="#375BD2"/>
<path d="M305.483 187.849L296.862 190.519C296.738 190.558 296.634 190.62 296.568 190.693C296.501 190.767 296.478 190.847 296.502 190.919C296.525 190.991 296.594 191.05 296.696 191.086C296.798 191.121 296.926 191.13 297.056 191.111L303.645 190.128C303.684 190.122 303.723 190.122 303.757 190.13C303.791 190.137 303.819 190.15 303.837 190.169C303.855 190.187 303.863 190.209 303.859 190.232C303.855 190.256 303.84 190.279 303.816 190.3L295.473 197.542C295.447 197.564 295.412 197.582 295.373 197.594C295.333 197.606 295.291 197.611 295.251 197.608C295.212 197.605 295.178 197.595 295.153 197.578C295.128 197.562 295.114 197.54 295.112 197.516L294.366 183.844C294.352 183.626 294.256 183.423 294.085 183.248C293.915 183.072 293.673 182.93 293.378 182.829L292.963 182.689C292.425 182.506 291.74 182.476 291.061 182.606C290.382 182.736 289.763 183.015 289.341 183.381L277.591 193.58C277.17 193.946 276.979 194.37 277.062 194.758C277.145 195.146 277.494 195.467 278.033 195.65C278.38 195.768 278.791 195.823 279.227 195.811C279.663 195.798 280.109 195.719 280.523 195.579L289.144 192.909C289.267 192.87 289.372 192.808 289.438 192.735C289.504 192.661 289.528 192.581 289.504 192.509C289.481 192.437 289.411 192.378 289.31 192.342C289.208 192.307 289.08 192.298 288.95 192.317L282.361 193.3C282.322 193.306 282.283 193.305 282.248 193.298C282.214 193.291 282.186 193.278 282.168 193.259C282.15 193.241 282.143 193.219 282.147 193.196C282.15 193.172 282.166 193.149 282.19 193.128L290.535 185.884C290.56 185.862 290.595 185.844 290.635 185.832C290.675 185.82 290.717 185.816 290.756 185.818C290.796 185.821 290.83 185.832 290.855 185.848C290.88 185.864 290.894 185.886 290.895 185.91L291.638 199.583C291.653 199.801 291.749 200.005 291.919 200.18C292.09 200.355 292.331 200.498 292.626 200.598L293.041 200.739C293.308 200.829 293.613 200.883 293.94 200.897C294.266 200.912 294.607 200.886 294.944 200.822C295.28 200.758 295.606 200.656 295.901 200.523C296.196 200.39 296.456 200.229 296.665 200.047L308.414 189.848C308.836 189.482 309.027 189.058 308.944 188.67C308.861 188.282 308.512 187.961 307.973 187.778C307.626 187.66 307.214 187.605 306.778 187.617C306.342 187.63 305.896 187.709 305.483 187.849Z" fill="white"/>
<path d="M308.394 200.552C299.597 207.327 285.832 208.744 277.653 204.022C269.475 199.3 269.608 190.013 278.404 183.238C287.201 176.462 300.966 175.046 309.145 179.767C317.323 184.489 317.19 193.777 308.394 200.552Z" fill="white" fill-opacity="0.6" stroke="#FF713B" stroke-width="2"/>
</g>
<rect x="0.18128" y="0.871769" width="212.308" height="218.601" rx="14" transform="matrix(0.967313 0.253585 -0.786033 0.618184 289.094 166.045)" stroke="white" stroke-width="2"/>
<path d="M291.317 233.861C292.532 232.793 292.895 231.813 292.408 230.921C291.921 230.029 290.605 229.305 288.46 228.749C287.002 228.371 285.601 228.179 284.255 228.173C282.92 228.158 281.689 228.301 280.559 228.603C279.444 228.908 278.51 229.34 277.757 229.899C277.103 230.358 276.714 230.805 276.59 231.242C276.48 231.682 276.563 232.109 276.84 232.523C277.128 232.93 277.552 233.331 278.112 233.728C278.684 234.116 279.345 234.493 280.095 234.859L283.138 236.402C284.638 237.134 285.873 237.911 286.843 238.734C287.813 239.557 288.445 240.424 288.741 241.335C289.036 242.245 288.928 243.2 288.418 244.199C287.922 245.202 286.951 246.247 285.505 247.335C283.347 248.924 280.829 250.133 277.949 250.964C275.094 251.789 272.01 252.206 268.696 252.215C265.407 252.219 262.044 251.776 258.606 250.884C255.197 250 252.66 248.908 250.996 247.608C249.347 246.312 248.663 244.849 248.946 243.22C249.254 241.586 250.634 239.824 253.085 237.934L261.727 240.175C260.648 241.072 260.073 241.906 260.002 242.676C259.955 243.441 260.337 244.128 261.148 244.738C261.984 245.344 263.172 245.846 264.712 246.245C266.224 246.638 267.72 246.843 269.199 246.86C270.691 246.882 272.072 246.731 273.34 246.409C274.609 246.086 275.665 245.612 276.509 244.985C277.296 244.401 277.675 243.836 277.647 243.292C277.633 242.751 277.278 242.202 276.582 241.644C275.9 241.09 274.942 240.499 273.71 239.871L270.069 237.967C267.226 236.51 265.537 234.946 265.003 233.276C264.468 231.606 265.502 229.812 268.104 227.893C270.211 226.314 272.745 225.114 275.705 224.293C278.678 223.475 281.82 223.05 285.129 223.017C288.439 222.984 291.633 223.367 294.713 224.165C297.848 224.978 300.14 226.018 301.588 227.285C303.049 228.555 303.641 229.949 303.362 231.465C303.084 232.981 301.921 234.52 299.876 236.08L291.317 233.861ZM284.41 257.079L319.439 231.057L336.351 235.443C339.458 236.249 341.668 237.204 342.98 238.31C344.293 239.416 344.793 240.609 344.481 241.888C344.18 243.158 343.152 244.446 341.396 245.75C340.028 246.767 338.495 247.575 336.797 248.174C335.111 248.766 333.36 249.157 331.543 249.349C329.752 249.536 327.984 249.54 326.239 249.362L325.897 249.616C327.449 250.076 328.578 250.746 329.285 251.626C330.006 252.51 330.179 253.532 329.805 254.692C329.442 255.843 328.399 257.059 326.678 258.338C324.819 259.718 322.603 260.806 320.03 261.602C317.482 262.392 314.706 262.821 311.704 262.888C308.701 262.955 305.619 262.579 302.456 261.759L284.41 257.079ZM299.395 254.897L306.676 256.785C309.164 257.43 311.373 257.608 313.301 257.32C315.24 257.023 316.871 256.383 318.194 255.401C319.163 254.681 319.736 253.972 319.914 253.275C320.091 252.579 319.868 251.938 319.245 251.354C318.636 250.773 317.616 250.297 316.186 249.926L308.7 247.985L299.395 254.897ZM313.711 244.262L320.332 245.979C321.555 246.296 322.818 246.446 324.12 246.43C325.448 246.408 326.717 246.223 327.929 245.875C329.154 245.53 330.228 245.014 331.152 244.328C332.417 243.388 332.895 242.489 332.584 241.631C332.287 240.777 331.148 240.093 329.168 239.58L322.383 237.82L313.711 244.262ZM353.026 245.886L359.132 241.35L393.822 250.346L387.716 254.882L374.785 251.529L345.862 273.014L337.035 270.725L365.957 249.24L353.026 245.886Z" fill="white"/>
<path d="M223.519 266.337L213.394 273.859L207.537 272.34L230.889 254.992L236.581 256.468L227.653 263.101L227.901 263.165C229.411 262.521 230.991 262.119 232.639 261.96C234.296 261.795 235.926 261.921 237.53 262.337C238.997 262.717 240.009 263.246 240.568 263.925C241.143 264.599 241.24 265.382 240.856 266.273C240.49 267.161 239.618 268.112 238.24 269.126L227.089 277.41L221.231 275.891L231.516 268.251C232.605 267.451 233.115 266.742 233.046 266.122C232.987 265.505 232.361 265.042 231.17 264.733C230.372 264.526 229.526 264.447 228.63 264.497C227.744 264.549 226.857 264.73 225.969 265.041C225.098 265.348 224.281 265.78 223.519 266.337ZM239.326 280.915C237.979 280.566 236.972 280.11 236.305 279.549C235.646 278.982 235.394 278.334 235.547 277.604C235.718 276.871 236.381 276.075 237.536 275.217C238.509 274.494 239.542 273.943 240.634 273.564C241.726 273.184 242.845 272.941 243.99 272.834C245.135 272.727 246.283 272.72 247.432 272.812C248.591 272.907 249.734 273.059 250.863 273.268C252.198 273.507 253.287 273.691 254.129 273.818C254.98 273.939 255.67 273.973 256.199 273.92C256.728 273.867 257.179 273.702 257.551 273.425L257.62 273.375C258.342 272.838 258.626 272.352 258.471 271.915C258.326 271.482 257.753 271.135 256.754 270.876C255.7 270.603 254.667 270.529 253.656 270.655C252.653 270.776 251.762 271.025 250.982 271.402L245.93 269.726C247.269 269.007 248.729 268.464 250.311 268.097C251.901 267.724 253.542 267.548 255.234 267.568C256.943 267.584 258.641 267.811 260.328 268.249C261.501 268.553 262.51 268.929 263.354 269.376C264.208 269.826 264.812 270.337 265.168 270.909C265.532 271.484 265.581 272.114 265.314 272.799C265.055 273.478 264.405 274.205 263.363 274.978L251.55 283.754L245.995 282.313L248.424 280.509L248.259 280.466C247.373 280.785 246.436 281.026 245.45 281.189C244.471 281.346 243.465 281.409 242.432 281.378C241.406 281.34 240.371 281.186 239.326 280.915ZM244.356 278.86C245.217 279.083 246.119 279.176 247.06 279.138C248.009 279.095 248.915 278.941 249.777 278.677C250.639 278.413 251.378 278.052 251.994 277.595L253.853 276.214C253.571 276.24 253.227 276.243 252.823 276.222C252.435 276.197 252.01 276.159 251.547 276.108C251.092 276.051 250.641 275.991 250.194 275.928C249.754 275.86 249.355 275.798 248.996 275.743C248.225 275.627 247.491 275.57 246.796 275.573C246.1 275.575 245.454 275.655 244.858 275.813C244.27 275.965 243.748 276.211 243.292 276.55C242.63 277.041 242.414 277.491 242.641 277.901C242.886 278.307 243.458 278.627 244.356 278.86ZM267.231 288.163C265.067 287.602 263.587 286.837 262.789 285.868C262.007 284.896 261.88 283.796 262.406 282.569C262.942 281.345 264.096 280.074 265.867 278.758C267.661 277.426 269.651 276.365 271.839 275.576C274.043 274.784 276.299 274.306 278.609 274.143C280.926 273.975 283.152 274.167 285.288 274.721C287.13 275.199 288.466 275.824 289.295 276.595C290.124 277.366 290.441 278.229 290.244 279.183C290.047 280.138 289.313 281.129 288.043 282.155L282.515 280.722C283.234 280.032 283.524 279.403 283.387 278.834C283.267 278.262 282.671 277.837 281.598 277.558C280.691 277.323 279.693 277.27 278.604 277.399C277.532 277.525 276.42 277.827 275.269 278.306C274.118 278.784 272.991 279.433 271.889 280.252C270.771 281.082 270.004 281.835 269.588 282.512C269.181 283.191 269.111 283.771 269.379 284.252C269.647 284.733 270.235 285.091 271.142 285.326C271.811 285.5 272.526 285.571 273.285 285.539C274.054 285.51 274.83 285.379 275.611 285.148C276.41 284.913 277.172 284.581 277.897 284.152L283.425 285.586C281.995 286.556 280.377 287.317 278.57 287.869C276.78 288.418 274.912 288.726 272.967 288.793C271.022 288.86 269.11 288.65 267.231 288.163ZM293.039 289.461L298.879 285.137L299.732 285.358L313.144 282.174L319.868 283.917L301.976 288.1L300.588 287.739L293.039 289.461ZM282.691 291.829L306.044 274.481L311.901 276L288.549 293.348L282.691 291.829ZM295.891 295.252L297.305 287.974L304.642 286.437L302.752 297.031L295.891 295.252ZM337.255 293.431L331.619 292.244C331.908 291.938 332.053 291.633 332.054 291.328C332.063 291.018 331.912 290.731 331.599 290.468C331.303 290.2 330.816 289.979 330.138 289.803C329.231 289.568 328.306 289.488 327.363 289.563C326.428 289.633 325.698 289.863 325.174 290.253C324.756 290.563 324.604 290.878 324.718 291.197C324.833 291.516 325.293 291.868 326.099 292.252L329.283 293.718C330.986 294.51 331.955 295.325 332.188 296.162C332.421 297 331.906 297.887 330.644 298.825C329.496 299.678 328.081 300.32 326.399 300.752C324.726 301.187 322.94 301.402 321.042 301.397C319.16 301.389 317.303 301.147 315.47 300.672C312.674 299.947 310.929 299.011 310.235 297.863C309.558 296.713 309.914 295.479 311.302 294.163L317.314 295.471C316.782 296.041 316.663 296.552 316.96 297.002C317.264 297.446 317.939 297.804 318.984 298.075C320.011 298.341 320.999 298.434 321.949 298.353C322.916 298.268 323.667 298.032 324.2 297.645C324.632 297.315 324.768 296.989 324.61 296.666C324.459 296.337 324.001 295.997 323.236 295.647L320.183 294.249C318.463 293.46 317.52 292.622 317.356 291.733C317.2 290.848 317.776 289.919 319.084 288.948C320.209 288.112 321.545 287.487 323.091 287.073C324.647 286.661 326.315 286.465 328.094 286.485C329.882 286.507 331.68 286.752 333.485 287.22C336.153 287.912 337.784 288.803 338.38 289.895C338.985 290.989 338.61 292.168 337.255 293.431Z" fill="white"/>
<rect x="0.18128" y="0.871769" width="212.308" height="218.601" rx="14" transform="matrix(0.967313 0.253585 -0.786033 0.618184 520.092 191.287)" fill="#FF713B" fill-opacity="0.3"/>
<rect x="0.18128" y="0.871769" width="212.308" height="218.601" rx="14" transform="matrix(0.967313 0.253585 -0.786033 0.618184 520.092 191.287)" stroke="white" stroke-width="2"/>
<path d="M524.315 256.103C525.53 255.035 525.893 254.055 525.406 253.163C524.919 252.271 523.603 251.547 521.458 250.991C520 250.613 518.599 250.421 517.253 250.415C515.918 250.4 514.687 250.544 513.557 250.845C512.442 251.15 511.508 251.582 510.755 252.141C510.101 252.6 509.712 253.047 509.588 253.484C509.478 253.924 509.561 254.351 509.838 254.766C510.126 255.172 510.55 255.573 511.111 255.97C511.682 256.358 512.343 256.735 513.093 257.101L516.136 258.644C517.636 259.376 518.871 260.154 519.841 260.977C520.811 261.799 521.443 262.666 521.739 263.577C522.034 264.488 521.926 265.443 521.416 266.442C520.92 267.444 519.949 268.489 518.503 269.577C516.345 271.166 513.827 272.376 510.947 273.206C508.092 274.031 505.008 274.448 501.694 274.457C498.405 274.462 495.042 274.018 491.604 273.127C488.195 272.242 485.658 271.15 483.995 269.85C482.345 268.554 481.662 267.091 481.944 265.462C482.252 263.828 483.632 262.066 486.083 260.176L494.725 262.417C493.646 263.314 493.071 264.148 493 264.918C492.953 265.683 493.335 266.37 494.146 266.981C494.982 267.586 496.17 268.088 497.71 268.488C499.223 268.88 500.718 269.085 502.197 269.103C503.689 269.124 505.07 268.973 506.338 268.651C507.607 268.329 508.663 267.854 509.507 267.227C510.294 266.643 510.673 266.078 510.645 265.534C510.631 264.993 510.276 264.444 509.58 263.886C508.898 263.332 507.94 262.741 506.708 262.113L503.067 260.209C500.224 258.752 498.535 257.188 498.001 255.519C497.466 253.849 498.5 252.054 501.102 250.135C503.209 248.556 505.743 247.356 508.703 246.535C511.676 245.718 514.818 245.292 518.127 245.259C521.437 245.226 524.631 245.609 527.711 246.408C530.846 247.22 533.138 248.26 534.586 249.527C536.048 250.798 536.639 252.191 536.36 253.707C536.082 255.223 534.92 256.762 532.874 258.323L524.315 256.103ZM517.408 279.321L552.437 253.299L569.349 257.685C572.456 258.491 574.666 259.447 575.978 260.553C577.291 261.658 577.791 262.851 577.479 264.13C577.178 265.4 576.15 266.688 574.394 267.992C573.026 269.009 571.493 269.817 569.795 270.417C568.109 271.008 566.358 271.399 564.541 271.591C562.75 271.778 560.982 271.782 559.237 271.604L558.895 271.858C560.447 272.318 561.576 272.988 562.283 273.868C563.004 274.752 563.177 275.774 562.803 276.934C562.44 278.085 561.397 279.301 559.676 280.58C557.817 281.96 555.601 283.049 553.028 283.844C550.48 284.634 547.704 285.063 544.702 285.13C541.699 285.197 538.617 284.821 535.455 284.001L517.408 279.321ZM532.393 277.139L539.674 279.027C542.162 279.672 544.371 279.851 546.299 279.562C548.238 279.265 549.869 278.625 551.192 277.643C552.161 276.923 552.734 276.214 552.912 275.518C553.089 274.821 552.866 274.18 552.243 273.596C551.634 273.015 550.614 272.539 549.184 272.168L541.698 270.227L532.393 277.139ZM546.709 266.504L553.33 268.221C554.553 268.538 555.816 268.689 557.119 268.672C558.446 268.651 559.715 268.465 560.927 268.117C562.152 267.772 563.226 267.256 564.15 266.57C565.415 265.63 565.893 264.731 565.582 263.873C565.285 263.019 564.146 262.335 562.166 261.822L555.381 260.062L546.709 266.504ZM586.024 268.128L592.13 263.592L626.82 272.588L620.714 277.124L607.783 273.771L578.86 295.257L570.033 292.968L598.955 271.482L586.024 268.128Z" fill="white"/>
<path d="M506.839 301.419L500.816 299.857C501.352 299.348 501.702 298.864 501.864 298.403C502.034 297.937 502.032 297.502 501.858 297.099C501.684 296.696 501.343 296.333 500.836 296.011C500.339 295.692 499.687 295.427 498.88 295.218C497.423 294.84 495.853 294.734 494.171 294.9C492.496 295.06 490.791 295.486 489.055 296.179C487.326 296.865 485.652 297.81 484.033 299.013C482.369 300.25 481.268 301.366 480.731 302.362C480.203 303.36 480.191 304.214 480.695 304.924C481.199 305.634 482.162 306.173 483.582 306.541C484.38 306.748 485.205 306.874 486.058 306.92C486.921 306.969 487.785 306.938 488.651 306.827C489.525 306.711 490.379 306.517 491.214 306.246C492.058 305.977 492.86 305.629 493.621 305.202L499.621 306.781C498.393 307.536 496.97 308.203 495.351 308.782C493.748 309.356 492.033 309.799 490.205 310.11C488.394 310.417 486.541 310.554 484.645 310.519C482.767 310.482 480.925 310.229 479.119 309.76C476.607 309.109 474.833 308.177 473.795 306.963C472.767 305.752 472.574 304.334 473.214 302.71C473.864 301.088 475.458 299.334 477.997 297.448C480.544 295.556 483.288 294.096 486.229 293.069C489.171 292.041 492.099 291.437 495.014 291.256C497.936 291.069 500.635 291.297 503.11 291.938C504.742 292.361 506.064 292.895 507.077 293.538C508.1 294.185 508.787 294.919 509.139 295.741C509.498 296.558 509.493 297.445 509.122 298.4C508.76 299.357 507.999 300.364 506.839 301.419ZM526.307 298.274L515.371 313.219L515.632 313.287L540.194 301.875L546.794 303.586L513.734 318.417L506.062 316.427L519.693 296.559L526.307 298.274Z" fill="white"/>
<g clip-path="url(#clip8_340_224)">
<rect width="214.308" height="220.601" rx="15" transform="matrix(0.967313 0.253585 -0.786033 0.618184 473.402 61.7578)" fill="#FF713B" fill-opacity="0.3"/>
<path d="M638.017 137.538C629.22 144.314 615.455 145.73 607.276 141.009C599.098 136.287 599.231 126.999 608.027 120.224C616.824 113.449 630.589 112.032 638.768 116.754C646.946 121.476 646.813 130.763 638.017 137.538Z" fill="white" fill-opacity="0.6" stroke="white" stroke-width="2"/>
<path d="M626.88 124.665L631.808 128.794L627.822 132.632L618.93 132.343L613.999 128.217L617.985 124.379L626.88 124.665ZM629.81 121.844L626.538 121.739L617.63 121.449L614.357 121.343L612.892 122.753L608.909 126.588L607.444 127.998L609.251 129.514L614.179 133.644L615.987 135.16L619.259 135.266L628.154 135.551L631.424 135.66L632.889 134.25L636.875 130.412L638.341 129.002L636.533 127.486L631.605 123.356L629.798 121.84L629.81 121.844Z" fill="#375BD2"/>
<path d="M490.483 83.8487L481.862 86.5192C481.738 86.5579 481.634 86.6197 481.568 86.6932C481.501 86.7667 481.478 86.847 481.502 86.9191C481.525 86.9912 481.594 87.0503 481.696 87.0855C481.798 87.1208 481.926 87.1296 482.056 87.1106L488.645 86.1281C488.684 86.1219 488.723 86.1225 488.757 86.1297C488.791 86.1368 488.819 86.1504 488.837 86.1686C488.855 86.1868 488.863 86.2089 488.859 86.2322C488.855 86.2555 488.84 86.279 488.816 86.2999L480.473 93.5417C480.447 93.5639 480.412 93.5821 480.373 93.5939C480.333 93.6057 480.291 93.6105 480.251 93.6077C480.212 93.6049 480.178 93.5945 480.153 93.5781C480.128 93.5617 480.114 93.5399 480.112 93.5158L479.366 79.8441C479.352 79.6263 479.256 79.4227 479.085 79.2475C478.915 79.0723 478.673 78.9297 478.378 78.8295L477.963 78.6889C477.425 78.5062 476.74 78.4764 476.061 78.6062C475.382 78.7359 474.763 79.0145 474.341 79.3807L462.591 89.5802C462.17 89.9463 461.979 90.3701 462.062 90.7582C462.145 91.1464 462.494 91.4671 463.033 91.6498C463.38 91.7676 463.791 91.8231 464.227 91.8107C464.663 91.7984 465.109 91.7187 465.523 91.5793L474.144 88.9087C474.267 88.87 474.372 88.8082 474.438 88.7347C474.504 88.6612 474.528 88.581 474.504 88.5088C474.481 88.4367 474.411 88.3776 474.31 88.3424C474.208 88.3072 474.08 88.2983 473.95 88.3173L467.361 89.2998C467.322 89.306 467.283 89.3055 467.248 89.2983C467.214 89.2911 467.186 89.2776 467.168 89.2594C467.15 89.2412 467.143 89.219 467.147 89.1957C467.15 89.1724 467.166 89.1489 467.19 89.1281L475.535 81.8844C475.56 81.8622 475.595 81.844 475.635 81.8322C475.675 81.8204 475.717 81.8156 475.756 81.8184C475.796 81.8212 475.83 81.8316 475.855 81.848C475.88 81.8645 475.894 81.8862 475.895 81.9103L476.638 95.5834C476.653 95.8012 476.749 96.0047 476.919 96.18C477.09 96.3552 477.331 96.4978 477.626 96.598L478.041 96.7386C478.308 96.8292 478.613 96.8832 478.94 96.8975C479.266 96.9118 479.607 96.8861 479.944 96.8219C480.28 96.7577 480.606 96.6563 480.901 96.5233C481.196 96.3904 481.456 96.2286 481.665 96.0472L493.414 85.8478C493.836 85.4816 494.027 85.0578 493.944 84.6697C493.861 84.2816 493.512 83.9609 492.973 83.7782C492.626 83.6603 492.214 83.6049 491.778 83.6172C491.342 83.6296 490.896 83.7093 490.483 83.8487Z" fill="white"/>
<path d="M493.394 96.552C484.597 103.327 470.832 104.744 462.653 100.022C454.475 95.3004 454.608 86.0128 463.404 79.2376C472.201 72.4624 485.966 71.0456 494.145 75.7674C502.323 80.4892 502.19 89.7768 493.394 96.552Z" fill="white" fill-opacity="0.6" stroke="#FF713B" stroke-width="2"/>
</g>
<rect x="0.18128" y="0.871769" width="212.308" height="218.601" rx="14" transform="matrix(0.967313 0.253585 -0.786033 0.618184 474.094 62.0447)" stroke="white" stroke-width="2"/>
<path d="M476.317 128.861C477.532 127.793 477.895 126.813 477.408 125.921C476.921 125.029 475.605 124.305 473.46 123.749C472.002 123.371 470.601 123.179 469.255 123.173C467.92 123.158 466.689 123.301 465.559 123.603C464.444 123.908 463.51 124.34 462.757 124.899C462.103 125.358 461.714 125.805 461.59 126.242C461.48 126.682 461.563 127.109 461.84 127.523C462.128 127.93 462.552 128.331 463.112 128.728C463.684 129.116 464.345 129.493 465.095 129.859L468.138 131.402C469.638 132.134 470.873 132.911 471.843 133.734C472.813 134.557 473.445 135.424 473.741 136.335C474.036 137.245 473.928 138.2 473.418 139.199C472.922 140.202 471.951 141.247 470.505 142.335C468.347 143.924 465.829 145.133 462.949 145.964C460.094 146.789 457.01 147.206 453.696 147.215C450.407 147.219 447.044 146.776 443.606 145.884C440.197 145 437.66 143.908 435.996 142.608C434.347 141.312 433.663 139.849 433.946 138.22C434.254 136.586 435.634 134.824 438.085 132.934L446.727 135.175C445.648 136.072 445.073 136.906 445.002 137.676C444.955 138.441 445.337 139.128 446.148 139.738C446.984 140.344 448.172 140.846 449.712 141.245C451.224 141.638 452.72 141.843 454.199 141.86C455.691 141.882 457.072 141.731 458.34 141.409C459.609 141.086 460.665 140.612 461.509 139.985C462.296 139.401 462.675 138.836 462.647 138.292C462.633 137.751 462.278 137.202 461.582 136.644C460.9 136.09 459.942 135.499 458.71 134.871L455.069 132.967C452.226 131.51 450.537 129.946 450.003 128.276C449.468 126.606 450.502 124.812 453.104 122.893C455.211 121.314 457.745 120.114 460.705 119.293C463.678 118.475 466.82 118.05 470.129 118.017C473.439 117.984 476.633 118.367 479.713 119.165C482.848 119.978 485.14 121.018 486.588 122.285C488.049 123.555 488.641 124.949 488.362 126.465C488.084 127.981 486.921 129.52 484.876 131.08L476.317 128.861ZM469.41 152.079L504.439 126.057L521.351 130.443C524.458 131.249 526.668 132.204 527.98 133.31C529.293 134.416 529.793 135.609 529.481 136.888C529.18 138.158 528.152 139.446 526.396 140.75C525.028 141.767 523.495 142.575 521.797 143.174C520.111 143.766 518.36 144.157 516.543 144.349C514.752 144.536 512.984 144.54 511.239 144.362L510.897 144.616C512.449 145.076 513.578 145.746 514.285 146.626C515.006 147.51 515.179 148.532 514.805 149.692C514.442 150.843 513.399 152.059 511.678 153.338C509.819 154.718 507.603 155.806 505.03 156.602C502.482 157.392 499.706 157.821 496.704 157.888C493.701 157.955 490.619 157.579 487.456 156.759L469.41 152.079ZM484.395 149.897L491.676 151.785C494.164 152.43 496.373 152.608 498.301 152.32C500.24 152.023 501.871 151.383 503.194 150.401C504.163 149.681 504.736 148.972 504.914 148.275C505.091 147.579 504.868 146.938 504.245 146.354C503.636 145.773 502.616 145.297 501.186 144.926L493.7 142.985L484.395 149.897ZM498.711 139.262L505.332 140.979C506.555 141.296 507.818 141.446 509.12 141.43C510.448 141.408 511.717 141.223 512.929 140.875C514.154 140.53 515.228 140.014 516.152 139.328C517.417 138.388 517.895 137.489 517.584 136.631C517.287 135.777 516.148 135.093 514.168 134.58L507.383 132.82L498.711 139.262ZM538.026 140.886L544.132 136.35L578.822 145.346L572.716 149.882L559.785 146.529L530.862 168.014L522.035 165.725L550.957 144.24L538.026 140.886Z" fill="white"/>
<path d="M421.408 157.274L417.759 159.985L404.725 156.605L408.373 153.894L421.408 157.274ZM393.843 167.679L412.623 153.728C413.892 152.785 415.243 152.08 416.675 151.613C418.116 151.149 419.568 150.897 421.031 150.857C422.495 150.818 423.891 150.97 425.22 151.315C426.118 151.548 426.881 151.803 427.51 152.08C428.148 152.36 428.604 152.581 428.88 152.744L424.186 155.184C424.017 155.079 423.79 154.963 423.504 154.835C423.228 154.71 422.915 154.603 422.567 154.512C421.705 154.289 420.937 154.257 420.264 154.418C419.598 154.573 418.968 154.87 418.375 155.311L399.686 169.194L393.843 167.679ZM430.409 169.688L440.466 162.217L446.323 163.735L428.809 176.746L423.185 175.288L426.367 172.925L426.147 172.868C424.644 173.506 423.026 173.913 421.294 174.089C419.57 174.267 417.916 174.15 416.33 173.739C414.918 173.373 413.942 172.853 413.402 172.18C412.862 171.506 412.779 170.727 413.155 169.841C413.54 168.958 414.412 168.007 415.771 166.989L426.923 158.704L432.78 160.223L422.495 167.864C421.47 168.634 420.988 169.328 421.047 169.945C421.106 170.563 421.691 171.015 422.8 171.303C423.506 171.486 424.299 171.558 425.179 171.52C426.067 171.476 426.965 171.305 427.873 171.007C428.79 170.711 429.635 170.272 430.409 169.688ZM451.413 172.46L441.288 179.982L435.43 178.463L452.945 165.452L458.527 166.9L455.437 169.196L455.684 169.26C457.171 168.624 458.76 168.229 460.453 168.074C462.153 167.913 463.787 168.036 465.355 168.442C466.822 168.822 467.834 169.352 468.393 170.03C468.952 170.708 469.039 171.493 468.656 172.384C468.281 173.269 467.412 174.217 466.052 175.228L454.9 183.512L449.043 181.993L459.328 174.353C460.409 173.559 460.915 172.852 460.846 172.232C460.785 171.607 460.168 171.142 458.995 170.838C458.206 170.634 457.369 170.558 456.483 170.61C455.606 170.664 454.728 170.848 453.849 171.161C452.987 171.47 452.175 171.904 451.413 172.46ZM468.95 187.441C467.346 187.025 466.235 186.394 465.617 185.549C465.017 184.699 465.005 183.679 465.582 182.488C466.176 181.294 467.449 179.971 469.403 178.52C471.41 177.029 473.468 175.89 475.577 175.104C477.695 174.312 479.73 173.838 481.684 173.682C483.654 173.523 485.414 173.644 486.963 174.046C488.146 174.352 488.964 174.732 489.418 175.185C489.888 175.635 490.12 176.106 490.111 176.599C490.12 177.089 490.017 177.542 489.802 177.959L489.981 178.005L498.761 171.483L504.604 172.998L481.252 190.346L475.477 188.848L478.282 186.764L478.035 186.7C477.273 186.99 476.401 187.248 475.418 187.473C474.452 187.695 473.414 187.818 472.305 187.843C471.205 187.87 470.086 187.736 468.95 187.441ZM474.671 185.051C475.616 185.296 476.626 185.345 477.702 185.197C478.796 185.046 479.904 184.728 481.028 184.242C482.161 183.759 483.248 183.131 484.289 182.357C485.331 181.583 486.061 180.866 486.481 180.206C486.9 179.545 486.989 178.974 486.747 178.492C486.505 178.01 485.912 177.647 484.968 177.402C484.005 177.152 482.978 177.103 481.884 177.254C480.791 177.405 479.691 177.721 478.584 178.203C477.477 178.686 476.418 179.303 475.407 180.054C474.388 180.81 473.657 181.524 473.213 182.193C472.786 182.859 472.678 183.441 472.888 183.937C473.114 184.43 473.709 184.801 474.671 185.051ZM518.096 187.353L512.46 186.165C512.748 185.859 512.893 185.554 512.895 185.25C512.904 184.94 512.752 184.653 512.44 184.389C512.144 184.122 511.657 183.9 510.979 183.724C510.071 183.489 509.146 183.409 508.204 183.485C507.269 183.555 506.539 183.784 506.014 184.174C505.596 184.485 505.444 184.799 505.559 185.119C505.673 185.438 506.134 185.79 506.94 186.174L510.123 187.639C511.827 188.432 512.795 189.246 513.028 190.084C513.261 190.921 512.747 191.809 511.485 192.746C510.337 193.599 508.922 194.241 507.239 194.674C505.566 195.108 503.781 195.323 501.882 195.318C500.001 195.311 498.144 195.069 496.31 194.593C493.515 193.868 491.77 192.932 491.076 191.785C490.399 190.634 490.755 189.401 492.143 188.085L498.155 189.392C497.622 189.963 497.504 190.473 497.801 190.923C498.105 191.368 498.78 191.726 499.825 191.997C500.851 192.263 501.84 192.355 502.79 192.274C503.757 192.19 504.507 191.954 505.041 191.567C505.473 191.237 505.609 190.91 505.45 190.587C505.299 190.258 504.841 189.919 504.077 189.568L501.024 188.171C499.303 187.382 498.361 186.543 498.196 185.655C498.041 184.769 498.617 183.84 499.925 182.869C501.05 182.033 502.385 181.408 503.932 180.994C505.488 180.583 507.156 180.387 508.935 180.406C510.723 180.428 512.52 180.673 514.326 181.141C516.994 181.833 518.625 182.725 519.221 183.816C519.826 184.91 519.451 186.089 518.096 187.353Z" fill="white"/>
<g clip-path="url(#clip9_340_224)">
<rect width="214.308" height="220.601" rx="15" transform="matrix(0.967313 0.253585 -0.786033 0.618184 704.4 79)" fill="#FF713B" fill-opacity="0.3"/>
<path d="M867.017 154.538C858.22 161.314 844.455 162.73 836.276 158.009C828.098 153.287 828.231 143.999 837.027 137.224C845.824 130.449 859.589 129.032 867.768 133.754C875.946 138.476 875.813 147.763 867.017 154.538Z" fill="white" fill-opacity="0.6" stroke="white" stroke-width="2"/>
<path d="M855.88 141.665L860.808 145.794L856.822 149.632L847.93 149.343L842.999 145.217L846.985 141.379L855.88 141.665ZM858.81 138.844L855.538 138.739L846.63 138.449L843.357 138.343L841.892 139.753L837.909 143.588L836.444 144.998L838.251 146.514L843.179 150.644L844.987 152.16L848.259 152.266L857.154 152.551L860.424 152.66L861.889 151.25L865.875 147.412L867.341 146.002L865.533 144.486L860.605 140.356L858.798 138.84L858.81 138.844Z" fill="#375BD2"/>
<path d="M721.483 100.849L712.862 103.519C712.738 103.558 712.634 103.62 712.568 103.693C712.501 103.767 712.478 103.847 712.502 103.919C712.525 103.991 712.594 104.05 712.696 104.086C712.798 104.121 712.926 104.13 713.056 104.111L719.645 103.128C719.684 103.122 719.723 103.122 719.757 103.13C719.791 103.137 719.819 103.15 719.837 103.169C719.855 103.187 719.863 103.209 719.859 103.232C719.855 103.256 719.84 103.279 719.816 103.3L711.473 110.542C711.447 110.564 711.412 110.582 711.373 110.594C711.333 110.606 711.291 110.611 711.251 110.608C711.212 110.605 711.178 110.595 711.153 110.578C711.128 110.562 711.114 110.54 711.112 110.516L710.366 96.8441C710.352 96.6263 710.256 96.4227 710.085 96.2475C709.915 96.0723 709.673 95.9297 709.378 95.8295L708.963 95.6889C708.425 95.5062 707.74 95.4764 707.061 95.6062C706.382 95.7359 705.763 96.0145 705.341 96.3807L693.591 106.58C693.17 106.946 692.979 107.37 693.062 107.758C693.145 108.146 693.494 108.467 694.033 108.65C694.38 108.768 694.791 108.823 695.227 108.811C695.663 108.798 696.109 108.719 696.523 108.579L705.144 105.909C705.267 105.87 705.372 105.808 705.438 105.735C705.504 105.661 705.528 105.581 705.504 105.509C705.481 105.437 705.411 105.378 705.31 105.342C705.208 105.307 705.08 105.298 704.95 105.317L698.361 106.3C698.322 106.306 698.283 106.305 698.248 106.298C698.214 106.291 698.186 106.278 698.168 106.259C698.15 106.241 698.143 106.219 698.147 106.196C698.15 106.172 698.166 106.149 698.19 106.128L706.535 98.8844C706.56 98.8622 706.595 98.844 706.635 98.8322C706.675 98.8204 706.717 98.8156 706.756 98.8184C706.796 98.8212 706.83 98.8316 706.855 98.848C706.88 98.8645 706.894 98.8862 706.895 98.9103L707.638 112.583C707.653 112.801 707.749 113.005 707.919 113.18C708.09 113.355 708.331 113.498 708.626 113.598L709.041 113.739C709.308 113.829 709.613 113.883 709.94 113.897C710.266 113.912 710.607 113.886 710.944 113.822C711.28 113.758 711.606 113.656 711.901 113.523C712.196 113.39 712.456 113.229 712.665 113.047L724.414 102.848C724.836 102.482 725.027 102.058 724.944 101.67C724.861 101.282 724.512 100.961 723.973 100.778C723.626 100.66 723.214 100.605 722.778 100.617C722.342 100.63 721.896 100.709 721.483 100.849Z" fill="white"/>
<path d="M724.394 113.552C715.597 120.327 701.832 121.744 693.653 117.022C685.475 112.3 685.608 103.013 694.404 96.2376C703.201 89.4624 716.966 88.0456 725.145 92.7674C733.323 97.4892 733.19 106.777 724.394 113.552Z" fill="white" fill-opacity="0.6" stroke="#FF713B" stroke-width="2"/>
</g>
<rect x="0.18128" y="0.871769" width="212.308" height="218.601" rx="14" transform="matrix(0.967313 0.253585 -0.786033 0.618184 705.092 79.2869)" stroke="white" stroke-width="2"/>
<path d="M708.315 146.103C709.53 145.035 709.893 144.055 709.406 143.163C708.919 142.271 707.603 141.547 705.458 140.991C704 140.613 702.599 140.421 701.253 140.415C699.918 140.4 698.687 140.544 697.557 140.845C696.442 141.15 695.508 141.582 694.755 142.141C694.101 142.6 693.712 143.047 693.588 143.484C693.478 143.924 693.561 144.351 693.838 144.766C694.126 145.172 694.55 145.573 695.111 145.97C695.682 146.358 696.343 146.735 697.093 147.101L700.136 148.644C701.636 149.376 702.871 150.154 703.841 150.977C704.811 151.799 705.443 152.666 705.739 153.577C706.034 154.488 705.926 155.443 705.416 156.442C704.92 157.444 703.949 158.489 702.503 159.577C700.345 161.166 697.827 162.376 694.947 163.206C692.092 164.031 689.008 164.448 685.694 164.457C682.405 164.462 679.042 164.018 675.604 163.127C672.195 162.242 669.658 161.15 667.995 159.85C666.345 158.554 665.662 157.091 665.944 155.462C666.252 153.828 667.632 152.066 670.083 150.176L678.725 152.417C677.646 153.314 677.071 154.148 677 154.918C676.953 155.683 677.335 156.37 678.146 156.981C678.982 157.586 680.17 158.088 681.71 158.488C683.223 158.88 684.718 159.085 686.197 159.103C687.689 159.124 689.07 158.973 690.338 158.651C691.607 158.329 692.663 157.854 693.507 157.227C694.294 156.643 694.673 156.078 694.645 155.534C694.631 154.993 694.276 154.444 693.58 153.886C692.898 153.332 691.94 152.741 690.708 152.113L687.067 150.209C684.224 148.752 682.535 147.188 682.001 145.519C681.466 143.849 682.5 142.054 685.102 140.135C687.209 138.556 689.743 137.356 692.703 136.535C695.676 135.718 698.818 135.292 702.127 135.259C705.437 135.226 708.631 135.609 711.711 136.408C714.846 137.22 717.138 138.26 718.586 139.527C720.048 140.798 720.639 142.191 720.36 143.707C720.082 145.223 718.92 146.762 716.874 148.323L708.315 146.103ZM701.408 169.321L736.437 143.299L753.349 147.685C756.456 148.491 758.666 149.447 759.978 150.553C761.291 151.658 761.791 152.851 761.479 154.13C761.178 155.4 760.15 156.688 758.394 157.992C757.026 159.009 755.493 159.817 753.795 160.417C752.109 161.008 750.358 161.399 748.541 161.591C746.75 161.778 744.982 161.782 743.237 161.604L742.895 161.858C744.447 162.318 745.576 162.988 746.283 163.868C747.004 164.752 747.177 165.774 746.803 166.934C746.44 168.085 745.397 169.301 743.676 170.58C741.817 171.96 739.601 173.049 737.028 173.844C734.48 174.634 731.704 175.063 728.702 175.13C725.699 175.197 722.617 174.821 719.455 174.001L701.408 169.321ZM716.393 167.139L723.674 169.027C726.162 169.672 728.371 169.851 730.299 169.562C732.238 169.265 733.869 168.625 735.192 167.643C736.161 166.923 736.734 166.214 736.912 165.518C737.089 164.821 736.866 164.18 736.243 163.596C735.634 163.015 734.614 162.539 733.184 162.168L725.698 160.227L716.393 167.139ZM730.709 156.504L737.33 158.221C738.553 158.538 739.816 158.689 741.119 158.672C742.446 158.651 743.715 158.465 744.927 158.117C746.152 157.772 747.226 157.256 748.15 156.57C749.415 155.63 749.893 154.731 749.582 153.873C749.285 153.019 748.146 152.335 746.166 151.822L739.381 150.062L730.709 156.504ZM770.024 158.128L776.13 153.592L810.82 162.588L804.714 167.124L791.783 163.771L762.86 185.257L754.033 182.968L782.955 161.482L770.024 158.128Z" fill="white"/>
<path d="M652.707 195.74L676.059 178.393L682.013 179.936L672.377 187.094L684.464 190.228L694.099 183.071L700.039 184.611L676.686 201.959L670.746 200.418L680.393 193.252L668.307 190.118L658.66 197.284L652.707 195.74ZM683.531 203.734L706.883 186.386L717.993 189.267C720.12 189.818 721.619 190.523 722.491 191.382C723.381 192.237 723.645 193.193 723.286 194.251C722.943 195.304 722 196.404 720.457 197.551C718.906 198.703 717.169 199.589 715.245 200.21C713.328 200.826 711.308 201.155 709.184 201.198C707.07 201.244 704.931 200.987 702.768 200.426L695.329 198.497L699.297 195.549L705.773 197.228C706.91 197.523 707.983 197.672 708.993 197.675C710.003 197.678 710.95 197.535 711.834 197.246C712.727 196.959 713.557 196.531 714.325 195.961C715.1 195.385 715.566 194.85 715.722 194.357C715.888 193.867 715.727 193.422 715.24 193.021C714.769 192.617 713.961 192.267 712.815 191.97L708.8 190.928L689.484 205.278L683.531 203.734ZM709.365 199.783L705.737 209.492L699.164 207.788L702.944 198.117L709.365 199.783Z" fill="white"/>
<rect x="0.18128" y="0.871769" width="212.308" height="218.601" rx="14" transform="matrix(0.967313 0.253585 -0.786033 0.618184 757.092 207.287)" fill="#FF713B" fill-opacity="0.3"/>
<rect x="0.18128" y="0.871769" width="212.308" height="218.601" rx="14" transform="matrix(0.967313 0.253585 -0.786033 0.618184 757.092 207.287)" stroke="white" stroke-width="2"/>
<path d="M766.315 268.103C767.53 267.035 767.893 266.055 767.406 265.163C766.919 264.271 765.603 263.547 763.458 262.991C762 262.613 760.599 262.421 759.253 262.415C757.918 262.4 756.687 262.544 755.557 262.845C754.442 263.15 753.508 263.582 752.755 264.141C752.101 264.6 751.712 265.047 751.588 265.484C751.478 265.924 751.561 266.351 751.838 266.766C752.126 267.172 752.55 267.573 753.111 267.97C753.682 268.358 754.343 268.735 755.093 269.101L758.136 270.644C759.636 271.376 760.871 272.154 761.841 272.977C762.811 273.799 763.443 274.666 763.739 275.577C764.034 276.488 763.926 277.443 763.416 278.442C762.92 279.444 761.949 280.489 760.503 281.577C758.345 283.166 755.827 284.376 752.947 285.206C750.092 286.031 747.008 286.448 743.694 286.457C740.405 286.462 737.042 286.018 733.604 285.127C730.195 284.242 727.658 283.15 725.995 281.85C724.345 280.554 723.662 279.091 723.944 277.462C724.252 275.828 725.632 274.066 728.083 272.176L736.725 274.417C735.646 275.314 735.071 276.148 735 276.918C734.953 277.683 735.335 278.37 736.146 278.981C736.982 279.586 738.17 280.088 739.71 280.488C741.223 280.88 742.718 281.085 744.197 281.103C745.689 281.124 747.07 280.973 748.338 280.651C749.607 280.329 750.663 279.854 751.507 279.227C752.294 278.643 752.673 278.078 752.645 277.534C752.631 276.993 752.276 276.444 751.58 275.886C750.898 275.332 749.94 274.741 748.708 274.113L745.067 272.209C742.224 270.752 740.535 269.188 740.001 267.519C739.466 265.849 740.5 264.054 743.102 262.135C745.209 260.556 747.743 259.356 750.703 258.535C753.676 257.718 756.818 257.292 760.127 257.259C763.437 257.226 766.631 257.609 769.711 258.408C772.846 259.22 775.138 260.26 776.586 261.527C778.048 262.798 778.639 264.191 778.36 265.707C778.082 267.223 776.92 268.762 774.874 270.323L766.315 268.103ZM759.408 291.321L794.437 265.299L811.349 269.685C814.456 270.491 816.666 271.447 817.978 272.553C819.291 273.658 819.791 274.851 819.479 276.13C819.178 277.4 818.15 278.688 816.394 279.992C815.026 281.009 813.493 281.817 811.795 282.417C810.109 283.008 808.358 283.399 806.541 283.591C804.75 283.778 802.982 283.782 801.237 283.604L800.895 283.858C802.447 284.318 803.576 284.988 804.283 285.868C805.004 286.752 805.177 287.774 804.803 288.934C804.44 290.085 803.397 291.301 801.676 292.58C799.817 293.96 797.601 295.049 795.028 295.844C792.48 296.634 789.704 297.063 786.702 297.13C783.699 297.197 780.617 296.821 777.455 296.001L759.408 291.321ZM774.393 289.139L781.674 291.027C784.162 291.672 786.371 291.851 788.299 291.562C790.238 291.265 791.869 290.625 793.192 289.643C794.161 288.923 794.734 288.214 794.912 287.518C795.089 286.821 794.866 286.18 794.243 285.596C793.634 285.015 792.614 284.539 791.184 284.168L783.698 282.227L774.393 289.139ZM788.709 278.504L795.33 280.221C796.553 280.538 797.816 280.689 799.119 280.672C800.446 280.651 801.715 280.465 802.927 280.117C804.152 279.772 805.226 279.256 806.15 278.57C807.415 277.63 807.893 276.731 807.582 275.873C807.285 275.019 806.146 274.335 804.166 273.822L797.381 272.062L788.709 278.504ZM828.024 280.128L834.13 275.592L868.82 284.588L862.714 289.124L849.783 285.771L820.86 307.257L812.033 304.968L840.955 283.482L828.024 280.128Z" fill="white"/>
<path d="M714.142 313.133L714.529 312.845C715.869 311.859 717.071 311.108 718.137 310.592C719.212 310.079 720.263 309.712 721.29 309.49C722.317 309.269 723.409 309.11 724.565 309.014C725.438 308.936 726.262 308.833 727.038 308.707C727.814 308.58 728.532 308.405 729.193 308.18C729.862 307.95 730.444 307.651 730.938 307.284C731.462 306.894 731.771 306.514 731.864 306.141C731.957 305.769 731.853 305.438 731.552 305.146C731.261 304.858 730.808 304.634 730.194 304.474C729.598 304.32 728.924 304.255 728.172 304.281C727.428 304.302 726.673 304.426 725.908 304.654C725.151 304.877 724.447 305.216 723.796 305.672L718.186 304.217C719.752 303.1 721.446 302.282 723.269 301.764C725.099 301.241 726.945 300.977 728.806 300.972C730.675 300.961 732.439 301.171 734.098 301.601C735.922 302.074 737.285 302.679 738.186 303.416C739.094 304.146 739.476 304.965 739.331 305.872C739.185 306.779 738.448 307.727 737.117 308.715C736.228 309.376 735.259 309.917 734.209 310.338C733.177 310.756 732.078 311.08 730.914 311.312C729.757 311.537 728.535 311.697 727.247 311.789C726.166 311.867 725.198 311.989 724.342 312.156C723.496 312.325 722.704 312.569 721.966 312.888C721.236 313.209 720.495 313.646 719.74 314.197L719.353 314.485L714.142 313.133ZM709.566 319.26C708.65 319.023 708.132 318.622 708.013 318.058C707.911 317.49 708.241 316.928 709.003 316.372C709.739 315.816 710.694 315.424 711.867 315.195C713.05 314.968 714.1 314.974 715.017 315.211C715.888 315.437 716.387 315.833 716.515 316.4C716.643 316.966 716.339 317.527 715.603 318.083C715.092 318.454 714.472 318.754 713.742 318.983C713.029 319.21 712.3 319.352 711.554 319.41C710.816 319.462 710.153 319.413 709.566 319.26ZM737.857 319.283L738.245 318.995C739.584 318.009 740.787 317.258 741.852 316.742C742.927 316.229 743.978 315.861 745.006 315.64C746.033 315.419 747.125 315.26 748.281 315.164C749.153 315.085 749.977 314.983 750.753 314.857C751.529 314.73 752.248 314.555 752.909 314.33C753.578 314.1 754.159 313.801 754.653 313.434C755.178 313.044 755.486 312.663 755.579 312.291C755.672 311.919 755.568 311.588 755.268 311.296C754.976 311.008 754.524 310.783 753.91 310.624C753.314 310.47 752.64 310.405 751.888 310.431C751.143 310.452 750.388 310.576 749.624 310.804C748.866 311.027 748.162 311.366 747.511 311.822L741.902 310.367C743.468 309.25 745.162 308.432 746.984 307.914C748.814 307.391 750.66 307.127 752.522 307.122C754.391 307.111 756.155 307.321 757.814 307.751C759.638 308.224 761.001 308.829 761.901 309.566C762.81 310.296 763.191 311.115 763.046 312.022C762.901 312.929 762.163 313.877 760.833 314.865C759.944 315.526 758.974 316.067 757.925 316.488C756.893 316.906 755.794 317.23 754.629 317.462C753.472 317.687 752.25 317.847 750.963 317.939C749.881 318.017 748.913 318.139 748.058 318.306C747.212 318.475 746.42 318.719 745.681 319.038C744.952 319.359 744.21 319.795 743.456 320.347L743.068 320.635L737.857 319.283ZM733.282 325.41C732.365 325.173 731.848 324.772 731.729 324.208C731.627 323.64 731.957 323.078 732.719 322.522C733.454 321.966 734.409 321.574 735.583 321.345C736.766 321.118 737.816 321.124 738.732 321.361C739.603 321.587 740.103 321.983 740.23 322.55C740.358 323.116 740.054 323.677 739.319 324.233C738.808 324.603 738.187 324.903 737.458 325.133C736.745 325.36 736.015 325.502 735.269 325.56C734.531 325.612 733.869 325.562 733.282 325.41ZM761.573 325.433L761.96 325.145C763.3 324.159 764.502 323.408 765.568 322.892C766.643 322.379 767.694 322.011 768.721 321.79C769.748 321.569 770.84 321.41 771.996 321.314C772.869 321.235 773.693 321.133 774.469 321.007C775.245 320.88 775.964 320.705 776.625 320.48C777.293 320.25 777.875 319.951 778.369 319.584C778.893 319.194 779.202 318.813 779.295 318.441C779.388 318.069 779.284 317.738 778.983 317.446C778.692 317.157 778.239 316.933 777.625 316.774C777.029 316.62 776.355 316.555 775.603 316.581C774.859 316.601 774.104 316.726 773.339 316.954C772.582 317.177 771.878 317.516 771.227 317.972L765.617 316.517C767.183 315.4 768.878 314.582 770.7 314.064C772.53 313.541 774.376 313.277 776.237 313.272C778.106 313.261 779.87 313.471 781.53 313.901C783.354 314.374 784.716 314.979 785.617 315.715C786.525 316.446 786.907 317.265 786.762 318.172C786.617 319.079 785.879 320.027 784.549 321.015C783.659 321.676 782.69 322.217 781.641 322.638C780.608 323.056 779.51 323.38 778.345 323.612C777.188 323.837 775.966 323.996 774.678 324.089C773.597 324.167 772.629 324.289 771.774 324.456C770.927 324.625 770.135 324.869 769.397 325.188C768.667 325.509 767.926 325.945 767.172 326.496L766.784 326.784L761.573 325.433ZM756.998 331.56C756.081 331.323 755.563 330.922 755.445 330.358C755.343 329.79 755.673 329.228 756.434 328.672C757.17 328.116 758.125 327.723 759.299 327.495C760.482 327.268 761.531 327.274 762.448 327.511C763.319 327.737 763.818 328.133 763.946 328.7C764.074 329.266 763.77 329.827 763.034 330.383C762.523 330.753 761.903 331.053 761.173 331.283C760.46 331.51 759.731 331.652 758.985 331.71C758.247 331.762 757.584 331.712 756.998 331.56Z" fill="white"/>
<defs>
<linearGradient id="paint0_linear_340_224" x1="189.658" y1="755.724" x2="348.611" y2="693.295" gradientUnits="userSpaceOnUse">
<stop offset="0.08" stop-color="#815AF0"/>
<stop offset="0.3" stop-color="#8752F3"/>
<stop offset="0.5" stop-color="#5497D5"/>
<stop offset="0.6" stop-color="#43B4CA"/>
<stop offset="0.72" stop-color="#28E0B9"/>
<stop offset="0.97" stop-color="#19FB9B"/>
</linearGradient>
<clipPath id="clip0_340_224">
<rect width="537.174" height="406.097" rx="15" transform="matrix(0.967313 0.253585 -0.786033 0.618184 396.73 525.896)" fill="white"/>
</clipPath>
<clipPath id="clip1_340_224">
<rect width="168.568" height="183.553" fill="white" transform="matrix(0.948183 0.291394 -0.730099 0.703232 492.426 626.795)"/>
</clipPath>
<clipPath id="clip2_340_224">
<rect width="192.879" height="129.142" fill="white" transform="matrix(0.972534 0.232759 -0.668918 0.743336 220.592 655.896)"/>
</clipPath>
<clipPath id="clip3_340_224">
<rect width="537.174" height="441.826" rx="15" transform="matrix(0.967313 0.253585 -0.786033 0.618184 429.5 329.861)" fill="white"/>
</clipPath>
<clipPath id="clip4_340_224">
<rect width="387.712" height="364.882" fill="white" transform="matrix(0.96705 0.254586 -0.784766 0.619792 477.867 372.156)"/>
</clipPath>
<clipPath id="clip5_340_224">
<rect width="80" height="80" rx="40" transform="matrix(0.96705 0.254586 -0.784766 0.619792 555.193 567.707)" fill="white"/>
</clipPath>
<clipPath id="clip6_340_224">
<rect width="283.79" height="212.778" fill="white" transform="matrix(0.948459 0.316901 -0.753052 0.657961 660.232 584)"/>
</clipPath>
<clipPath id="clip7_340_224">
<rect width="214.308" height="220.601" rx="15" transform="matrix(0.967313 0.253585 -0.786033 0.618184 288.402 165.758)" fill="white"/>
</clipPath>
<clipPath id="clip8_340_224">
<rect width="214.308" height="220.601" rx="15" transform="matrix(0.967313 0.253585 -0.786033 0.618184 473.402 61.7578)" fill="white"/>
</clipPath>
<clipPath id="clip9_340_224">
<rect width="214.308" height="220.601" rx="15" transform="matrix(0.967313 0.253585 -0.786033 0.618184 704.4 79)" fill="white"/>
</clipPath>
</defs>
</svg>
