<?xml version="1.0" standalone="no"?>
<!DOCTYPE svg PUBLIC "-//W3C//DTD SVG 20010904//EN"
 "http://www.w3.org/TR/2001/REC-SVG-20010904/DTD/svg10.dtd">
<svg version="1.0" xmlns="http://www.w3.org/2000/svg"
 width="800.000000pt" height="800.000000pt" viewBox="0 0 800.000000 800.000000"
 preserveAspectRatio="xMidYMid meet">
<metadata>
Created by potrace 1.14, written by Peter Selinger 2001-2017
</metadata>
<g transform="translate(0.000000,800.000000) scale(0.100000,-0.100000)"
fill="#000000" stroke="none">
<path d="M0 4000 l0 -4000 4000 0 4000 0 0 4000 0 4000 -4000 0 -4000 0 0
-4000z m3790 3101 c403 -63 792 -204 1162 -422 284 -168 407 -298 396 -420
-11 -113 -114 -200 -492 -416 -616 -352 -858 -605 -973 -1013 -55 -194 -65
-311 -69 -757 -4 -508 -12 -569 -90 -640 -82 -75 -219 -52 -474 78 -150 77
-460 274 -524 334 -6 5 -49 42 -96 82 -83 70 -293 278 -362 358 -151 176 -269
358 -373 570 -489 1004 -75 1964 956 2214 68 16 165 34 214 40 50 6 101 13
115 15 14 3 126 3 250 1 164 -2 261 -9 360 -24z m745 -2462 c181 -59 543 -275
780 -465 205 -165 412 -385 568 -603 301 -419 459 -918 419 -1324 -45 -447
-252 -791 -622 -1034 -220 -144 -495 -238 -795 -273 -133 -15 -452 -12 -592 5
-397 49 -775 173 -1144 373 -229 125 -376 234 -450 332 -70 94 -72 164 -5 251
58 76 140 133 442 310 366 214 516 321 675 485 146 151 241 316 297 514 61
215 74 349 73 760 -1 369 7 488 39 573 45 121 144 151 315 96z"/>
</g>
</svg>
