<svg width="631" height="631" viewBox="0 0 631 631" fill="none" xmlns="http://www.w3.org/2000/svg">
<g filter="url(#filter0_b_257_787)">
<rect width="631" height="631" rx="38.5314" fill="url(#paint0_linear_257_787)"/>
<rect x="0.481642" y="0.481642" width="630.037" height="630.037" rx="38.0497" stroke="url(#paint1_linear_257_787)" stroke-width="0.963284"/>
</g>
<mask id="mask0_257_787" style="mask-type:alpha" maskUnits="userSpaceOnUse" x="0" y="-380" width="662" height="1247">
<path fill-rule="evenodd" clip-rule="evenodd" d="M659.628 -286.854C658.207 -285.092 658.111 -284.503 658.987 -282.908C660.705 -279.779 661.298 -280.234 661.298 -284.681L661.298 -288.926L659.628 -286.854ZM659.841 -157.774C658.942 -156.892 658.258 -155.661 658.32 -155.039C658.424 -153.993 658.549 -153.987 659.973 -154.958C660.821 -155.537 661.505 -156.768 661.495 -157.694L661.476 -159.378L659.841 -157.774ZM660.57 -26.3752C660.051 -26.6173 659.108 -26.4154 658.474 -25.9267C657.839 -25.4387 652.213 -18.322 645.972 -10.1124C639.73 -1.9028 634.349 5.04131 634.015 5.31908C633.681 5.59684 622.334 5.82656 608.801 5.82916L584.193 5.835L576.654 15.7079C572.508 21.1386 566.958 28.426 564.32 31.9026L559.523 38.223L538.674 38.2301L517.824 38.2366L516.521 36.3344C515.226 34.4472 515.301 34.3213 525.535 21.0542C531.211 13.6967 535.855 7.35163 535.855 6.95446C535.855 6.55663 530.626 -0.586658 524.236 -8.92086C517.845 -17.2544 512.617 -24.2173 512.617 -24.3939C512.617 -24.5704 523.299 -24.7145 536.357 -24.7145C552.74 -24.7145 560.003 -24.928 559.792 -25.4043C559.586 -25.8709 552.051 -26.0747 536.549 -26.0345C523.933 -26.0014 513.414 -26.213 513.174 -26.5057C512.935 -26.7977 517.94 -33.8158 524.297 -42.1013C530.654 -50.3868 535.855 -57.4704 535.855 -57.8436C535.855 -58.2168 530.626 -65.3627 524.236 -73.7241C517.845 -82.0856 512.617 -89.081 512.617 -89.2698C512.617 -89.458 523.244 -89.6125 536.234 -89.6125C551.051 -89.6125 560.05 -89.8545 560.384 -90.2615C560.734 -90.6885 552.647 -90.9104 536.766 -90.9104C523.484 -90.9104 512.617 -91.0935 512.617 -91.3167C512.617 -91.54 517.845 -98.5385 524.236 -106.869C530.626 -115.2 535.855 -122.279 535.855 -122.599C535.855 -122.92 531.744 -128.552 526.72 -135.115C514.008 -151.721 512.617 -153.588 512.617 -154.033C512.617 -154.248 521.506 -154.452 532.372 -154.486L552.128 -154.548L554.102 -151.962C555.94 -149.554 556.37 -149.362 560.354 -149.185C564.627 -148.994 564.633 -148.997 566.691 -151.915L568.75 -154.835L566.898 -157.475L565.045 -160.116L575.482 -173.789L585.92 -187.462L575.236 -201.326C569.36 -208.951 563.64 -216.431 562.525 -217.948L560.498 -220.706L534.814 -220.706L509.131 -220.706L508.376 -219.246C507.96 -218.443 502.328 -210.923 495.86 -202.535C485.426 -189.004 484.22 -187.137 485.173 -185.986C485.764 -185.272 491.197 -178.263 497.246 -170.411L508.244 -156.133L486.116 -155.951C473.946 -155.85 463.214 -155.924 462.267 -156.115C461.105 -156.349 456.638 -161.627 448.518 -172.365L436.489 -188.268L386.227 -188.1L335.965 -187.933L323.768 -172.033L311.57 -156.133L287.11 -155.96C273.656 -155.866 262.349 -155.562 261.984 -155.287C261.618 -155.011 266.737 -147.688 273.358 -139.014C279.98 -130.341 285.365 -122.905 285.325 -122.49C285.286 -122.076 279.956 -114.874 273.481 -106.486L261.708 -91.2349L237.62 -91.0701L213.531 -90.9053L202.127 -105.794C195.855 -113.983 190.723 -120.993 190.723 -121.372C190.723 -121.842 198.256 -122.061 214.365 -122.061C232.924 -122.061 237.918 -122.236 237.594 -122.873C237.276 -123.5 231.924 -123.642 213.953 -123.502C197.422 -123.371 190.723 -123.526 190.723 -124.036C190.723 -124.686 194.626 -129.9 208.673 -148.019C213.258 -153.934 214.944 -157.231 212.647 -155.793C212.082 -155.44 206.478 -148.429 200.193 -140.212C193.909 -131.996 188.504 -125.151 188.183 -125.001C187.536 -124.7 164.903 -153.939 164.903 -155.077C164.903 -155.47 170.17 -162.655 176.608 -171.041L188.313 -186.291L212.972 -186.463C228.868 -186.574 237.554 -186.865 237.415 -187.284C237.277 -187.698 228.14 -187.933 212.174 -187.933L187.149 -187.933L174.734 -171.79C167.907 -162.912 162.321 -155.376 162.321 -155.044C162.321 -154.712 167.368 -147.885 173.536 -139.874C179.705 -131.863 184.975 -124.87 185.248 -124.334C185.681 -123.481 182.726 -123.359 161.679 -123.359L137.615 -123.359L124.983 -106.801L112.351 -90.2413L124.398 -74.514C131.023 -65.8637 136.748 -58.4089 137.118 -57.9475C138.096 -56.73 188.112 -56.7364 189.136 -57.9539C189.521 -58.4115 195.14 -65.7216 201.625 -74.1992L213.413 -89.6125L237.251 -89.6125C255.293 -89.6125 261.295 -89.4152 261.94 -88.8013C265.181 -85.7134 286.207 -56.972 285.695 -56.3289C285.247 -55.7669 285.457 -55.7792 286.428 -56.3717C287.479 -57.0136 293.477 -57.1609 312.844 -57.0207C326.625 -56.9208 337.9 -57.0168 337.9 -57.2336C337.899 -57.8793 360.362 -87.2424 361.801 -88.4768C363.001 -89.5054 365.304 -89.6125 386.23 -89.6125C403.861 -89.6125 409.335 -89.4243 409.335 -88.8194C409.335 -86.7589 414.335 -92.8243 436.467 -121.737C449.582 -138.87 460.703 -153.253 461.18 -153.699C462.427 -154.865 507.39 -154.865 509.341 -153.699C510.951 -152.736 533.273 -123.78 533.273 -122.653C533.273 -121.877 513.834 -96.0653 510.71 -92.6951L509.057 -90.9104L484.515 -90.9104C467.155 -90.9104 460.064 -90.7027 460.285 -90.2017C460.503 -89.7098 467.759 -89.5197 484.026 -89.5807C501.147 -89.6449 507.452 -89.4678 507.452 -88.9233C507.452 -88.2911 487.824 -62.304 484.812 -58.9482C484.026 -58.072 484.028 -57.5529 484.822 -56.6767C488.571 -52.5401 508.011 -26.6504 507.601 -26.3402C507.322 -26.1299 496.814 -25.9832 484.249 -26.0144C471.686 -26.0455 460.961 -26.0578 460.417 -26.0416C459.873 -26.0254 458.572 -24.7709 457.525 -23.2542C456.479 -21.7376 450.921 -14.3736 445.174 -6.89021C439.427 0.592527 434.817 6.93438 434.93 7.20176C435.043 7.46978 440.413 14.5884 446.866 23.0213C453.318 31.4548 458.764 38.8389 458.969 39.4314C459.305 40.4042 461.393 40.4899 480.599 40.3205C501.461 40.1362 501.886 40.1582 503.364 41.5276C504.193 42.2953 504.87 43.346 504.87 43.8633C504.87 44.3805 500.352 50.6938 494.829 57.8929C489.307 65.0927 484.788 71.2879 484.788 71.6604C484.788 72.0336 490.081 79.2548 496.55 87.7077C503.02 96.1613 508.313 103.237 508.313 103.431C508.313 103.625 497.469 103.784 484.214 103.784C470.96 103.784 460.115 104.032 460.115 104.335C460.115 104.638 465.521 111.982 472.128 120.654C481.497 132.954 483.963 136.672 483.335 137.556C478.8 143.946 460.585 167.168 459.821 167.534C459.273 167.798 447.851 168.017 434.439 168.023C415.317 168.031 410.13 168.208 410.411 168.844C410.687 169.468 416.589 169.655 436.04 169.655L461.312 169.655L472.978 154.418C479.394 146.038 485.032 139.194 485.505 139.209C486.238 139.232 509.163 168.411 509.171 169.331C509.173 169.509 520.721 169.655 534.833 169.655L560.493 169.655L571.627 155.079C577.751 147.062 583.614 139.55 584.656 138.386C585.697 137.222 586.243 136.127 585.868 135.952C584.864 135.484 561.675 104.868 561.675 104.011C561.675 103.609 566.901 96.4579 573.288 88.1186L584.902 72.9571L609.932 72.6326L634.96 72.3081L646.91 56.7436C653.483 48.1835 659.457 40.85 660.186 40.4477C661.784 39.567 661.933 38.2451 660.438 38.2146C659.654 38.1983 637.584 10.2487 635.902 7.14202C635.572 6.53133 658.821 -23.6261 660.267 -24.4613C661.759 -25.3238 661.832 -25.7872 660.57 -26.3752ZM660.346 167.833C659.704 167.648 653.81 160.462 647.248 151.864C636.909 138.316 635.044 136.233 633.258 136.233C631.206 136.233 631.205 136.236 632.946 137.368C634.748 138.54 657.21 167.607 657.21 168.767C657.21 169.456 638.678 193.917 637.426 194.88C637.023 195.191 635.21 195.429 633.396 195.411C630.361 195.38 629.984 195.581 628.656 197.929L627.215 200.482L605.944 200.482C586.706 200.482 584.561 200.373 583.5 199.346C582.383 198.264 582.352 198.264 582.852 199.346C583.344 200.41 581.836 200.482 558.868 200.482L534.36 200.482L523.055 215.246C516.838 223.367 511.111 230.776 510.33 231.712C508.919 233.401 508.998 233.53 521.617 250.027L534.326 266.641L560.051 266.822C574.199 266.921 585.775 266.833 585.775 266.625C585.774 266.418 591.39 258.868 598.254 249.849C605.118 240.829 610.734 233.21 610.734 232.92C610.734 232.628 610.429 232.293 610.057 232.173C609.16 231.886 588.292 204.653 587.73 203.037C587.309 201.82 587.927 201.78 606.698 201.78L626.101 201.78L627.884 203.49C628.866 204.43 629.669 205.582 629.669 206.05C629.669 206.599 631.069 206.97 633.621 207.098L637.573 207.296L647.392 220.161C652.792 227.236 657.209 233.369 657.207 233.789C657.205 234.209 656.445 235.492 655.517 236.64C654.589 237.786 649.14 244.862 643.408 252.362L632.985 266L644.553 281.103C650.916 289.41 656.574 296.864 657.127 297.666C657.679 298.469 658.893 299.127 659.822 299.127C661.823 299.127 661.986 298.571 660.276 297.576C659.595 297.18 653.763 289.937 647.317 281.481C635.841 266.428 635.622 266.069 636.849 264.283C641.114 258.077 659.276 235.063 660.44 234.391C661.733 233.643 661.734 233.517 660.446 232.768C658.848 231.84 639.997 207.4 639.997 206.256C639.997 205.842 640.803 204.518 641.789 203.316L643.58 201.131L641.789 198.945C640.803 197.743 639.997 196.459 639.997 196.091C639.997 195.031 659.948 169.331 660.771 169.331C661.951 169.331 661.632 168.206 660.346 167.833ZM651.401 330.202C645.838 330.161 639.548 330.088 637.423 330.04L633.558 329.953L620.831 346.589L608.103 363.224L620.177 378.874C626.817 387.481 632.251 394.802 632.251 395.142C632.251 396.51 635.283 396.79 648.107 396.604C659.019 396.446 661.514 396.238 661.514 395.485C661.514 394.731 659.021 394.527 648.049 394.381L634.586 394.202L624.79 381.547C619.402 374.587 614.064 367.556 612.927 365.924L610.858 362.956L622.526 347.753C628.943 339.391 634.627 332.334 635.158 332.072C635.689 331.81 641.836 331.591 648.819 331.585C656.699 331.58 661.514 331.33 661.514 330.927C661.514 330.535 657.502 330.248 651.401 330.202ZM648.819 524.273C641.836 524.246 635.46 524.127 634.65 524.009C633.812 523.888 632.963 524.301 632.684 524.966C632.412 525.61 626.79 533.182 620.189 541.791L608.189 557.445L618.92 571.4C624.822 579.075 630.42 586.489 631.358 587.876C632.297 589.264 633.457 590.499 633.937 590.621C635.955 591.135 661.514 590.41 661.514 589.838C661.514 589.476 656.263 589.217 648.819 589.211C641.836 589.205 635.7 588.986 635.183 588.724C634.666 588.462 628.946 581.314 622.471 572.839L610.698 557.431L622.465 542.013C628.936 533.532 634.657 526.379 635.178 526.117C635.698 525.855 641.836 525.636 648.819 525.63C656.699 525.625 661.514 525.375 661.514 524.972C661.514 524.571 656.665 524.304 648.819 524.273ZM658.101 617.018C654.823 616.782 654.606 616.888 652.55 619.737L650.409 622.702L652.568 625.431C654.521 627.9 655.048 628.16 658.12 628.16L661.514 628.16L661.514 622.711L661.514 617.263L658.101 617.018ZM660.584 816.851C659.78 815.81 657.592 815.715 634.359 815.715C612.968 815.715 609.012 815.86 609.012 816.642C609.012 817.152 614.241 824.415 620.631 832.782C627.022 841.15 632.248 848.399 632.245 848.891C632.24 849.383 630.469 852.123 628.308 854.978C626.147 857.834 623.195 861.732 621.748 863.641C619.656 866.4 619.413 867.065 620.56 866.886C621.354 866.762 624.797 863.009 628.212 858.548L634.421 850.435L647.967 850.257C659.115 850.11 661.514 849.912 661.514 849.137C661.514 848.364 659.126 848.165 648.058 848.018L634.603 847.839L624.358 834.535C618.724 827.218 613.538 820.428 612.832 819.446L611.55 817.662L635.042 817.662L658.533 817.662L660.001 819.446L661.468 821.231L661.465 819.609C661.463 818.716 661.067 817.476 660.584 816.851ZM659.061 427.782C658.699 427.34 653.299 433.752 646.053 443.226L633.664 459.425L609.494 459.425L585.324 459.425L573.961 444.612C567.712 436.466 562.345 429.302 562.035 428.693C561.525 427.692 574.652 409.496 583.699 398.663C585.991 395.919 586.283 395.18 585.365 394.444C583.869 393.246 561.675 364.097 561.675 363.331C561.675 362.568 560.208 362.54 559.591 363.293C559.337 363.604 564.542 370.921 571.16 379.553C577.778 388.186 583.192 395.339 583.192 395.448C583.192 395.633 567.724 415.974 561.932 423.406L559.403 426.651L534.983 426.651L510.564 426.651L498.655 411.106L486.745 395.561L498.853 379.687C506.098 370.19 510.647 363.578 510.18 363.226C509.425 362.657 484.788 394.018 484.788 395.548C484.788 395.942 490.081 403.163 496.55 411.597C503.02 420.03 508.313 427.38 508.313 427.929C508.313 429.069 486.065 458.338 484.947 458.667C483.736 459.026 484.115 460.668 485.841 462.533C486.735 463.501 491.421 469.509 496.255 475.884C501.088 482.26 505.823 488.474 506.778 489.694L508.513 491.912L484.613 491.853C465.92 491.808 460.486 491.98 459.678 492.645C458.626 493.51 435.156 524.185 435.156 524.694C435.156 524.847 435.639 524.968 436.231 524.963C436.823 524.957 441.761 519.066 447.205 511.87C452.649 504.674 458.16 497.523 459.451 495.979L461.799 493.172L485.381 493.172C503.213 493.172 509.174 493.37 509.826 493.983C511.875 495.908 533.269 524.348 533.241 525.107C533.223 525.568 528.845 531.64 523.51 538.6L513.812 551.255L509.957 551.448C506.432 551.623 505.908 551.882 503.844 554.457L501.587 557.275L503.229 559.311C504.132 560.43 504.87 561.675 504.87 562.077C504.87 562.975 486.025 587.804 484.971 588.296C484.025 588.737 483.974 590.984 484.903 591.276C485.525 591.471 505.237 616.875 508.11 621.183L509.299 622.968L535.229 622.968C553.522 622.968 560.889 622.765 560.245 622.279C559.641 621.824 551.404 621.609 535.965 621.649C514.685 621.703 512.453 621.605 510.968 620.553C510.071 619.918 504.243 612.738 498.017 604.598L486.695 589.797L496.837 576.529L506.977 563.262L510.485 563.262C512.415 563.262 514.437 563.596 514.978 564.004C515.718 564.561 515.846 564.408 515.491 563.387C515.205 562.561 515.754 561.252 516.89 560.049L518.758 558.07L539.837 558.07C553.671 558.07 560.734 557.847 560.384 557.421C560.054 557.018 552.075 556.772 539.305 556.772L518.758 556.772L516.936 554.842C514.793 552.573 513.77 554.39 526.518 537.83C531.653 531.16 535.855 525.43 535.855 525.096C535.855 524.763 530.81 517.887 524.646 509.817C518.481 501.748 513.206 494.693 512.925 494.139C512.468 493.241 515.017 493.152 536.447 493.314L560.481 493.496L572.766 477.434L585.049 461.372L609.855 461.372L634.661 461.372L646.908 445.309C653.644 436.475 659.273 429.088 659.417 428.892C659.561 428.696 659.401 428.196 659.061 427.782ZM645.886 54.8894C639.658 63.0419 634.139 69.927 633.622 70.1892C633.104 70.4514 621.986 70.67 608.914 70.6759L585.148 70.6856L573.31 55.1302C565.029 44.2494 561.647 39.227 562.057 38.419C562.38 37.783 567.729 30.6195 573.943 22.4988L585.242 7.73456L609.392 7.73976L633.542 7.74495L645.355 23.153C651.853 31.6274 657.178 38.8999 657.19 39.3139C657.201 39.728 652.114 46.7369 645.886 54.8894ZM632.585 -255.972C623.112 -268.094 610.734 -284.562 610.734 -285.044C610.734 -285.352 599.35 -285.604 585.436 -285.604C563.878 -285.604 560.066 -285.462 559.648 -284.643C559.379 -284.114 560.823 -281.558 562.857 -278.964C572.871 -266.192 583.447 -252.113 583.461 -251.533C583.472 -251.112 592.056 -250.948 607.95 -251.066L632.424 -251.248L630.717 -249.119C619.693 -235.37 608.976 -220.474 609.709 -219.922C610.289 -219.484 610.918 -219.773 611.618 -220.799C614.526 -225.057 633.513 -249.674 634.325 -250.238C635.884 -251.32 635.67 -252.023 632.585 -255.972ZM586.204 -253.457C585.054 -253.686 581.002 -258.373 573.986 -267.593C568.213 -275.179 563.233 -281.897 562.921 -282.522C562.388 -283.585 563.786 -283.657 585.036 -283.648C597.513 -283.642 608.163 -283.423 608.703 -283.161C609.242 -282.899 614.235 -276.697 619.799 -269.38C625.363 -262.063 630.448 -255.492 631.1 -254.778C632.274 -253.492 632.083 -253.478 610.105 -253.298C597.906 -253.197 587.151 -253.269 586.204 -253.457ZM595.571 250.131L583.85 265.4L559.682 265.227L535.513 265.055L523.635 249.49C517.102 240.929 511.757 233.774 511.758 233.59C511.758 233.406 517.139 226.246 523.713 217.68L535.667 202.104L559.097 201.931C579.892 201.778 582.469 201.87 582.018 202.757C581.738 203.307 576.45 210.367 570.266 218.447C563.484 227.309 559.336 233.373 559.81 233.731C560.283 234.088 565.32 228.135 572.502 218.726C579.051 210.148 584.62 203.28 584.876 203.464C586.607 204.699 607.159 232.246 607.218 233.409C607.258 234.208 602.017 241.733 595.571 250.131ZM584.606 781.945C583.347 780.92 562.981 754.393 562.052 752.568C561.506 751.494 559.069 750.983 559.117 751.953C559.13 752.22 564.514 759.448 571.082 768.015C582.648 783.102 582.988 783.651 581.92 785.537C581.313 786.608 576.777 792.741 571.84 799.166L562.862 810.847L559.241 811.172C556.297 811.436 555.302 811.892 553.917 813.617L552.215 815.738L531.471 815.564L510.727 815.39L504.98 807.927C501.818 803.822 496.402 796.761 492.945 792.237L486.658 784.01L498.777 768.291C505.442 759.646 510.895 752.3 510.895 751.966C510.895 749.931 507.599 753.622 496.598 767.973L484.232 784.102L495.865 799.267C502.263 807.607 507.892 815.084 508.375 815.884L509.252 817.337L530.688 817.154L552.123 816.969L554.102 819.582C555.997 822.084 556.262 822.195 560.386 822.199C564.618 822.205 564.725 822.155 566.764 819.258L568.838 816.31L566.965 813.798L565.092 811.286L575.433 797.831C581.12 790.431 585.774 784.043 585.774 783.636C585.774 783.228 585.248 782.468 584.606 781.945ZM560.169 718.874C546.559 718.774 523.999 718.847 510.034 719.036C489.549 719.313 494.328 719.407 534.779 719.523C562.353 719.602 584.913 719.528 584.913 719.361C584.913 719.193 573.778 718.973 560.169 718.874ZM573.003 -173.655L562.952 -160.676L559.263 -160.475C556.015 -160.298 555.404 -160.007 554.161 -158.041L552.75 -155.808L531.855 -155.808L510.961 -155.808L506.792 -161.163C504.499 -164.108 499.038 -171.221 494.659 -176.971L486.696 -187.425L498.613 -202.93L510.53 -218.435L535.027 -218.584L559.523 -218.733L571.316 -203.333C577.802 -194.863 583.097 -187.641 583.082 -187.284C583.067 -186.927 578.531 -180.794 573.003 -173.655ZM571.9 86.7751C565.69 94.8802 560.221 101.878 559.745 102.323C559.093 102.937 553.191 103.132 535.535 103.125C522.692 103.119 511.693 102.879 511.091 102.59C509.398 101.781 486.672 71.8486 487.149 71.0588C487.381 70.6752 491.959 64.6663 497.324 57.706L507.078 45.0509L510.923 45.0509C514.51 45.0509 514.874 44.888 516.371 42.6055L517.975 40.1609L538.741 40.3341L559.506 40.508L571.268 55.7591C577.738 64.1472 583.067 71.2411 583.111 71.5241C583.156 71.8064 578.111 78.6694 571.9 86.7751ZM571.275 152.457L559.502 167.708L535.239 167.88L510.978 168.053L506.788 162.688C504.483 159.738 499.028 152.633 494.665 146.899L486.734 136.472L498.61 120.939L510.486 105.406L534.761 105.233L559.036 105.061L560.308 106.531C563.967 110.761 583.112 136.002 583.083 136.557C583.064 136.914 577.75 144.069 571.275 152.457ZM575.296 470.905C570.953 476.548 565.596 483.502 563.392 486.357L559.384 491.549L535.197 491.721L511.011 491.894L506.337 485.88C503.767 482.573 498.299 475.463 494.188 470.08L486.712 460.292L498.6 444.769L510.488 429.247L535.006 429.098L559.523 428.949L571.309 444.349C577.79 452.819 583.116 459.95 583.143 460.196C583.17 460.443 579.639 465.262 575.296 470.905ZM540.767 -319.676C538.943 -322.11 538.55 -322.284 534.467 -322.465L530.112 -322.657L528.057 -319.737L526.003 -316.817L527.866 -314.352C529.618 -312.035 530.005 -311.876 534.334 -311.697C538.888 -311.509 538.959 -311.535 540.839 -314.057C541.885 -315.46 542.734 -316.714 542.726 -316.844C542.719 -316.974 541.837 -318.248 540.767 -319.676ZM522.179 -42.76C516.076 -34.8243 510.751 -28.2501 510.344 -28.1515C509.937 -28.0522 504.448 -34.6997 498.145 -42.9235L486.686 -57.8754L493.768 -67.0922C497.662 -72.1608 502.964 -79.0549 505.549 -82.412C508.872 -86.7284 510.448 -88.2483 510.935 -87.6039C511.313 -87.1022 516.474 -80.4132 522.403 -72.739C528.332 -65.0648 533.203 -58.4264 533.228 -57.987C533.253 -57.5477 528.28 -50.6957 522.179 -42.76ZM523.266 20.6077L513.258 33.6938L510.14 33.673L507.022 33.6529L496.718 20.0444C487.232 7.51649 485.075 5.13603 485.075 7.1933C485.075 7.77349 499.001 26.5569 504.305 33.1324C504.894 33.8618 504.814 34.8256 504.051 36.215L502.94 38.2366L482.044 38.2366L461.147 38.2366L449.442 22.92C443.005 14.4963 437.738 7.29453 437.738 6.91682C437.738 6.10495 458.955 -21.9238 460.822 -23.5787C461.985 -24.6087 464.281 -24.7145 485.534 -24.7145C503.229 -24.7145 509.181 -24.5159 509.852 -23.9032C511.554 -22.3502 533.244 6.11728 533.258 6.81688C533.266 7.20497 528.77 13.4105 523.266 20.6077ZM497.34 119.352C491.304 127.285 485.979 133.764 485.505 133.75C484.709 133.726 462.815 106.007 462.733 104.919C462.714 104.651 472.961 104.433 485.505 104.433C498.05 104.433 508.313 104.544 508.313 104.681C508.313 104.817 503.375 111.42 497.34 119.352ZM475.063 833.562C468.692 825.352 463.119 817.978 462.679 817.175L461.88 815.715L436.468 815.715C420.101 815.715 411.057 815.946 411.057 816.364C411.057 816.78 419.601 817.016 434.94 817.023C448.076 817.028 459.236 817.247 459.741 817.509C460.245 817.771 465.97 824.928 472.463 833.413L484.268 848.838L477.664 857.425C474.031 862.147 470.897 866.23 470.7 866.498C470.503 866.765 470.897 866.984 471.576 866.984C472.495 866.984 487.146 849.192 486.721 848.593C486.68 848.536 481.434 841.771 475.063 833.562ZM485.179 653.843C484.103 653.341 387.541 653.342 385.809 653.843C385.02 654.071 384.376 654.535 384.376 654.876C384.376 655.486 366.342 679.41 362.313 684.146C360.563 686.201 360.393 686.821 361.24 688.04C365.818 694.62 384.828 718.864 385.913 719.504C386.94 720.11 393.496 720.313 411.867 720.307L436.447 720.299L448.496 704.423C455.14 695.668 460.984 688.663 461.524 688.806C463.338 689.288 461.652 686.474 454.975 677.864C445.485 665.629 438.598 656.376 438.598 655.862C438.598 655.617 449.249 655.417 462.267 655.417C483.831 655.417 487.95 655.134 485.179 653.843ZM447.635 -139.435C441.482 -131.335 436.25 -124.695 436.011 -124.682C435.646 -124.661 389.679 -184.171 388.823 -185.774C388.664 -186.069 399.122 -186.305 412.061 -186.299L435.586 -186.289L447.389 -170.886C453.881 -162.415 459.11 -155.187 459.008 -154.825C458.907 -154.462 453.789 -147.537 447.635 -139.435ZM447.61 702.468C441.599 710.32 436.286 717.115 435.802 717.566C435.123 718.201 429.429 718.348 410.739 718.215L386.555 718.043L375.605 703.766C369.583 695.913 364.235 688.9 363.721 688.182C362.922 687.066 364.525 684.607 374.718 671.308L386.65 655.741L410.042 655.569C422.907 655.474 433.417 655.62 433.395 655.893C433.374 656.166 428.185 663.107 421.864 671.317C415.063 680.15 410.681 686.491 411.131 686.849C411.547 687.182 412.026 687.328 412.194 687.173C412.361 687.019 417.649 680.102 423.944 671.804C430.239 663.505 435.627 656.721 435.918 656.727C436.901 656.75 458.997 686.236 458.767 687.217C458.641 687.752 453.621 694.615 447.61 702.468ZM411.035 70.6856L385.193 70.6856L384.435 72.1458C382.915 75.0727 362.186 101.51 361.458 101.452C360.645 101.386 338.886 73.3828 338.807 72.3023C338.781 71.9414 337.945 71.2632 336.948 70.794C335.92 70.3099 335.39 70.2501 335.723 70.6558C336.145 71.171 329.285 71.3553 311.206 71.3151L286.104 71.2593L273.916 87.1944L261.729 103.13L237.486 103.132L213.242 103.135L202.734 89.3438C196.955 81.7592 191.542 74.6768 190.705 73.606L189.185 71.6591L201.582 55.4365C208.399 46.5143 213.562 39.1095 213.055 38.9823C212.548 38.8544 212.008 38.8538 211.855 38.9803C210.695 39.9369 187.281 71.149 187.281 71.7363C187.281 72.1504 192.862 79.7499 199.683 88.6234L212.085 104.757L237.092 105.082L262.099 105.406L274.21 121.169C280.871 129.838 286.149 137.139 285.941 137.393C285.732 137.647 297.337 137.774 311.73 137.675C326.123 137.575 337.9 137.283 337.902 137.026C337.909 135.953 360.84 106.713 361.6 106.809C362.056 106.867 367.657 113.697 374.048 121.988L385.667 137.063L410.626 136.986C424.354 136.943 435.683 136.684 435.802 136.408C435.922 136.133 424.901 135.762 411.314 135.584L386.609 135.259L374.692 119.63L362.774 104.002L374.662 88.4794L386.551 72.957L411.498 72.6326C430.49 72.3853 436.498 72.1147 436.662 71.4968C436.83 70.8621 431.25 70.6856 411.035 70.6856ZM435.703 393.536C435.057 392.832 429.205 385.262 422.698 376.715C416.191 368.168 406.419 355.396 400.984 348.333L391.103 335.492L392.928 333.265L394.753 331.038L392.835 328.062C390.933 325.109 390.884 325.086 386.564 325.086C382.344 325.086 382.142 325.172 379.935 327.927L377.66 330.768L379.775 333.443C381.72 335.902 382.184 336.118 385.519 336.118L389.146 336.118L398.81 348.661C404.126 355.559 408.475 361.404 408.475 361.651C408.475 361.897 397.93 362.021 385.041 361.926L361.606 361.753L349.538 345.853L337.469 329.953L315.251 330.18C303.031 330.304 291.785 330.23 290.259 330.014C288.464 329.76 287.011 328.993 286.141 327.841C285.402 326.861 280.037 319.839 274.217 312.236C264.786 299.916 263.747 298.258 264.652 296.985C265.211 296.2 270.611 289.132 276.652 281.28L287.636 267.002L312.046 266.869C325.471 266.796 336.974 266.586 337.607 266.403C338.241 266.219 338.76 265.785 338.76 265.438C338.76 265.091 344.167 257.784 350.775 249.2L362.79 233.593L350.875 218.044C344.321 209.491 339.173 202.333 339.434 202.137C339.694 201.941 350.493 201.78 363.433 201.78C378.542 201.78 386.958 201.547 386.958 201.131C386.958 200.713 378.242 200.482 362.533 200.482C340.935 200.482 337.973 200.358 336.928 199.415C335.636 198.249 322.829 181.723 317.016 173.72C315.011 170.959 312.844 168.696 312.202 168.691C310.56 168.678 310.696 168.881 323.228 185.204C329.403 193.247 334.456 199.975 334.456 200.155C334.456 200.334 323.645 200.482 310.431 200.482L286.406 200.482L273.772 217.029L261.138 233.576L273.267 249.488C279.939 258.24 285.398 265.703 285.398 266.074C285.398 267.151 262.97 296.118 261.415 297.049C260.326 297.701 254.553 297.868 235.919 297.784L211.831 297.676L210.216 299.861C209.328 301.063 203.651 308.519 197.599 316.429L186.597 330.811L189.344 334.276C190.855 336.182 196.454 343.482 201.786 350.498L211.48 363.255L199.273 379.053C192.56 387.742 187.07 395.143 187.073 395.5C187.077 395.857 192.569 403.277 199.279 411.989L211.479 427.828L199.325 443.789C192.64 452.567 187.2 460.041 187.235 460.398C187.271 460.755 192.738 468.15 199.384 476.83L211.468 492.614L199.471 508.306L187.474 523.998L163.319 524.17L139.165 524.343L134.988 518.978C132.69 516.028 127.21 508.888 122.81 503.112L114.81 492.609L129.41 473.584C158.007 436.316 164.042 428.359 164.042 427.917C164.042 427.672 158.385 420.054 151.471 410.989L138.901 394.508L113.441 394.679L87.9825 394.851L75.6629 410.982C68.8867 419.853 63.3431 427.398 63.3431 427.747C63.3431 429.716 66.3279 426.375 77.0847 412.365L89.036 396.798L113.053 396.626C135.11 396.468 137.177 396.548 138.369 397.6C139.771 398.837 159.076 423.872 160.699 426.557C161.598 428.044 160.73 429.43 150.81 442.346C144.829 450.133 139.363 457.234 138.664 458.127C137.966 459.019 131.727 467.184 124.802 476.271C113.499 491.103 112.324 492.928 113.315 494.118C115.794 497.096 135.865 523.337 136.623 524.591C137.427 525.922 137.831 525.942 160.854 525.758C173.732 525.655 185.043 525.719 185.99 525.902C186.936 526.084 188.319 527.045 189.061 528.036C189.804 529.028 194.88 535.68 200.341 542.819C205.802 549.958 210.515 556.382 210.815 557.096C211.342 558.355 212.114 558.394 236.48 558.394L261.603 558.394L265.19 562.937C275.37 575.83 285.393 589.29 285.356 590.019C285.301 591.111 263.432 619.295 262.449 619.542C262.029 619.648 256.599 613.097 250.383 604.984C240.315 591.845 237.2 588.389 237.2 590.36C237.2 590.689 242.419 597.778 248.797 606.114C255.176 614.45 260.244 621.384 260.058 621.524C259.873 621.663 260.367 622.277 261.155 622.885C261.944 623.495 267.975 631.064 274.558 639.705L286.525 655.417L312.234 655.417L337.942 655.417L338.706 653.957C339.126 653.154 344.72 645.654 351.137 637.289L362.805 622.083L361.184 620.091C354.583 611.986 338.76 590.66 338.761 589.871C338.762 589.335 344.165 581.817 350.766 573.164L362.769 557.432L350.22 541.04C343.317 532.024 337.569 524.557 337.446 524.447C337.323 524.336 326.53 524.271 313.462 524.302C300.154 524.334 289.701 524.105 289.701 523.783C289.701 523.466 295.277 515.938 302.094 507.053C308.91 498.169 319.526 484.329 325.686 476.298L336.885 461.696L361.405 461.524L385.925 461.352L397.63 476.664C404.068 485.085 409.335 492.286 409.335 492.666C409.335 493.388 389.677 519.404 386.725 522.588C385.559 523.846 385.303 524.632 385.911 525.091C386.989 525.904 386.32 526.682 400.795 507.789L412.219 492.878L409.448 489.046C407.924 486.939 402.205 479.407 396.74 472.31L386.804 459.406L361.351 459.577L335.897 459.749L324.203 475.134C317.771 483.596 312.303 490.532 312.049 490.547C311.796 490.563 304.275 481.012 295.334 469.322C286.394 457.632 275.618 443.586 271.386 438.108C265.548 430.549 263.871 427.865 264.433 426.979C264.839 426.337 270.207 419.214 276.361 411.151L287.549 396.49L337.167 396.482L386.783 396.474L398.705 380.902C405.262 372.337 410.831 365.328 411.082 365.326C411.727 365.321 433.53 393.864 433.856 395.142C434.004 395.722 428.767 403.195 422.218 411.749C413.983 422.504 410.591 427.5 411.221 427.949C411.829 428.382 412.241 428.382 412.457 427.949C413.049 426.767 433.528 400.077 435.218 398.284C437.184 396.201 437.281 395.256 435.703 393.536ZM410.81 848.164L385.603 848.164L380.527 854.816C371.204 867.032 371.236 866.984 372.485 866.984C373.126 866.984 376.67 863.042 380.361 858.223L387.07 849.462L411.544 849.462C427.285 849.462 436.016 849.23 436.016 848.813C436.016 848.395 427.04 848.164 410.81 848.164ZM422.378 -106.486L410.605 -91.2349L386.878 -91.0623C365.098 -90.9046 363.043 -90.9844 361.847 -92.0358C361.131 -92.6666 355.469 -99.8294 349.267 -107.953L337.99 -122.725L349.689 -137.983C356.123 -146.375 361.487 -153.161 361.609 -153.065C361.731 -152.967 367.105 -146.025 373.552 -137.637C379.997 -129.249 385.744 -122.386 386.323 -122.386C386.902 -122.386 392.512 -129.103 398.79 -137.313C405.069 -145.522 410.605 -152.239 411.093 -152.239C412.157 -152.239 434.112 -124.104 434.135 -122.71C434.143 -122.175 428.853 -114.874 422.378 -106.486ZM410.694 621.063C409.69 620.435 409.554 620.537 409.933 621.633C410.188 622.367 410.739 622.968 411.157 622.968C412.318 622.968 412.064 621.92 410.694 621.063ZM386.026 -155.808C373.678 -155.808 363.705 -156.041 363.863 -156.327C365.398 -159.099 385.843 -184.968 386.391 -184.83C387.184 -184.631 408.475 -157.14 408.475 -156.316C408.475 -156.037 398.372 -155.808 386.026 -155.808ZM397.546 -138.915C391.536 -131.072 386.302 -124.892 385.916 -125.183C384.237 -126.449 363.881 -153.534 364.261 -153.997C364.912 -154.792 408.475 -154.642 408.475 -153.843C408.475 -153.477 403.557 -146.759 397.546 -138.915ZM397.173 379.7L385.871 394.527L362.279 394.527L338.687 394.527L340.818 391.769C341.99 390.251 347.195 383.462 352.384 376.68L361.82 364.349L385.148 364.177C397.978 364.082 408.475 364.199 408.475 364.439C408.475 364.678 403.389 371.545 397.173 379.7ZM384.188 -379.058C383.555 -379.058 378.26 -372.787 372.42 -365.123C366.579 -357.458 361.315 -350.883 360.719 -350.51C360.009 -350.066 351.516 -349.892 336.082 -350.005L312.528 -350.178L301.581 -364.456C295.205 -372.772 290.028 -378.829 289.183 -378.961C287.902 -379.162 287.935 -378.934 289.473 -377.014C291.958 -373.909 333.135 -319.97 334.357 -318.219C335.268 -316.913 334.146 -315.151 323.511 -301.198L311.648 -285.633L287.191 -285.457C268.559 -285.322 262.648 -285.087 262.375 -284.469C262.093 -283.832 267.46 -283.658 287.324 -283.658L312.632 -283.658L324.571 -299.395C331.137 -308.051 336.822 -315.23 337.205 -315.349C338.446 -315.736 337.942 -317.382 335.827 -319.852C334.689 -321.183 329.412 -327.967 324.102 -334.927C318.793 -341.887 314.274 -347.809 314.059 -348.086C313.845 -348.364 324.585 -348.566 337.927 -348.535C351.268 -348.504 362.267 -348.57 362.368 -348.68C362.576 -348.907 384.463 -377.823 384.994 -378.571C385.183 -378.839 384.821 -379.058 384.188 -379.058ZM351.448 -143.478C343.646 -133.305 336.962 -125.031 336.596 -125.09C336.229 -125.15 330.806 -131.897 324.543 -140.086L313.156 -154.972L324.987 -170.479L336.818 -185.986L360.568 -186.159L384.318 -186.331L374.976 -174.153C369.839 -167.454 359.251 -153.651 351.448 -143.478ZM345.761 122.929L336.297 135.259L312.157 135.432L288.019 135.604L285.987 133.16C284.87 131.816 279.38 124.742 273.786 117.441L263.617 104.165L265.59 101.541C266.675 100.097 272.228 92.8567 277.929 85.4499L288.294 71.9836L312.287 71.9836C326.569 71.9836 336.082 72.2237 335.793 72.5774C335.525 72.9038 335.695 73.2685 336.169 73.3886C336.644 73.508 342.25 80.4502 348.627 88.8155L360.22 104.025L357.723 107.311C356.35 109.119 350.968 116.147 345.761 122.929ZM348.498 249.016C342.021 257.48 336.308 264.624 335.803 264.889C335.299 265.154 324.263 265.3 311.279 265.214L287.672 265.055L275.776 249.535C269.233 240.999 263.881 233.82 263.881 233.58C263.881 233.339 269.233 226.16 275.776 217.624L287.672 202.104L311.377 201.931C332.444 201.778 335.217 201.878 336.277 202.821C337.274 203.71 360.097 232.88 360.232 233.44C360.257 233.542 354.977 240.551 348.498 249.016ZM345.645 382.38C341.148 388.321 337.127 393.107 336.71 393.015C336.084 392.876 328.575 383.37 314.915 365.42C313.606 363.7 312.457 362.831 311.974 363.195C311.491 363.559 315.254 369.097 321.61 377.375C327.345 384.845 332.592 391.76 333.269 392.742L334.5 394.527L311.025 394.514L287.549 394.501L275.715 378.958C269.206 370.409 263.899 363.187 263.92 362.908C263.942 362.63 269.274 355.539 275.769 347.151L287.576 331.9L311.94 331.9L336.304 331.9L348.25 347.458L360.195 363.016L357.009 367.297C355.255 369.651 350.142 376.439 345.645 382.38ZM348.973 572.127C342.755 580.279 337.08 587.46 336.359 588.085C335.173 589.114 332.898 589.22 312.161 589.211C299.571 589.205 288.814 588.982 288.256 588.714C286.462 587.853 263.859 557.778 264.318 556.861C265.314 554.876 287.403 526.559 288.3 526.117C288.834 525.855 299.616 525.636 312.26 525.63C329.579 525.623 335.486 525.821 336.21 526.432C336.916 527.028 359.97 556.554 360.234 557.2C360.258 557.257 355.19 563.974 348.973 572.127ZM348.403 637.691L336.53 653.145L312.025 653.317L287.519 653.489L276.13 638.586C269.867 630.389 264.742 623.522 264.742 623.325C264.742 623.129 275.392 622.968 288.41 622.968C303.616 622.968 312.079 622.735 312.079 622.319C312.079 621.902 303.616 621.67 288.41 621.67C275.392 621.67 264.745 621.45 264.748 621.183C264.753 620.916 269.886 613.979 276.156 605.77L287.556 590.843L311.222 590.685C324.238 590.598 335.308 590.744 335.823 591.009C336.514 591.366 360.099 621.397 360.251 622.115C360.265 622.181 354.934 629.19 348.403 637.691ZM348.55 -74.9929C342.573 -67.15 337.086 -60.2176 336.355 -59.5868C335.135 -58.5361 333.073 -58.4556 311.378 -58.6133L287.73 -58.7859L275.723 -74.5185L263.716 -90.2511L275.633 -105.821L287.549 -121.39L311.088 -121.401L334.627 -121.413L332.851 -119.144C331.875 -117.896 327.492 -112.202 323.11 -106.489L315.144 -96.1023L311.496 -96.1023C308.083 -96.1023 307.702 -95.9147 305.578 -93.1819L303.308 -90.2615L305.578 -87.3411C307.767 -84.5245 307.995 -84.4207 311.97 -84.4207C315.98 -84.4207 316.152 -84.5024 318.27 -87.4066L320.448 -90.3919L318.711 -92.7827L316.974 -95.1736L326.743 -107.951C332.116 -114.978 336.687 -120.595 336.902 -120.434C338.259 -119.411 359.407 -91.0467 359.411 -90.2439C359.413 -89.6988 354.527 -82.8358 348.55 -74.9929ZM311.323 -123.359C293.846 -123.359 287.982 -123.558 287.338 -124.171C286.149 -125.3 265.806 -152.057 265.14 -153.366C264.645 -154.339 266.619 -154.438 287.422 -154.489C304.909 -154.532 310.484 -154.351 311.259 -153.716C312.498 -152.701 334.329 -124.526 334.403 -123.846C334.432 -123.578 324.047 -123.359 311.323 -123.359ZM298.643 508.394C292.2 516.791 286.584 523.501 286.163 523.304C285.742 523.108 285.398 523.258 285.398 523.635C285.398 524.699 239.301 524.578 237.999 523.512C236.067 521.929 215.035 494.137 215.407 493.658C215.615 493.391 222.539 493.172 230.796 493.172C239.998 493.172 245.807 492.926 245.807 492.538C245.807 492.154 239.673 491.833 230.32 491.726L214.833 491.549L226.263 476.623L237.693 461.696L261.115 461.524C273.997 461.429 284.537 461.523 284.537 461.734C284.537 461.944 281.685 465.818 278.2 470.343C269.562 481.555 269.604 481.49 270.991 481.49C271.622 481.49 275.374 477.246 279.33 472.059C283.286 466.872 286.864 462.714 287.28 462.818C288.051 463.012 310.306 491.815 310.339 492.662C310.349 492.917 305.086 499.996 298.643 508.394ZM287.479 -316.918C287.123 -317.185 276.078 -317.405 262.935 -317.405L239.038 -317.405L237.385 -319.189C234.181 -322.648 218.265 -343.817 218.265 -344.621C218.265 -345.069 218.923 -346.275 219.727 -347.301C221.103 -349.057 221.103 -349.304 219.727 -351.479C218.923 -352.751 218.265 -354.052 218.265 -354.371C218.265 -354.69 222.332 -360.25 227.302 -366.727C232.273 -373.204 236.339 -378.628 236.339 -378.781C236.339 -378.933 235.855 -379.054 235.263 -379.049C234.671 -379.044 230.121 -373.651 225.15 -367.064L216.113 -355.088L212.24 -355.065C208.657 -355.043 208.238 -354.86 206.643 -352.61L204.92 -350.178L184.696 -350.033C173.573 -349.952 163.794 -349.879 162.966 -349.87C162.139 -349.861 161.46 -349.591 161.46 -349.269C161.46 -348.948 156.038 -341.618 149.411 -332.98C142.784 -324.342 137.361 -317.129 137.361 -316.95C137.361 -316.771 143.031 -309.211 149.959 -300.151L162.557 -283.677L187.492 -283.505L212.427 -283.333L224.352 -267.795L236.276 -252.255L233.551 -248.65C232.054 -246.666 226.688 -239.64 221.627 -233.037L212.426 -221.031L187.374 -220.859C165.894 -220.712 162.321 -220.549 162.321 -219.723C162.321 -218.892 165.836 -218.764 187.926 -218.793L213.531 -218.826L223.653 -232.259C229.22 -239.648 234.904 -247.152 236.286 -248.937L238.796 -252.182L226.398 -268.352L213.999 -284.523L216.513 -287.821C217.896 -289.636 223.266 -296.67 228.446 -303.451L237.865 -315.782L262.995 -316.107C276.817 -316.285 287.834 -316.65 287.479 -316.918ZM273.666 346.749L261.933 362.078L237.61 362.078L213.288 362.078L201.576 346.818C195.133 338.426 189.863 331.219 189.863 330.803C189.863 329.908 210.985 301.915 212.907 300.262C214.105 299.232 216.425 299.127 237.744 299.127L261.259 299.127L262.761 300.855C266.36 304.996 285.312 330.023 285.352 330.687C285.377 331.092 280.118 338.319 273.666 346.749ZM273.272 412.028L261.831 426.976L237.544 426.976L213.258 426.976L201.56 411.674C195.127 403.258 189.863 395.986 189.863 395.515C189.863 395.043 195.13 387.765 201.567 379.341L213.272 364.025L237.18 364.025C256.186 364.025 261.286 364.204 262.051 364.899C265.053 367.627 285.351 395.032 285.06 395.966C284.869 396.578 279.564 403.806 273.272 412.028ZM260.417 459.425L236.296 459.425L235.547 460.885C234.673 462.588 214.197 489.348 213.168 490.131C212.355 490.75 189.842 461.76 189.906 460.175C189.929 459.584 195.117 452.383 201.434 444.174L212.918 429.247L237.416 429.075L261.914 428.903L273.207 443.677C279.418 451.803 284.508 458.671 284.518 458.938C284.528 459.205 273.683 459.425 260.417 459.425ZM273.129 541.598L261.721 556.447L237.987 556.62C216.202 556.778 214.146 556.698 212.949 555.646C211.133 554.051 190.622 527.09 190.117 525.636C189.863 524.902 193.731 519.168 200.263 510.595C206.07 502.975 211.276 496.227 211.833 495.598C212.709 494.609 213.867 495.788 220.438 504.36C224.614 509.807 229.993 516.819 232.391 519.942L236.751 525.621L260.645 525.621C273.786 525.621 284.537 525.874 284.537 526.185C284.537 526.494 279.403 533.431 273.129 541.598ZM268.737 36.1294C266.982 33.8145 266.679 33.697 262.462 33.6957C258.161 33.6938 257.968 33.7749 255.871 36.4513L253.711 39.2095L255.758 41.8054C257.651 44.2079 258.143 44.4259 262.322 44.7264L266.797 44.6252L268.799 42.1305C271.076 38.737 271.081 39.2237 268.737 36.1294ZM268.806 813.657C267.072 811.462 266.57 811.258 262.425 811.061C258.018 810.852 257.891 810.896 256.116 813.281L254.303 815.715L234.54 815.715L214.778 815.715L216.009 813.93C216.687 812.948 221.972 806.013 227.756 798.517C233.539 791.021 238.288 784.571 238.309 784.182C238.33 783.794 233.054 776.576 226.585 768.143C220.115 759.709 214.822 752.342 214.822 751.771C214.822 751.2 220.113 743.816 226.578 735.361C233.045 726.907 238.326 719.698 238.315 719.341C238.305 718.984 232.823 711.537 226.134 702.792L213.972 686.892L188.061 686.568C162.793 686.251 162.128 686.276 161.279 687.541C160.799 688.255 156.115 694.461 150.869 701.332L141.33 713.825L137.679 713.825C134.319 713.825 133.876 714.031 132.102 716.41L130.176 718.995L109.024 719.18L87.8724 719.365L109.016 719.515L130.159 719.666L132.094 722.262C133.877 724.655 134.315 724.858 137.688 724.858L141.349 724.858L150.929 737.35C156.199 744.222 160.761 750.347 161.069 750.962C161.445 751.715 158.178 756.597 151.08 765.889C145.279 773.483 139.652 780.684 138.575 781.891C136.65 784.05 136.644 784.115 138.214 785.785C140.832 788.571 161.46 815.787 161.46 816.455C161.46 816.962 142.183 842.536 138.225 847.28C137.172 848.542 137.672 849.462 143.791 857.519C147.488 862.388 150.871 866.538 151.31 866.743C153.654 867.835 152.425 865.555 146.505 857.827C142.896 853.116 139.943 849.054 139.943 848.799C139.943 848.336 147.079 838.87 158.158 824.638L164.094 817.013L186.825 817.013C199.327 817.013 209.733 817.232 209.949 817.5C210.165 817.767 205.01 824.954 198.492 833.47L186.641 848.954L189.821 852.94C191.571 855.132 194.696 859.188 196.768 861.955C198.839 864.721 201.037 866.984 201.653 866.984C202.269 866.984 202.773 866.873 202.773 866.737C202.773 866.601 199.719 862.535 195.986 857.702L189.2 848.915L200.719 833.83C207.055 825.533 212.382 818.636 212.558 818.503C212.733 818.371 218.163 825.149 224.624 833.566L236.37 848.869L229.777 857.44C226.15 862.154 223.022 866.23 222.825 866.498C222.628 866.765 223.015 866.984 223.685 866.984C224.354 866.984 228.027 862.902 231.846 857.911L238.789 848.837L226.93 833.412C220.408 824.928 215.232 817.767 215.428 817.5C215.624 817.232 224.451 817.013 235.044 817.013L254.303 817.013L256.238 819.609C258.074 822.071 258.385 822.205 262.282 822.205C266.218 822.205 266.482 822.086 268.578 819.389C269.782 817.841 270.749 816.454 270.728 816.307C270.707 816.159 269.843 814.967 268.806 813.657ZM226.793 185.567C220.209 176.936 214.822 169.623 214.822 169.316C214.822 169.009 214.436 168.578 213.964 168.358C213.492 168.138 202.077 167.983 188.599 168.012L164.093 168.067L162.056 165.616C160.935 164.269 155.276 156.96 149.481 149.374L138.942 135.584L113.232 135.584L87.523 135.584L85.8386 138.342C84.9126 139.858 80.3036 146.065 75.5974 152.133L67.0397 163.165L62.8241 163.356C58.8745 163.535 58.488 163.714 56.678 166.206L54.7458 168.865L56.4629 170.959C57.407 172.111 58.179 173.432 58.179 173.896C58.179 175.066 40.1892 198.673 38.5367 199.67C37.5572 200.262 32.2357 200.482 18.8539 200.482C7.20119 200.482 0.513703 200.719 0.513703 201.131C0.513703 201.543 7.23559 201.78 18.9572 201.78C33.9803 201.78 37.633 201.955 38.6563 202.727C39.3483 203.248 45.0658 210.434 51.3634 218.695C57.6601 226.957 63.2227 233.833 63.7236 233.976C64.2245 234.119 86.6933 234.307 113.655 234.395L162.676 234.553L172.886 247.857C178.501 255.174 183.899 262.235 184.88 263.547L186.665 265.933L176.527 279.285L166.389 292.637L162.67 292.637C159.192 292.637 158.809 292.82 156.76 295.455L154.57 298.274L156.509 300.966C158.401 303.594 158.557 303.659 162.955 303.664C167.284 303.669 167.55 303.566 169.644 301.064L171.825 298.459L169.948 295.999L168.071 293.54L176.934 281.894C181.808 275.488 186.518 269.472 187.399 268.525C188.281 267.577 189.002 266.524 189.002 266.186C189.002 265.587 165.304 234.427 164.052 233.378C163.706 233.09 152.718 232.879 139.634 232.91C126.55 232.941 115.856 232.739 115.87 232.461C115.885 232.184 126.639 217.994 139.77 200.929L163.644 169.9L187.721 169.959C205.481 170.003 212.054 170.226 212.771 170.81C213.305 171.246 218.835 178.256 225.057 186.389L236.374 201.175L224.641 216.449C218.188 224.85 212.724 232.254 212.499 232.903C211.904 234.621 213.728 235.157 214.438 233.472C214.767 232.689 216.87 229.691 219.111 226.811C221.351 223.93 226.69 217.003 230.975 211.417L238.764 201.26L226.793 185.567ZM221.509 -297.611L212.556 -285.929L188.085 -285.759L163.612 -285.589L152.223 -300.442C145.958 -308.611 140.604 -315.744 140.325 -316.294C140.017 -316.897 144.314 -323.163 151.172 -332.113C157.417 -340.264 162.915 -347.298 163.39 -347.744C164.036 -348.352 169.366 -348.556 184.644 -348.556L205.036 -348.556L206.473 -346.284C207.794 -344.195 208.214 -344.013 211.708 -344.013L215.507 -344.013L225.842 -330.546L236.177 -317.08L233.319 -313.186C231.748 -311.045 226.433 -304.036 221.509 -297.611ZM222.573 737.13L212.099 750.817L187.856 750.804L163.612 750.793L153.48 737.503L143.347 724.214L145.084 721.647L146.821 719.08L145.046 716.813L143.272 714.545L153.727 700.881L164.183 687.217L188.263 687.217C202.597 687.217 212.145 687.457 211.855 687.811C211.588 688.137 211.72 688.502 212.151 688.622C212.84 688.813 219.619 697.39 232.327 714.146L236.261 719.334L234.654 721.388C233.77 722.518 228.333 729.602 222.573 737.13ZM224.866 799.078C218.584 807.24 213.076 813.846 212.627 813.759C212.177 813.672 206.736 806.994 200.536 798.92C194.316 790.821 188.644 784.148 187.884 784.036C187.016 783.908 190.955 789.637 198.512 799.501C205.116 808.118 210.519 815.296 210.519 815.452C210.519 815.608 199.97 815.658 187.078 815.563L163.638 815.39L151.808 800.139C145.3 791.751 140.118 784.403 140.29 783.81C140.462 783.217 145.78 775.984 152.106 767.738L163.608 752.744L188.083 752.916L212.558 753.088L224.373 768.339C230.871 776.727 236.211 783.736 236.238 783.915C236.267 784.093 231.149 790.917 224.866 799.078ZM212.957 -26.0144C212.8 -26.0157 201.389 -26.089 187.601 -26.1766L162.531 -26.3369L150.896 -11.1079C144.496 -2.73221 138.93 4.20345 138.526 4.30534C138.122 4.40658 132.6 -2.30067 126.255 -10.5992C119.91 -18.8983 114.638 -25.7697 114.539 -25.8697C114.201 -26.2091 64.1367 -26.0579 63.4025 -25.7159C63.0014 -25.529 57.1944 -18.2331 50.4984 -9.503L38.3233 6.3697L39.5376 8.51203C40.2064 9.69058 45.8086 17.2259 51.9882 25.257L63.2243 39.859L88.8889 40.1835C129.026 40.691 163.379 40.3055 162.959 39.3528C162.7 38.7668 156.542 38.4767 139.24 38.2366L115.87 37.9121L139.741 6.60663L163.612 -24.6989L188.124 -24.6684C204.651 -24.6476 212.735 -24.8611 212.941 -25.3251C213.108 -25.7028 213.116 -26.0131 212.957 -26.0144ZM199.307 -74.3614C193.025 -66.1518 187.458 -59.2201 186.937 -58.9579C185.7 -58.3355 140.676 -58.3356 139.385 -58.9579C138.841 -59.2201 133.096 -66.3751 126.618 -74.8579L114.841 -90.2816L126.865 -106.009L138.889 -121.737L162.993 -121.909L187.097 -122.082L197.888 -107.956C210.223 -91.8086 211.398 -90.1699 211.009 -89.6592C210.855 -89.4548 205.588 -82.571 199.307 -74.3614ZM150.056 184.247C141.517 195.378 138.414 198.918 137.701 198.337C137.179 197.91 131.986 191.282 126.161 183.608C120.335 175.934 115.108 169.27 114.543 168.8C113.743 168.134 108.847 167.96 92.3385 168.009L71.1615 168.074L69.8972 166.23C68.6578 164.423 68.8299 164.132 78.8017 151.121L88.9689 137.855L113.477 137.683L137.984 137.511L149.642 152.61C156.054 160.914 161.336 168.085 161.38 168.545C161.424 169.005 156.329 176.072 150.056 184.247ZM125.672 21.8849C119.716 29.6292 114.003 36.4694 112.977 37.0866C111.314 38.086 108.572 38.2094 87.7442 38.2223L64.3768 38.2366L52.3996 22.567L40.4216 6.8967L52.5227 -8.90858L64.623 -24.7145L88.783 -24.7145L112.944 -24.7145L124.722 -9.30506C131.201 -0.830032 136.501 6.48653 136.501 6.95444C136.501 7.42171 131.628 14.1406 125.672 21.8849ZM125.599 216.323C119.603 224.208 114.12 231.171 113.416 231.795C112.253 232.826 109.956 232.929 88.3845 232.916L64.6341 232.903L52.7138 217.3C45.7535 208.189 40.9638 201.242 41.2031 200.602C41.4277 200.001 45.8783 193.959 51.0922 187.178L60.5726 174.847L63.894 174.673L67.2162 174.499L76.1853 186.355C87.2553 200.987 88.3088 202.174 89.2332 201.046C89.6179 200.576 89.6402 200.038 89.2831 199.85C88.925 199.662 84.1009 193.57 78.5624 186.312L68.4934 173.115L70.2802 171.223L72.067 169.331L92.2145 169.331L112.362 169.331L113.818 171.006C118.142 175.982 136.47 200.293 136.483 201.072C136.493 201.575 131.595 208.437 125.599 216.323ZM102.476 -235.897C95.6684 -244.787 89.7487 -252.325 89.3218 -252.647C88.0497 -253.606 38.9533 -253.313 38.1271 -252.341C37.7492 -251.896 32.4397 -244.989 26.3289 -236.991C20.2172 -228.993 14.8139 -222.144 14.3207 -221.772C13.8275 -221.4 13.4239 -220.721 13.4239 -220.263C13.4239 -219.805 19.1302 -211.978 26.1051 -202.871L38.7854 -186.311L64.4052 -186.311C79.103 -186.311 90.0242 -186.56 90.0242 -186.897C90.0242 -187.375 107.335 -210.356 113.292 -217.786L114.853 -219.733L102.476 -235.897ZM103.182 283.227C96.8329 275.017 91.1103 267.424 90.4648 266.353C89.5189 264.782 89.1841 264.616 88.7314 265.491C88.0635 266.783 87.5024 265.96 101.333 283.992L112.373 298.387L100.495 313.846L88.6178 329.304L64.0919 329.476L39.5661 329.648L27.6758 314.05C21.1364 305.471 15.4748 298.307 15.0953 298.13C12.5769 296.956 15.0135 300.75 25.9614 315.047L38.3688 331.251L63.3999 331.576C87.2226 331.885 90.8848 331.703 90.8848 330.217C90.8848 329.862 96.1667 322.648 102.624 314.187C109.079 305.725 114.443 298.656 114.544 298.478C114.644 298.299 109.53 291.436 103.182 283.227ZM109.36 32.0713C107.716 29.9297 105.956 28.2579 105.449 28.3559C104.942 28.4539 104.767 28.2429 105.058 27.8873C105.813 26.9657 94.3094 12.2093 93.2284 12.7129C92.7146 12.9524 92.6001 12.8102 92.9564 12.3747C93.7964 11.3507 89.932 6.24641 88.9035 7.02195C87.9275 7.75789 102.148 26.5972 103.28 26.0695C103.71 25.869 103.785 26.0423 103.448 26.4537C102.692 27.3759 104.968 29.9777 105.947 29.3093C106.335 29.0438 106.389 29.1736 106.065 29.5987C105.333 30.5631 108.419 34.516 109.387 33.8534C109.777 33.5873 109.817 33.734 109.477 34.1792C108.783 35.0891 110.947 37.8187 111.834 37.1509C112.694 36.5019 112.578 36.2631 109.36 32.0713ZM101.745 -205.918C96.357 -198.882 91.0905 -192.029 90.0405 -190.691L88.1324 -188.257L63.9034 -188.272L39.6745 -188.285L27.8402 -203.777C21.3309 -212.296 16.0059 -219.496 16.0059 -219.776C16.0059 -220.056 21.3309 -227.241 27.8402 -235.743L39.6746 -251.201L63.3431 -251.195C76.3609 -251.192 87.4567 -250.974 88.0007 -250.712C88.5455 -250.45 93.1355 -244.832 98.2014 -238.229C103.267 -231.626 108.326 -225.055 109.444 -223.627C110.56 -222.199 111.489 -220.509 111.507 -219.871C111.526 -219.233 107.133 -212.954 101.745 -205.918ZM65.8873 493.496C52.6828 476.363 41.8675 461.98 41.8529 461.534C41.8322 460.904 47.1194 460.723 65.4948 460.723C80.7004 460.723 89.1634 460.49 89.1634 460.074C89.1634 459.656 80.4172 459.425 64.6462 459.425L40.129 459.425L38.0504 456.991C36.9065 455.653 31.4232 448.571 25.8649 441.253C20.3058 433.936 15.6134 427.823 15.437 427.668C15.2605 427.513 14.7777 427.659 14.3646 427.993C13.9222 428.348 18.3581 434.751 25.1265 443.525C31.4585 451.734 36.6449 458.671 36.651 458.938C36.657 459.205 28.5287 459.425 18.5879 459.425C3.09572 459.425 0.51369 459.564 0.51369 460.398C0.51369 461.234 3.21882 461.372 19.6638 461.377L38.8138 461.383L50.2178 476.263C56.4904 484.448 61.6218 491.308 61.6218 491.509C61.6218 491.71 50.8367 491.874 37.6545 491.874L13.6881 491.874L7.04193 500.642C3.38663 505.465 0.5197 509.978 0.670319 510.673C0.8502 511.501 3.31259 508.82 7.82942 502.88C11.7774 497.688 15.2657 493.813 16.0059 493.798C16.7159 493.784 27.5019 493.749 39.9757 493.722C58.0672 493.682 62.8861 493.851 63.7993 494.558C65.9406 496.215 86.8491 523.993 86.7742 525.081C86.7131 525.955 75.8858 540.558 65.0731 554.348L63.1572 556.792L39.0247 556.619L14.8922 556.447L7.9181 547.362C3.28077 541.32 0.860522 538.713 0.696133 539.581C0.559285 540.299 3.4271 544.747 7.07637 549.478L13.7036 558.07L39.2622 558.07L64.82 558.07L76.6785 542.478C83.1998 533.903 88.8708 526.73 89.2804 526.54C89.6893 526.349 89.9949 525.845 89.9587 525.42C89.9234 524.995 79.0909 510.629 65.8873 493.496ZM89.1935 783.547C88.7218 783.191 78.0942 783.016 63.4515 783.122L38.5126 783.304L27.5372 797.725C21.5013 805.656 15.8088 812.971 14.887 813.98C13.7397 815.237 13.491 816.025 14.0969 816.482C15.0049 817.167 15.2992 816.815 32.1418 794.947L39.8897 784.888L64.6324 784.754C78.2414 784.68 89.5154 784.514 89.6858 784.386C89.8563 784.258 89.6342 783.88 89.1935 783.547ZM39.8096 264.557C38.3869 265.24 39.2356 265.21 19.0183 265.299C7.3277 265.35 0.5137 265.618 0.5137 266.029C0.5137 266.443 7.65216 266.678 20.2086 266.678C39.1848 266.678 39.9206 266.63 40.3544 265.379C40.66 264.499 40.4835 264.234 39.8096 264.557ZM13.639 686.394C13.2835 686.256 10.1851 686.073 6.75361 685.988C1.57491 685.858 0.51368 686.005 0.51368 686.849C0.51368 687.687 1.72209 687.866 7.39912 687.866C13.3412 687.866 15.8854 687.265 13.639 686.394ZM2.61371 864.064L0.522296 861.468L0.517955 863.498C0.513651 865.52 2.28579 867.309 3.87116 866.884C4.3299 866.76 3.76444 865.492 2.61371 864.064Z" fill="#181818"/>
</mask>
<g mask="url(#mask0_257_787)">
<rect x="2.59766" y="0.648438" width="607.965" height="629.305" fill="#FBFBFB"/>
</g>
<g clip-path="url(#clip0_257_787)">
<rect x="107.514" y="117" width="400" height="400" rx="40" fill="#FF713B"/>
<path d="M358.602 471.47C315.197 496.53 251.972 468.281 217.386 408.375C182.799 348.469 253.655 387.435 297.06 362.375C340.465 337.315 339.982 257.719 374.569 317.625C409.156 377.531 402.007 446.41 358.602 471.47Z" fill="white"/>
<path d="M234.419 175.947C266.635 137.553 335.709 142.474 388.699 186.938C441.689 231.401 361.779 219.02 329.562 257.414C297.346 295.808 325.023 370.439 272.033 325.975C219.043 281.511 202.202 214.341 234.419 175.947Z" fill="white"/>
</g>
<defs>
<filter id="filter0_b_257_787" x="-1221.14" y="-1221.14" width="3073.27" height="3073.27" filterUnits="userSpaceOnUse" color-interpolation-filters="sRGB">
<feFlood flood-opacity="0" result="BackgroundImageFix"/>
<feGaussianBlur in="BackgroundImageFix" stdDeviation="610.568"/>
<feComposite in2="SourceAlpha" operator="in" result="effect1_backgroundBlur_257_787"/>
<feBlend mode="normal" in="SourceGraphic" in2="effect1_backgroundBlur_257_787" result="shape"/>
</filter>
<linearGradient id="paint0_linear_257_787" x1="34.4946" y1="7.38239" x2="165.182" y2="708.285" gradientUnits="userSpaceOnUse">
<stop stop-color="#FF713B" stop-opacity="0.3"/>
<stop offset="1" stop-color="#FFB703" stop-opacity="0.3"/>
</linearGradient>
<linearGradient id="paint1_linear_257_787" x1="33.6533" y1="6.21675" x2="174.22" y2="717.6" gradientUnits="userSpaceOnUse">
<stop stop-color="#FF713B"/>
<stop offset="1" stop-color="#FFB703"/>
</linearGradient>
<clipPath id="clip0_257_787">
<rect x="107.514" y="117" width="400" height="400" rx="40" fill="white"/>
</clipPath>
</defs>
</svg>
